%TF.GenerationSoftware,KiCad,Pcbnew,(6.0.2)*%
%TF.CreationDate,2022-11-27T18:43:32-05:00*%
%TF.ProjectId,ECE436_Project,45434534-3336-45f5-9072-6f6a6563742e,rev?*%
%TF.SameCoordinates,Original*%
%TF.FileFunction,Copper,L1,Top*%
%TF.FilePolarity,Positive*%
%FSLAX46Y46*%
G04 Gerber Fmt 4.6, Leading zero omitted, Abs format (unit mm)*
G04 Created by KiCad (PCBNEW (6.0.2)) date 2022-11-27 18:43:32*
%MOMM*%
%LPD*%
G01*
G04 APERTURE LIST*
%TA.AperFunction,ComponentPad*%
%ADD10C,1.600000*%
%TD*%
%TA.AperFunction,ComponentPad*%
%ADD11R,1.600000X1.600000*%
%TD*%
%TA.AperFunction,ComponentPad*%
%ADD12O,1.600000X1.600000*%
%TD*%
%TA.AperFunction,ComponentPad*%
%ADD13O,1.400000X1.400000*%
%TD*%
%TA.AperFunction,ComponentPad*%
%ADD14C,1.400000*%
%TD*%
%TA.AperFunction,ComponentPad*%
%ADD15O,1.700000X1.700000*%
%TD*%
%TA.AperFunction,ComponentPad*%
%ADD16R,1.700000X1.700000*%
%TD*%
%TA.AperFunction,ComponentPad*%
%ADD17C,1.800000*%
%TD*%
%TA.AperFunction,ComponentPad*%
%ADD18R,1.800000X1.800000*%
%TD*%
%TA.AperFunction,ViaPad*%
%ADD19C,0.800000*%
%TD*%
%TA.AperFunction,Conductor*%
%ADD20C,0.200000*%
%TD*%
%TA.AperFunction,Conductor*%
%ADD21C,0.152400*%
%TD*%
G04 APERTURE END LIST*
D10*
%TO.P,U1,14,VCC*%
%TO.N,/3V*%
X255270000Y-121950000D03*
%TO.P,U1,13,4B*%
%TO.N,Net-(U4-Pad10)*%
X255270000Y-119410000D03*
%TO.P,U1,12,4A*%
%TO.N,Net-(U4-Pad9)*%
X255270000Y-116870000D03*
%TO.P,U1,11,4Y*%
%TO.N,Net-(U1-Pad11)*%
X255270000Y-114330000D03*
%TO.P,U1,10,3B*%
%TO.N,Net-(U2-Pad6)*%
X255270000Y-111790000D03*
%TO.P,U1,9,3A*%
%TO.N,Net-(U4-Pad6)*%
X255270000Y-109250000D03*
%TO.P,U1,8,3Y*%
%TO.N,Net-(U4-Pad10)*%
X255270000Y-106710000D03*
%TO.P,U1,7,GND*%
%TO.N,GND*%
X262890000Y-106710000D03*
%TO.P,U1,6,2Y*%
%TO.N,Net-(U4-Pad9)*%
X262890000Y-109250000D03*
%TO.P,U1,5,2B*%
%TO.N,Net-(R2-Pad1)*%
X262890000Y-111790000D03*
%TO.P,U1,4,2A*%
%TO.N,Net-(R6-Pad1)*%
X262890000Y-114330000D03*
%TO.P,U1,3,1Y*%
%TO.N,Net-(U1-Pad3)*%
X262890000Y-116870000D03*
%TO.P,U1,2,1B*%
%TO.N,Net-(U1-Pad2)*%
X262890000Y-119410000D03*
D11*
%TO.P,U1,1,1A*%
%TO.N,Net-(U4-Pad3)*%
X262890000Y-121950000D03*
%TD*%
D10*
%TO.P,U2,14,VCC*%
%TO.N,/3V*%
X224790000Y-121950000D03*
%TO.P,U2,13,4B*%
%TO.N,Net-(U4-Pad10)*%
X224790000Y-119410000D03*
%TO.P,U2,12,4A*%
%TO.N,Net-(U4-Pad9)*%
X224790000Y-116870000D03*
%TO.P,U2,11,4Y*%
%TO.N,Net-(U3-Pad5)*%
X224790000Y-114330000D03*
%TO.P,U2,10,3B*%
%TO.N,Net-(U3-Pad3)*%
X224790000Y-111790000D03*
%TO.P,U2,9,3A*%
%TO.N,Net-(U1-Pad11)*%
X224790000Y-109250000D03*
%TO.P,U2,8,3Y*%
%TO.N,Net-(R7-Pad1)*%
X224790000Y-106710000D03*
%TO.P,U2,7,GND*%
%TO.N,GND*%
X232410000Y-106710000D03*
%TO.P,U2,6,2Y*%
%TO.N,Net-(U2-Pad6)*%
X232410000Y-109250000D03*
%TO.P,U2,5,2B*%
%TO.N,Net-(R3-Pad1)*%
X232410000Y-111790000D03*
%TO.P,U2,4,2A*%
%TO.N,Net-(R4-Pad1)*%
X232410000Y-114330000D03*
%TO.P,U2,3,1Y*%
%TO.N,Net-(U1-Pad2)*%
X232410000Y-116870000D03*
%TO.P,U2,2,1B*%
%TO.N,Net-(R2-Pad1)*%
X232410000Y-119410000D03*
D11*
%TO.P,U2,1,1A*%
%TO.N,Net-(R6-Pad1)*%
X232410000Y-121950000D03*
%TD*%
D10*
%TO.P,U4,14,VCC*%
%TO.N,/3V*%
X209550000Y-121920000D03*
%TO.P,U4,13,4B*%
%TO.N,unconnected-(U4-Pad13)*%
X209550000Y-119380000D03*
%TO.P,U4,12,4A*%
%TO.N,unconnected-(U4-Pad12)*%
X209550000Y-116840000D03*
%TO.P,U4,11,4Y*%
%TO.N,unconnected-(U4-Pad11)*%
X209550000Y-114300000D03*
%TO.P,U4,10,3B*%
%TO.N,Net-(U4-Pad10)*%
X209550000Y-111760000D03*
%TO.P,U4,9,3A*%
%TO.N,Net-(U4-Pad9)*%
X209550000Y-109220000D03*
%TO.P,U4,8,3Y*%
%TO.N,Net-(U4-Pad8)*%
X209550000Y-106680000D03*
%TO.P,U4,7,GND*%
%TO.N,GND*%
X217170000Y-106680000D03*
%TO.P,U4,6,2Y*%
%TO.N,Net-(U4-Pad6)*%
X217170000Y-109220000D03*
%TO.P,U4,5,2B*%
%TO.N,Net-(R3-Pad1)*%
X217170000Y-111760000D03*
%TO.P,U4,4,2A*%
%TO.N,Net-(R4-Pad1)*%
X217170000Y-114300000D03*
%TO.P,U4,3,1Y*%
%TO.N,Net-(U4-Pad3)*%
X217170000Y-116840000D03*
%TO.P,U4,2,1B*%
%TO.N,Net-(R2-Pad1)*%
X217170000Y-119380000D03*
D11*
%TO.P,U4,1,1A*%
%TO.N,Net-(R6-Pad1)*%
X217170000Y-121920000D03*
%TD*%
D10*
%TO.P,U3,14,VCC*%
%TO.N,/3V*%
X240030000Y-121950000D03*
%TO.P,U3,13,4B*%
%TO.N,unconnected-(U3-Pad13)*%
X240030000Y-119410000D03*
%TO.P,U3,12,4A*%
%TO.N,unconnected-(U3-Pad12)*%
X240030000Y-116870000D03*
%TO.P,U3,11,4Y*%
%TO.N,unconnected-(U3-Pad11)*%
X240030000Y-114330000D03*
%TO.P,U3,10,3B*%
%TO.N,unconnected-(U3-Pad10)*%
X240030000Y-111790000D03*
%TO.P,U3,9,3A*%
%TO.N,unconnected-(U3-Pad9)*%
X240030000Y-109250000D03*
%TO.P,U3,8,3Y*%
%TO.N,unconnected-(U3-Pad8)*%
X240030000Y-106710000D03*
%TO.P,U3,7,GND*%
%TO.N,GND*%
X247650000Y-106710000D03*
%TO.P,U3,6,2Y*%
%TO.N,Net-(R5-Pad1)*%
X247650000Y-109250000D03*
%TO.P,U3,5,2B*%
%TO.N,Net-(U3-Pad5)*%
X247650000Y-111790000D03*
%TO.P,U3,4,2A*%
%TO.N,Net-(U4-Pad8)*%
X247650000Y-114330000D03*
%TO.P,U3,3,1Y*%
%TO.N,Net-(U3-Pad3)*%
X247650000Y-116870000D03*
%TO.P,U3,2,1B*%
%TO.N,Net-(R4-Pad1)*%
X247650000Y-119410000D03*
D11*
%TO.P,U3,1,1A*%
%TO.N,Net-(R3-Pad1)*%
X247650000Y-121950000D03*
%TD*%
D12*
%TO.P,SW1,8*%
%TO.N,Net-(R3-Pad1)*%
X245120000Y-143467500D03*
%TO.P,SW1,7*%
%TO.N,Net-(R2-Pad1)*%
X247660000Y-143467500D03*
%TO.P,SW1,6*%
%TO.N,Net-(R4-Pad1)*%
X250200000Y-143467500D03*
%TO.P,SW1,5*%
%TO.N,Net-(R6-Pad1)*%
X252740000Y-143467500D03*
%TO.P,SW1,4*%
%TO.N,GND*%
X252740000Y-151087500D03*
%TO.P,SW1,3*%
X250200000Y-151087500D03*
%TO.P,SW1,2*%
X247660000Y-151087500D03*
D11*
%TO.P,SW1,1*%
X245120000Y-151087500D03*
%TD*%
D13*
%TO.P,R7,2*%
%TO.N,Net-(D1-Pad2)*%
X228904800Y-88752600D03*
D14*
%TO.P,R7,1*%
%TO.N,Net-(R7-Pad1)*%
X228904800Y-96372600D03*
%TD*%
D13*
%TO.P,R6,2*%
%TO.N,/3V*%
X218440000Y-136448800D03*
D14*
%TO.P,R6,1*%
%TO.N,Net-(R6-Pad1)*%
X226060000Y-136448800D03*
%TD*%
%TO.P,R5,1*%
%TO.N,Net-(R5-Pad1)*%
X238760000Y-96372600D03*
D13*
%TO.P,R5,2*%
%TO.N,Net-(R5-Pad2)*%
X238760000Y-88752600D03*
%TD*%
%TO.P,R4,2*%
%TO.N,/3V*%
X218440000Y-142240000D03*
D14*
%TO.P,R4,1*%
%TO.N,Net-(R4-Pad1)*%
X226060000Y-142240000D03*
%TD*%
%TO.P,R3,1*%
%TO.N,Net-(R3-Pad1)*%
X226060000Y-147929600D03*
D13*
%TO.P,R3,2*%
%TO.N,/3V*%
X218440000Y-147929600D03*
%TD*%
%TO.P,R2,2*%
%TO.N,/3V*%
X218440000Y-153873200D03*
D14*
%TO.P,R2,1*%
%TO.N,Net-(R2-Pad1)*%
X226060000Y-153873200D03*
%TD*%
%TO.P,R1,1*%
%TO.N,Net-(U1-Pad3)*%
X248564400Y-96372600D03*
D13*
%TO.P,R1,2*%
%TO.N,Net-(R1-Pad2)*%
X248564400Y-88752600D03*
%TD*%
D15*
%TO.P,J1,3,Pin_3*%
%TO.N,GND*%
X212039200Y-149606000D03*
%TO.P,J1,2,Pin_2*%
%TO.N,unconnected-(J1-Pad2)*%
X212039200Y-147066000D03*
D16*
%TO.P,J1,1,Pin_1*%
%TO.N,/3V*%
X212039200Y-144526000D03*
%TD*%
D17*
%TO.P,D4,2,A*%
%TO.N,Net-(R5-Pad2)*%
X238709200Y-83769200D03*
D18*
%TO.P,D4,1,K*%
%TO.N,GND*%
X238709200Y-81229200D03*
%TD*%
%TO.P,D3,1,K*%
%TO.N,GND*%
X248564400Y-81229200D03*
D17*
%TO.P,D3,2,A*%
%TO.N,Net-(R1-Pad2)*%
X248564400Y-83769200D03*
%TD*%
%TO.P,D1,2,A*%
%TO.N,Net-(D1-Pad2)*%
X228904800Y-83769200D03*
D18*
%TO.P,D1,1,K*%
%TO.N,GND*%
X228904800Y-81229200D03*
%TD*%
D19*
%TO.N,Net-(U2-Pad6)*%
X238607600Y-103047800D03*
%TO.N,Net-(U3-Pad3)*%
X251968000Y-116840000D03*
X251460000Y-113030000D03*
%TO.N,Net-(U1-Pad11)*%
X259842000Y-109220000D03*
X233680000Y-100330000D03*
%TO.N,Net-(U3-Pad5)*%
X221742000Y-112014000D03*
%TO.N,Net-(U4-Pad6)*%
X252264211Y-110374511D03*
%TO.N,Net-(U4-Pad10)*%
X234442000Y-119380000D03*
X238252000Y-125984000D03*
X249682000Y-125476000D03*
%TO.N,Net-(U1-Pad2)*%
X235966000Y-128524000D03*
X235966000Y-119380000D03*
%TO.N,Net-(R4-Pad1)*%
X238506000Y-130048000D03*
X238506000Y-139192000D03*
%TO.N,Net-(R3-Pad1)*%
X245110000Y-130302000D03*
X251460000Y-119380000D03*
%TD*%
D20*
%TO.N,Net-(U2-Pad6)*%
X238594900Y-103060500D02*
X238607600Y-103047800D01*
X233509511Y-108145889D02*
X238594900Y-103060500D01*
X233509511Y-108150489D02*
X233509511Y-108145889D01*
X232410000Y-109250000D02*
X233509511Y-108150489D01*
D21*
%TO.N,Net-(U3-Pad5)*%
X251485400Y-103886000D02*
X251485400Y-107954600D01*
X242036600Y-94437200D02*
X251485400Y-103886000D01*
X251485400Y-107954600D02*
X247650000Y-111790000D01*
X222834200Y-94437200D02*
X242036600Y-94437200D01*
X221716600Y-95554800D02*
X222834200Y-94437200D01*
X221716600Y-102130135D02*
X221716600Y-95554800D01*
X221742000Y-102155535D02*
X221716600Y-102130135D01*
X221742000Y-112014000D02*
X221742000Y-102155535D01*
%TO.N,Net-(U4-Pad10)*%
X231470200Y-126492000D02*
X234442000Y-123520200D01*
X232486200Y-130632200D02*
X231470200Y-129616200D01*
X231470200Y-129616200D02*
X231470200Y-126492000D01*
X235254800Y-130632200D02*
X232486200Y-130632200D01*
X238252000Y-127635000D02*
X235254800Y-130632200D01*
X238252000Y-125984000D02*
X238252000Y-127635000D01*
X234442000Y-123520200D02*
X234442000Y-119380000D01*
%TO.N,Net-(U3-Pad3)*%
X251938000Y-116870000D02*
X247650000Y-116870000D01*
X251968000Y-116840000D02*
X251938000Y-116870000D01*
X247299700Y-113030000D02*
X251460000Y-113030000D01*
X244935189Y-110665489D02*
X247299700Y-113030000D01*
X225914511Y-110665489D02*
X244935189Y-110665489D01*
X224790000Y-111790000D02*
X225914511Y-110665489D01*
%TO.N,Net-(U1-Pad11)*%
X259842000Y-109758000D02*
X255270000Y-114330000D01*
X259842000Y-109220000D02*
X259842000Y-109758000D01*
X233680000Y-100360000D02*
X233680000Y-100330000D01*
X224790000Y-109250000D02*
X233680000Y-100360000D01*
%TO.N,Net-(U4-Pad6)*%
X253388722Y-109250000D02*
X255270000Y-109250000D01*
X252264211Y-110374511D02*
X253388722Y-109250000D01*
%TO.N,Net-(U4-Pad10)*%
X249682000Y-124998000D02*
X249682000Y-125476000D01*
X255270000Y-119410000D02*
X249682000Y-124998000D01*
%TO.N,Net-(U1-Pad2)*%
X235966000Y-119380000D02*
X235966000Y-128524000D01*
%TO.N,Net-(R4-Pad1)*%
X238506000Y-128554000D02*
X247650000Y-119410000D01*
X238506000Y-130048000D02*
X238506000Y-128554000D01*
X238506000Y-142240000D02*
X238506000Y-139192000D01*
X238506000Y-142240000D02*
X248972500Y-142240000D01*
X226060000Y-142240000D02*
X238506000Y-142240000D01*
%TO.N,Net-(R3-Pad1)*%
X247650000Y-127762000D02*
X247650000Y-121950000D01*
X245110000Y-130302000D02*
X247650000Y-127762000D01*
%TO.N,Net-(U4-Pad10)*%
X223344511Y-117964511D02*
X224790000Y-119410000D01*
X216704211Y-117964511D02*
X223344511Y-117964511D01*
X215900000Y-117160300D02*
X216704211Y-117964511D01*
X210820000Y-111760000D02*
X215900000Y-116840000D01*
X209550000Y-111760000D02*
X210820000Y-111760000D01*
X215900000Y-116840000D02*
X215900000Y-117160300D01*
%TO.N,Net-(U4-Pad9)*%
X255270000Y-116870000D02*
X262890000Y-109250000D01*
X254145489Y-115745489D02*
X255270000Y-116870000D01*
X225914511Y-115745489D02*
X254145489Y-115745489D01*
X224790000Y-116870000D02*
X225914511Y-115745489D01*
X223635489Y-115715489D02*
X224790000Y-116870000D01*
X216045489Y-115715489D02*
X223635489Y-115715489D01*
X209550000Y-109220000D02*
X216045489Y-115715489D01*
%TO.N,Net-(U4-Pad8)*%
X246234511Y-112914511D02*
X247650000Y-114330000D01*
X215784511Y-112914511D02*
X246234511Y-112914511D01*
X209550000Y-106680000D02*
X215784511Y-112914511D01*
%TO.N,Net-(R3-Pad1)*%
X248890000Y-121950000D02*
X247650000Y-121950000D01*
X251460000Y-119380000D02*
X248890000Y-121950000D01*
%TO.N,Net-(R2-Pad1)*%
X256685489Y-117994511D02*
X262890000Y-111790000D01*
X233825489Y-117994511D02*
X256685489Y-117994511D01*
X232410000Y-119410000D02*
X233825489Y-117994511D01*
X230994511Y-120825489D02*
X232410000Y-119410000D01*
X218615489Y-120825489D02*
X230994511Y-120825489D01*
X217170000Y-119380000D02*
X218615489Y-120825489D01*
%TO.N,Net-(R6-Pad1)*%
X248920000Y-132080000D02*
X251460000Y-129540000D01*
X226060000Y-132080000D02*
X248920000Y-132080000D01*
X226060000Y-132080000D02*
X226060000Y-130810000D01*
X226060000Y-136448800D02*
X226060000Y-132080000D01*
X259080000Y-118140000D02*
X262890000Y-114330000D01*
X251460000Y-129540000D02*
X259080000Y-121920000D01*
X259080000Y-121920000D02*
X259080000Y-118140000D01*
X232410000Y-124460000D02*
X232410000Y-121950000D01*
X226060000Y-130810000D02*
X232410000Y-124460000D01*
X226060000Y-130810000D02*
X217170000Y-121920000D01*
%TO.N,Net-(R2-Pad1)*%
X237254300Y-153873200D02*
X247660000Y-143467500D01*
X226060000Y-153873200D02*
X237254300Y-153873200D01*
%TO.N,Net-(R3-Pad1)*%
X230522100Y-143467500D02*
X245120000Y-143467500D01*
X226060000Y-147929600D02*
X230522100Y-143467500D01*
%TO.N,Net-(R4-Pad1)*%
X248972500Y-142240000D02*
X250200000Y-143467500D01*
%TO.N,Net-(R6-Pad1)*%
X226060000Y-136448800D02*
X245721300Y-136448800D01*
X245721300Y-136448800D02*
X252740000Y-143467500D01*
%TO.N,Net-(U1-Pad3)*%
X266700000Y-113060000D02*
X262890000Y-116870000D01*
X266700000Y-99060000D02*
X266700000Y-113060000D01*
X264012600Y-96372600D02*
X266700000Y-99060000D01*
X248564400Y-96372600D02*
X264012600Y-96372600D01*
%TO.N,Net-(R5-Pad1)*%
X238760000Y-100360000D02*
X247650000Y-109250000D01*
X238760000Y-96372600D02*
X238760000Y-100360000D01*
%TO.N,Net-(R7-Pad1)*%
X224790000Y-100487400D02*
X228904800Y-96372600D01*
X224790000Y-106710000D02*
X224790000Y-100487400D01*
%TO.N,/3V*%
X218440000Y-147929600D02*
X218440000Y-153873200D01*
X218440000Y-147929600D02*
X218440000Y-142240000D01*
X214325200Y-142240000D02*
X212039200Y-144526000D01*
X218440000Y-142240000D02*
X214325200Y-142240000D01*
X218440000Y-136448800D02*
X218440000Y-142240000D01*
%TO.N,Net-(R1-Pad2)*%
X248564400Y-88752600D02*
X248564400Y-83769200D01*
%TO.N,Net-(R5-Pad2)*%
X238760000Y-88752600D02*
X238760000Y-83820000D01*
X238760000Y-83820000D02*
X238709200Y-83769200D01*
%TO.N,Net-(D1-Pad2)*%
X228904800Y-88752600D02*
X228904800Y-83769200D01*
%TD*%
M02*
