M48
; DRILL file {KiCad (6.0.2)} date Sun Nov 27 18:43:44 2022
; FORMAT={-:-/ absolute / metric / decimal}
; #@! TF.CreationDate,2022-11-27T18:43:44-05:00
; #@! TF.GenerationSoftware,Kicad,Pcbnew,(6.0.2)
; #@! TF.FileFunction,Plated,1,2,PTH
FMAT,2
METRIC
; #@! TA.AperFunction,Plated,PTH,ViaDrill
T1C0.400
; #@! TA.AperFunction,Plated,PTH,ComponentDrill
T2C0.700
; #@! TA.AperFunction,Plated,PTH,ComponentDrill
T3C0.800
; #@! TA.AperFunction,Plated,PTH,ComponentDrill
T4C0.900
; #@! TA.AperFunction,Plated,PTH,ComponentDrill
T5C1.000
%
G90
G05
T1
X221.742Y-112.014
X233.68Y-100.33
X234.442Y-119.38
X235.966Y-119.38
X235.966Y-128.524
X238.252Y-125.984
X238.506Y-130.048
X238.506Y-139.192
X238.608Y-103.048
X245.11Y-130.302
X249.682Y-125.476
X251.46Y-113.03
X251.46Y-119.38
X251.968Y-116.84
X252.264Y-110.375
X259.842Y-109.22
T2
X218.44Y-136.449
X218.44Y-142.24
X218.44Y-147.93
X218.44Y-153.873
X226.06Y-136.449
X226.06Y-142.24
X226.06Y-147.93
X226.06Y-153.873
X228.905Y-88.753
X228.905Y-96.373
X238.76Y-88.753
X238.76Y-96.373
X248.564Y-88.753
X248.564Y-96.373
T3
X245.12Y-143.468
X245.12Y-151.088
X247.66Y-143.468
X247.66Y-151.088
X250.2Y-143.468
X250.2Y-151.088
X252.74Y-143.468
X252.74Y-151.088
T4
X228.905Y-81.229
X228.905Y-83.769
X238.709Y-81.229
X238.709Y-83.769
X248.564Y-81.229
X248.564Y-83.769
T5
X209.55Y-106.68
X209.55Y-109.22
X209.55Y-111.76
X209.55Y-114.3
X209.55Y-116.84
X209.55Y-119.38
X209.55Y-121.92
X212.039Y-144.526
X212.039Y-147.066
X212.039Y-149.606
X217.17Y-106.68
X217.17Y-109.22
X217.17Y-111.76
X217.17Y-114.3
X217.17Y-116.84
X217.17Y-119.38
X217.17Y-121.92
X224.79Y-106.71
X224.79Y-109.25
X224.79Y-111.79
X224.79Y-114.33
X224.79Y-116.87
X224.79Y-119.41
X224.79Y-121.95
X232.41Y-106.71
X232.41Y-109.25
X232.41Y-111.79
X232.41Y-114.33
X232.41Y-116.87
X232.41Y-119.41
X232.41Y-121.95
X240.03Y-106.71
X240.03Y-109.25
X240.03Y-111.79
X240.03Y-114.33
X240.03Y-116.87
X240.03Y-119.41
X240.03Y-121.95
X247.65Y-106.71
X247.65Y-109.25
X247.65Y-111.79
X247.65Y-114.33
X247.65Y-116.87
X247.65Y-119.41
X247.65Y-121.95
X255.27Y-106.71
X255.27Y-109.25
X255.27Y-111.79
X255.27Y-114.33
X255.27Y-116.87
X255.27Y-119.41
X255.27Y-121.95
X262.89Y-106.71
X262.89Y-109.25
X262.89Y-111.79
X262.89Y-114.33
X262.89Y-116.87
X262.89Y-119.41
X262.89Y-121.95
T0
M30
