%TF.GenerationSoftware,KiCad,Pcbnew,(6.0.2)*%
%TF.CreationDate,2022-11-27T18:43:32-05:00*%
%TF.ProjectId,ECE436_Project,45434534-3336-45f5-9072-6f6a6563742e,rev?*%
%TF.SameCoordinates,Original*%
%TF.FileFunction,Legend,Top*%
%TF.FilePolarity,Positive*%
%FSLAX46Y46*%
G04 Gerber Fmt 4.6, Leading zero omitted, Abs format (unit mm)*
G04 Created by KiCad (PCBNEW (6.0.2)) date 2022-11-27 18:43:32*
%MOMM*%
%LPD*%
G01*
G04 APERTURE LIST*
%ADD10C,0.150000*%
%ADD11C,0.250000*%
%ADD12C,0.200000*%
%ADD13C,0.100000*%
%ADD14C,0.120000*%
G04 APERTURE END LIST*
D10*
X207772095Y-149588600D02*
X207676857Y-149540980D01*
X207534000Y-149540980D01*
X207391142Y-149588600D01*
X207295904Y-149683838D01*
X207248285Y-149779076D01*
X207200666Y-149969552D01*
X207200666Y-150112409D01*
X207248285Y-150302885D01*
X207295904Y-150398123D01*
X207391142Y-150493361D01*
X207534000Y-150540980D01*
X207629238Y-150540980D01*
X207772095Y-150493361D01*
X207819714Y-150445742D01*
X207819714Y-150112409D01*
X207629238Y-150112409D01*
X208248285Y-150540980D02*
X208248285Y-149540980D01*
X208819714Y-150540980D01*
X208819714Y-149540980D01*
X209295904Y-150540980D02*
X209295904Y-149540980D01*
X209534000Y-149540980D01*
X209676857Y-149588600D01*
X209772095Y-149683838D01*
X209819714Y-149779076D01*
X209867333Y-149969552D01*
X209867333Y-150112409D01*
X209819714Y-150302885D01*
X209772095Y-150398123D01*
X209676857Y-150493361D01*
X209534000Y-150540980D01*
X209295904Y-150540980D01*
X207924495Y-143851380D02*
X208543542Y-143851380D01*
X208210209Y-144232333D01*
X208353066Y-144232333D01*
X208448304Y-144279952D01*
X208495923Y-144327571D01*
X208543542Y-144422809D01*
X208543542Y-144660904D01*
X208495923Y-144756142D01*
X208448304Y-144803761D01*
X208353066Y-144851380D01*
X208067352Y-144851380D01*
X207972114Y-144803761D01*
X207924495Y-144756142D01*
X208829257Y-143851380D02*
X209162590Y-144851380D01*
X209495923Y-143851380D01*
X248564000Y-133151619D02*
X248611619Y-133104000D01*
X248706857Y-133056380D01*
X248944952Y-133056380D01*
X249040190Y-133104000D01*
X249087809Y-133151619D01*
X249135428Y-133246857D01*
X249135428Y-133342095D01*
X249087809Y-133484952D01*
X248516380Y-134056380D01*
X249135428Y-134056380D01*
X249564000Y-134056380D02*
X249564000Y-133056380D01*
X249564000Y-133437333D02*
X249659238Y-133389714D01*
X249849714Y-133389714D01*
X249944952Y-133437333D01*
X249992571Y-133484952D01*
X250040190Y-133580190D01*
X250040190Y-133865904D01*
X249992571Y-133961142D01*
X249944952Y-134008761D01*
X249849714Y-134056380D01*
X249659238Y-134056380D01*
X249564000Y-134008761D01*
X250468761Y-134056380D02*
X250468761Y-133389714D01*
X250468761Y-133056380D02*
X250421142Y-133104000D01*
X250468761Y-133151619D01*
X250516380Y-133104000D01*
X250468761Y-133056380D01*
X250468761Y-133151619D01*
X250802095Y-133389714D02*
X251183047Y-133389714D01*
X250944952Y-133056380D02*
X250944952Y-133913523D01*
X250992571Y-134008761D01*
X251087809Y-134056380D01*
X251183047Y-134056380D01*
X252230666Y-133770666D02*
X252706857Y-133770666D01*
X252135428Y-134056380D02*
X252468761Y-133056380D01*
X252802095Y-134056380D01*
X253897333Y-133675428D02*
X254659238Y-133675428D01*
X254278285Y-134056380D02*
X254278285Y-133294476D01*
X255849714Y-133151619D02*
X255897333Y-133104000D01*
X255992571Y-133056380D01*
X256230666Y-133056380D01*
X256325904Y-133104000D01*
X256373523Y-133151619D01*
X256421142Y-133246857D01*
X256421142Y-133342095D01*
X256373523Y-133484952D01*
X255802095Y-134056380D01*
X256421142Y-134056380D01*
X256849714Y-134056380D02*
X256849714Y-133056380D01*
X256849714Y-133437333D02*
X256944952Y-133389714D01*
X257135428Y-133389714D01*
X257230666Y-133437333D01*
X257278285Y-133484952D01*
X257325904Y-133580190D01*
X257325904Y-133865904D01*
X257278285Y-133961142D01*
X257230666Y-134008761D01*
X257135428Y-134056380D01*
X256944952Y-134056380D01*
X256849714Y-134008761D01*
X257754476Y-134056380D02*
X257754476Y-133389714D01*
X257754476Y-133056380D02*
X257706857Y-133104000D01*
X257754476Y-133151619D01*
X257802095Y-133104000D01*
X257754476Y-133056380D01*
X257754476Y-133151619D01*
X258087809Y-133389714D02*
X258468761Y-133389714D01*
X258230666Y-133056380D02*
X258230666Y-133913523D01*
X258278285Y-134008761D01*
X258373523Y-134056380D01*
X258468761Y-134056380D01*
X259897333Y-133532571D02*
X260040190Y-133580190D01*
X260087809Y-133627809D01*
X260135428Y-133723047D01*
X260135428Y-133865904D01*
X260087809Y-133961142D01*
X260040190Y-134008761D01*
X259944952Y-134056380D01*
X259564000Y-134056380D01*
X259564000Y-133056380D01*
X259897333Y-133056380D01*
X259992571Y-133104000D01*
X260040190Y-133151619D01*
X260087809Y-133246857D01*
X260087809Y-133342095D01*
X260040190Y-133437333D01*
X259992571Y-133484952D01*
X259897333Y-133532571D01*
X259564000Y-133532571D01*
X261325904Y-133532571D02*
X262087809Y-133532571D01*
X262087809Y-133818285D02*
X261325904Y-133818285D01*
X263230666Y-133056380D02*
X263849714Y-133056380D01*
X263516380Y-133437333D01*
X263659238Y-133437333D01*
X263754476Y-133484952D01*
X263802095Y-133532571D01*
X263849714Y-133627809D01*
X263849714Y-133865904D01*
X263802095Y-133961142D01*
X263754476Y-134008761D01*
X263659238Y-134056380D01*
X263373523Y-134056380D01*
X263278285Y-134008761D01*
X263230666Y-133961142D01*
X264278285Y-134056380D02*
X264278285Y-133056380D01*
X264278285Y-133437333D02*
X264373523Y-133389714D01*
X264564000Y-133389714D01*
X264659238Y-133437333D01*
X264706857Y-133484952D01*
X264754476Y-133580190D01*
X264754476Y-133865904D01*
X264706857Y-133961142D01*
X264659238Y-134008761D01*
X264564000Y-134056380D01*
X264373523Y-134056380D01*
X264278285Y-134008761D01*
X265183047Y-134056380D02*
X265183047Y-133389714D01*
X265183047Y-133056380D02*
X265135428Y-133104000D01*
X265183047Y-133151619D01*
X265230666Y-133104000D01*
X265183047Y-133056380D01*
X265183047Y-133151619D01*
X265516380Y-133389714D02*
X265897333Y-133389714D01*
X265659238Y-133056380D02*
X265659238Y-133913523D01*
X265706857Y-134008761D01*
X265802095Y-134056380D01*
X265897333Y-134056380D01*
X267564000Y-133961142D02*
X267516380Y-134008761D01*
X267373523Y-134056380D01*
X267278285Y-134056380D01*
X267135428Y-134008761D01*
X267040190Y-133913523D01*
X266992571Y-133818285D01*
X266944952Y-133627809D01*
X266944952Y-133484952D01*
X266992571Y-133294476D01*
X267040190Y-133199238D01*
X267135428Y-133104000D01*
X267278285Y-133056380D01*
X267373523Y-133056380D01*
X267516380Y-133104000D01*
X267564000Y-133151619D01*
X247341714Y-130865619D02*
X247389333Y-130818000D01*
X247484571Y-130770380D01*
X247722666Y-130770380D01*
X247817904Y-130818000D01*
X247865523Y-130865619D01*
X247913142Y-130960857D01*
X247913142Y-131056095D01*
X247865523Y-131198952D01*
X247294095Y-131770380D01*
X247913142Y-131770380D01*
X248341714Y-131770380D02*
X248341714Y-130770380D01*
X248341714Y-131151333D02*
X248436952Y-131103714D01*
X248627428Y-131103714D01*
X248722666Y-131151333D01*
X248770285Y-131198952D01*
X248817904Y-131294190D01*
X248817904Y-131579904D01*
X248770285Y-131675142D01*
X248722666Y-131722761D01*
X248627428Y-131770380D01*
X248436952Y-131770380D01*
X248341714Y-131722761D01*
X249246476Y-131770380D02*
X249246476Y-131103714D01*
X249246476Y-130770380D02*
X249198857Y-130818000D01*
X249246476Y-130865619D01*
X249294095Y-130818000D01*
X249246476Y-130770380D01*
X249246476Y-130865619D01*
X249579809Y-131103714D02*
X249960761Y-131103714D01*
X249722666Y-130770380D02*
X249722666Y-131627523D01*
X249770285Y-131722761D01*
X249865523Y-131770380D01*
X249960761Y-131770380D01*
X251389333Y-131246571D02*
X251532190Y-131294190D01*
X251579809Y-131341809D01*
X251627428Y-131437047D01*
X251627428Y-131579904D01*
X251579809Y-131675142D01*
X251532190Y-131722761D01*
X251436952Y-131770380D01*
X251056000Y-131770380D01*
X251056000Y-130770380D01*
X251389333Y-130770380D01*
X251484571Y-130818000D01*
X251532190Y-130865619D01*
X251579809Y-130960857D01*
X251579809Y-131056095D01*
X251532190Y-131151333D01*
X251484571Y-131198952D01*
X251389333Y-131246571D01*
X251056000Y-131246571D01*
X252056000Y-131770380D02*
X252056000Y-131103714D01*
X252056000Y-130770380D02*
X252008380Y-130818000D01*
X252056000Y-130865619D01*
X252103619Y-130818000D01*
X252056000Y-130770380D01*
X252056000Y-130865619D01*
X252532190Y-131103714D02*
X252532190Y-131770380D01*
X252532190Y-131198952D02*
X252579809Y-131151333D01*
X252675047Y-131103714D01*
X252817904Y-131103714D01*
X252913142Y-131151333D01*
X252960761Y-131246571D01*
X252960761Y-131770380D01*
X253865523Y-131770380D02*
X253865523Y-131246571D01*
X253817904Y-131151333D01*
X253722666Y-131103714D01*
X253532190Y-131103714D01*
X253436952Y-131151333D01*
X253865523Y-131722761D02*
X253770285Y-131770380D01*
X253532190Y-131770380D01*
X253436952Y-131722761D01*
X253389333Y-131627523D01*
X253389333Y-131532285D01*
X253436952Y-131437047D01*
X253532190Y-131389428D01*
X253770285Y-131389428D01*
X253865523Y-131341809D01*
X254341714Y-131770380D02*
X254341714Y-131103714D01*
X254341714Y-131294190D02*
X254389333Y-131198952D01*
X254436952Y-131151333D01*
X254532190Y-131103714D01*
X254627428Y-131103714D01*
X254865523Y-131103714D02*
X255103619Y-131770380D01*
X255341714Y-131103714D02*
X255103619Y-131770380D01*
X255008380Y-132008476D01*
X254960761Y-132056095D01*
X254865523Y-132103714D01*
X257056000Y-131675142D02*
X257008380Y-131722761D01*
X256865523Y-131770380D01*
X256770285Y-131770380D01*
X256627428Y-131722761D01*
X256532190Y-131627523D01*
X256484571Y-131532285D01*
X256436952Y-131341809D01*
X256436952Y-131198952D01*
X256484571Y-131008476D01*
X256532190Y-130913238D01*
X256627428Y-130818000D01*
X256770285Y-130770380D01*
X256865523Y-130770380D01*
X257008380Y-130818000D01*
X257056000Y-130865619D01*
X257913142Y-131770380D02*
X257913142Y-131246571D01*
X257865523Y-131151333D01*
X257770285Y-131103714D01*
X257579809Y-131103714D01*
X257484571Y-131151333D01*
X257913142Y-131722761D02*
X257817904Y-131770380D01*
X257579809Y-131770380D01*
X257484571Y-131722761D01*
X257436952Y-131627523D01*
X257436952Y-131532285D01*
X257484571Y-131437047D01*
X257579809Y-131389428D01*
X257817904Y-131389428D01*
X257913142Y-131341809D01*
X258532190Y-131770380D02*
X258436952Y-131722761D01*
X258389333Y-131627523D01*
X258389333Y-130770380D01*
X259341714Y-131722761D02*
X259246476Y-131770380D01*
X259056000Y-131770380D01*
X258960761Y-131722761D01*
X258913142Y-131675142D01*
X258865523Y-131579904D01*
X258865523Y-131294190D01*
X258913142Y-131198952D01*
X258960761Y-131151333D01*
X259056000Y-131103714D01*
X259246476Y-131103714D01*
X259341714Y-131151333D01*
X260198857Y-131103714D02*
X260198857Y-131770380D01*
X259770285Y-131103714D02*
X259770285Y-131627523D01*
X259817904Y-131722761D01*
X259913142Y-131770380D01*
X260056000Y-131770380D01*
X260151238Y-131722761D01*
X260198857Y-131675142D01*
X260817904Y-131770380D02*
X260722666Y-131722761D01*
X260675047Y-131627523D01*
X260675047Y-130770380D01*
X261627428Y-131770380D02*
X261627428Y-131246571D01*
X261579809Y-131151333D01*
X261484571Y-131103714D01*
X261294095Y-131103714D01*
X261198857Y-131151333D01*
X261627428Y-131722761D02*
X261532190Y-131770380D01*
X261294095Y-131770380D01*
X261198857Y-131722761D01*
X261151238Y-131627523D01*
X261151238Y-131532285D01*
X261198857Y-131437047D01*
X261294095Y-131389428D01*
X261532190Y-131389428D01*
X261627428Y-131341809D01*
X261960761Y-131103714D02*
X262341714Y-131103714D01*
X262103619Y-130770380D02*
X262103619Y-131627523D01*
X262151238Y-131722761D01*
X262246476Y-131770380D01*
X262341714Y-131770380D01*
X262817904Y-131770380D02*
X262722666Y-131722761D01*
X262675047Y-131675142D01*
X262627428Y-131579904D01*
X262627428Y-131294190D01*
X262675047Y-131198952D01*
X262722666Y-131151333D01*
X262817904Y-131103714D01*
X262960761Y-131103714D01*
X263056000Y-131151333D01*
X263103619Y-131198952D01*
X263151238Y-131294190D01*
X263151238Y-131579904D01*
X263103619Y-131675142D01*
X263056000Y-131722761D01*
X262960761Y-131770380D01*
X262817904Y-131770380D01*
X263579809Y-131770380D02*
X263579809Y-131103714D01*
X263579809Y-131294190D02*
X263627428Y-131198952D01*
X263675047Y-131151333D01*
X263770285Y-131103714D01*
X263865523Y-131103714D01*
X264817904Y-130770380D02*
X265151238Y-131770380D01*
X265484571Y-130770380D01*
X266341714Y-131770380D02*
X265770285Y-131770380D01*
X266056000Y-131770380D02*
X266056000Y-130770380D01*
X265960761Y-130913238D01*
X265865523Y-131008476D01*
X265770285Y-131056095D01*
X266770285Y-131675142D02*
X266817904Y-131722761D01*
X266770285Y-131770380D01*
X266722666Y-131722761D01*
X266770285Y-131675142D01*
X266770285Y-131770380D01*
X267436952Y-130770380D02*
X267532190Y-130770380D01*
X267627428Y-130818000D01*
X267675047Y-130865619D01*
X267722666Y-130960857D01*
X267770285Y-131151333D01*
X267770285Y-131389428D01*
X267722666Y-131579904D01*
X267675047Y-131675142D01*
X267627428Y-131722761D01*
X267532190Y-131770380D01*
X267436952Y-131770380D01*
X267341714Y-131722761D01*
X267294095Y-131675142D01*
X267246476Y-131579904D01*
X267198857Y-131389428D01*
X267198857Y-131151333D01*
X267246476Y-130960857D01*
X267294095Y-130865619D01*
X267341714Y-130818000D01*
X267436952Y-130770380D01*
X248245333Y-78589142D02*
X248197714Y-78636761D01*
X248054857Y-78684380D01*
X247959619Y-78684380D01*
X247816761Y-78636761D01*
X247721523Y-78541523D01*
X247673904Y-78446285D01*
X247626285Y-78255809D01*
X247626285Y-78112952D01*
X247673904Y-77922476D01*
X247721523Y-77827238D01*
X247816761Y-77732000D01*
X247959619Y-77684380D01*
X248054857Y-77684380D01*
X248197714Y-77732000D01*
X248245333Y-77779619D01*
X248864380Y-77684380D02*
X248959619Y-77684380D01*
X249054857Y-77732000D01*
X249102476Y-77779619D01*
X249150095Y-77874857D01*
X249197714Y-78065333D01*
X249197714Y-78303428D01*
X249150095Y-78493904D01*
X249102476Y-78589142D01*
X249054857Y-78636761D01*
X248959619Y-78684380D01*
X248864380Y-78684380D01*
X248769142Y-78636761D01*
X248721523Y-78589142D01*
X248673904Y-78493904D01*
X248626285Y-78303428D01*
X248626285Y-78065333D01*
X248673904Y-77874857D01*
X248721523Y-77779619D01*
X248769142Y-77732000D01*
X248864380Y-77684380D01*
X238339333Y-78589142D02*
X238291714Y-78636761D01*
X238148857Y-78684380D01*
X238053619Y-78684380D01*
X237910761Y-78636761D01*
X237815523Y-78541523D01*
X237767904Y-78446285D01*
X237720285Y-78255809D01*
X237720285Y-78112952D01*
X237767904Y-77922476D01*
X237815523Y-77827238D01*
X237910761Y-77732000D01*
X238053619Y-77684380D01*
X238148857Y-77684380D01*
X238291714Y-77732000D01*
X238339333Y-77779619D01*
X239291714Y-78684380D02*
X238720285Y-78684380D01*
X239006000Y-78684380D02*
X239006000Y-77684380D01*
X238910761Y-77827238D01*
X238815523Y-77922476D01*
X238720285Y-77970095D01*
X228687333Y-78589142D02*
X228639714Y-78636761D01*
X228496857Y-78684380D01*
X228401619Y-78684380D01*
X228258761Y-78636761D01*
X228163523Y-78541523D01*
X228115904Y-78446285D01*
X228068285Y-78255809D01*
X228068285Y-78112952D01*
X228115904Y-77922476D01*
X228163523Y-77827238D01*
X228258761Y-77732000D01*
X228401619Y-77684380D01*
X228496857Y-77684380D01*
X228639714Y-77732000D01*
X228687333Y-77779619D01*
X229068285Y-77779619D02*
X229115904Y-77732000D01*
X229211142Y-77684380D01*
X229449238Y-77684380D01*
X229544476Y-77732000D01*
X229592095Y-77779619D01*
X229639714Y-77874857D01*
X229639714Y-77970095D01*
X229592095Y-78112952D01*
X229020666Y-78684380D01*
X229639714Y-78684380D01*
X244705238Y-141152571D02*
X244848095Y-141200190D01*
X244895714Y-141247809D01*
X244943333Y-141343047D01*
X244943333Y-141485904D01*
X244895714Y-141581142D01*
X244848095Y-141628761D01*
X244752857Y-141676380D01*
X244371904Y-141676380D01*
X244371904Y-140676380D01*
X244705238Y-140676380D01*
X244800476Y-140724000D01*
X244848095Y-140771619D01*
X244895714Y-140866857D01*
X244895714Y-140962095D01*
X244848095Y-141057333D01*
X244800476Y-141104952D01*
X244705238Y-141152571D01*
X244371904Y-141152571D01*
X245895714Y-141676380D02*
X245324285Y-141676380D01*
X245610000Y-141676380D02*
X245610000Y-140676380D01*
X245514761Y-140819238D01*
X245419523Y-140914476D01*
X245324285Y-140962095D01*
X247245238Y-141152571D02*
X247388095Y-141200190D01*
X247435714Y-141247809D01*
X247483333Y-141343047D01*
X247483333Y-141485904D01*
X247435714Y-141581142D01*
X247388095Y-141628761D01*
X247292857Y-141676380D01*
X246911904Y-141676380D01*
X246911904Y-140676380D01*
X247245238Y-140676380D01*
X247340476Y-140724000D01*
X247388095Y-140771619D01*
X247435714Y-140866857D01*
X247435714Y-140962095D01*
X247388095Y-141057333D01*
X247340476Y-141104952D01*
X247245238Y-141152571D01*
X246911904Y-141152571D01*
X248102380Y-140676380D02*
X248197619Y-140676380D01*
X248292857Y-140724000D01*
X248340476Y-140771619D01*
X248388095Y-140866857D01*
X248435714Y-141057333D01*
X248435714Y-141295428D01*
X248388095Y-141485904D01*
X248340476Y-141581142D01*
X248292857Y-141628761D01*
X248197619Y-141676380D01*
X248102380Y-141676380D01*
X248007142Y-141628761D01*
X247959523Y-141581142D01*
X247911904Y-141485904D01*
X247864285Y-141295428D01*
X247864285Y-141057333D01*
X247911904Y-140866857D01*
X247959523Y-140771619D01*
X248007142Y-140724000D01*
X248102380Y-140676380D01*
X249475714Y-141390666D02*
X249951904Y-141390666D01*
X249380476Y-141676380D02*
X249713809Y-140676380D01*
X250047142Y-141676380D01*
X250904285Y-141676380D02*
X250332857Y-141676380D01*
X250618571Y-141676380D02*
X250618571Y-140676380D01*
X250523333Y-140819238D01*
X250428095Y-140914476D01*
X250332857Y-140962095D01*
X252269714Y-141390666D02*
X252745904Y-141390666D01*
X252174476Y-141676380D02*
X252507809Y-140676380D01*
X252841142Y-141676380D01*
X253364952Y-140676380D02*
X253460190Y-140676380D01*
X253555428Y-140724000D01*
X253603047Y-140771619D01*
X253650666Y-140866857D01*
X253698285Y-141057333D01*
X253698285Y-141295428D01*
X253650666Y-141485904D01*
X253603047Y-141581142D01*
X253555428Y-141628761D01*
X253460190Y-141676380D01*
X253364952Y-141676380D01*
X253269714Y-141628761D01*
X253222095Y-141581142D01*
X253174476Y-141485904D01*
X253126857Y-141295428D01*
X253126857Y-141057333D01*
X253174476Y-140866857D01*
X253222095Y-140771619D01*
X253269714Y-140724000D01*
X253364952Y-140676380D01*
D11*
X251586952Y-79827428D02*
X250825047Y-79827428D01*
X241680952Y-79827428D02*
X240919047Y-79827428D01*
X231774952Y-79827428D02*
X231013047Y-79827428D01*
X251586952Y-85923428D02*
X250825047Y-85923428D01*
X251206000Y-86304380D02*
X251206000Y-85542476D01*
X241680952Y-85923428D02*
X240919047Y-85923428D01*
X241300000Y-86304380D02*
X241300000Y-85542476D01*
X231774952Y-85669428D02*
X231013047Y-85669428D01*
X231394000Y-86050380D02*
X231394000Y-85288476D01*
D12*
X259765876Y-106432400D02*
X259689685Y-106394304D01*
X259575400Y-106394304D01*
X259461114Y-106432400D01*
X259384923Y-106508590D01*
X259346828Y-106584780D01*
X259308733Y-106737161D01*
X259308733Y-106851447D01*
X259346828Y-107003828D01*
X259384923Y-107080019D01*
X259461114Y-107156209D01*
X259575400Y-107194304D01*
X259651590Y-107194304D01*
X259765876Y-107156209D01*
X259803971Y-107118114D01*
X259803971Y-106851447D01*
X259651590Y-106851447D01*
X260146828Y-107194304D02*
X260146828Y-106394304D01*
X260603971Y-107194304D01*
X260603971Y-106394304D01*
X260984923Y-107194304D02*
X260984923Y-106394304D01*
X261175400Y-106394304D01*
X261289685Y-106432400D01*
X261365876Y-106508590D01*
X261403971Y-106584780D01*
X261442066Y-106737161D01*
X261442066Y-106851447D01*
X261403971Y-107003828D01*
X261365876Y-107080019D01*
X261289685Y-107156209D01*
X261175400Y-107194304D01*
X260984923Y-107194304D01*
X244652876Y-106432400D02*
X244576685Y-106394304D01*
X244462400Y-106394304D01*
X244348114Y-106432400D01*
X244271923Y-106508590D01*
X244233828Y-106584780D01*
X244195733Y-106737161D01*
X244195733Y-106851447D01*
X244233828Y-107003828D01*
X244271923Y-107080019D01*
X244348114Y-107156209D01*
X244462400Y-107194304D01*
X244538590Y-107194304D01*
X244652876Y-107156209D01*
X244690971Y-107118114D01*
X244690971Y-106851447D01*
X244538590Y-106851447D01*
X245033828Y-107194304D02*
X245033828Y-106394304D01*
X245490971Y-107194304D01*
X245490971Y-106394304D01*
X245871923Y-107194304D02*
X245871923Y-106394304D01*
X246062400Y-106394304D01*
X246176685Y-106432400D01*
X246252876Y-106508590D01*
X246290971Y-106584780D01*
X246329066Y-106737161D01*
X246329066Y-106851447D01*
X246290971Y-107003828D01*
X246252876Y-107080019D01*
X246176685Y-107156209D01*
X246062400Y-107194304D01*
X245871923Y-107194304D01*
X229412876Y-106483200D02*
X229336685Y-106445104D01*
X229222400Y-106445104D01*
X229108114Y-106483200D01*
X229031923Y-106559390D01*
X228993828Y-106635580D01*
X228955733Y-106787961D01*
X228955733Y-106902247D01*
X228993828Y-107054628D01*
X229031923Y-107130819D01*
X229108114Y-107207009D01*
X229222400Y-107245104D01*
X229298590Y-107245104D01*
X229412876Y-107207009D01*
X229450971Y-107168914D01*
X229450971Y-106902247D01*
X229298590Y-106902247D01*
X229793828Y-107245104D02*
X229793828Y-106445104D01*
X230250971Y-107245104D01*
X230250971Y-106445104D01*
X230631923Y-107245104D02*
X230631923Y-106445104D01*
X230822400Y-106445104D01*
X230936685Y-106483200D01*
X231012876Y-106559390D01*
X231050971Y-106635580D01*
X231089066Y-106787961D01*
X231089066Y-106902247D01*
X231050971Y-107054628D01*
X231012876Y-107130819D01*
X230936685Y-107207009D01*
X230822400Y-107245104D01*
X230631923Y-107245104D01*
X214020476Y-106610200D02*
X213944285Y-106572104D01*
X213830000Y-106572104D01*
X213715714Y-106610200D01*
X213639523Y-106686390D01*
X213601428Y-106762580D01*
X213563333Y-106914961D01*
X213563333Y-107029247D01*
X213601428Y-107181628D01*
X213639523Y-107257819D01*
X213715714Y-107334009D01*
X213830000Y-107372104D01*
X213906190Y-107372104D01*
X214020476Y-107334009D01*
X214058571Y-107295914D01*
X214058571Y-107029247D01*
X213906190Y-107029247D01*
X214401428Y-107372104D02*
X214401428Y-106572104D01*
X214858571Y-107372104D01*
X214858571Y-106572104D01*
X215239523Y-107372104D02*
X215239523Y-106572104D01*
X215430000Y-106572104D01*
X215544285Y-106610200D01*
X215620476Y-106686390D01*
X215658571Y-106762580D01*
X215696666Y-106914961D01*
X215696666Y-107029247D01*
X215658571Y-107181628D01*
X215620476Y-107257819D01*
X215544285Y-107334009D01*
X215430000Y-107372104D01*
X215239523Y-107372104D01*
X256590876Y-121507304D02*
X257086114Y-121507304D01*
X256819447Y-121812066D01*
X256933733Y-121812066D01*
X257009923Y-121850161D01*
X257048019Y-121888257D01*
X257086114Y-121964447D01*
X257086114Y-122154923D01*
X257048019Y-122231114D01*
X257009923Y-122269209D01*
X256933733Y-122307304D01*
X256705161Y-122307304D01*
X256628971Y-122269209D01*
X256590876Y-122231114D01*
X257314685Y-121507304D02*
X257581352Y-122307304D01*
X257848019Y-121507304D01*
X241376276Y-121608904D02*
X241871514Y-121608904D01*
X241604847Y-121913666D01*
X241719133Y-121913666D01*
X241795323Y-121951761D01*
X241833419Y-121989857D01*
X241871514Y-122066047D01*
X241871514Y-122256523D01*
X241833419Y-122332714D01*
X241795323Y-122370809D01*
X241719133Y-122408904D01*
X241490561Y-122408904D01*
X241414371Y-122370809D01*
X241376276Y-122332714D01*
X242100085Y-121608904D02*
X242366752Y-122408904D01*
X242633419Y-121608904D01*
X226237876Y-121634304D02*
X226733114Y-121634304D01*
X226466447Y-121939066D01*
X226580733Y-121939066D01*
X226656923Y-121977161D01*
X226695019Y-122015257D01*
X226733114Y-122091447D01*
X226733114Y-122281923D01*
X226695019Y-122358114D01*
X226656923Y-122396209D01*
X226580733Y-122434304D01*
X226352161Y-122434304D01*
X226275971Y-122396209D01*
X226237876Y-122358114D01*
X226961685Y-121634304D02*
X227228352Y-122434304D01*
X227495019Y-121634304D01*
X210820076Y-121532704D02*
X211315314Y-121532704D01*
X211048647Y-121837466D01*
X211162933Y-121837466D01*
X211239123Y-121875561D01*
X211277219Y-121913657D01*
X211315314Y-121989847D01*
X211315314Y-122180323D01*
X211277219Y-122256514D01*
X211239123Y-122294609D01*
X211162933Y-122332704D01*
X210934361Y-122332704D01*
X210858171Y-122294609D01*
X210820076Y-122256514D01*
X211543885Y-121532704D02*
X211810552Y-122332704D01*
X212077219Y-121532704D01*
D10*
%TO.C,U1*%
X258188095Y-124602380D02*
X258188095Y-125411904D01*
X258235714Y-125507142D01*
X258283333Y-125554761D01*
X258378571Y-125602380D01*
X258569047Y-125602380D01*
X258664285Y-125554761D01*
X258711904Y-125507142D01*
X258759523Y-125411904D01*
X258759523Y-124602380D01*
X259759523Y-125602380D02*
X259188095Y-125602380D01*
X259473809Y-125602380D02*
X259473809Y-124602380D01*
X259378571Y-124745238D01*
X259283333Y-124840476D01*
X259188095Y-124888095D01*
X255250952Y-103264761D02*
X255393809Y-103312380D01*
X255631904Y-103312380D01*
X255727142Y-103264761D01*
X255774761Y-103217142D01*
X255822380Y-103121904D01*
X255822380Y-103026666D01*
X255774761Y-102931428D01*
X255727142Y-102883809D01*
X255631904Y-102836190D01*
X255441428Y-102788571D01*
X255346190Y-102740952D01*
X255298571Y-102693333D01*
X255250952Y-102598095D01*
X255250952Y-102502857D01*
X255298571Y-102407619D01*
X255346190Y-102360000D01*
X255441428Y-102312380D01*
X255679523Y-102312380D01*
X255822380Y-102360000D01*
X256250952Y-103312380D02*
X256250952Y-102312380D01*
X256822380Y-103312380D01*
X256822380Y-102312380D01*
X257203333Y-102312380D02*
X257870000Y-102312380D01*
X257441428Y-103312380D01*
X258679523Y-102645714D02*
X258679523Y-103312380D01*
X258441428Y-102264761D02*
X258203333Y-102979047D01*
X258822380Y-102979047D01*
X259679523Y-103312380D02*
X259203333Y-103312380D01*
X259203333Y-102312380D01*
X259965238Y-103264761D02*
X260108095Y-103312380D01*
X260346190Y-103312380D01*
X260441428Y-103264761D01*
X260489047Y-103217142D01*
X260536666Y-103121904D01*
X260536666Y-103026666D01*
X260489047Y-102931428D01*
X260441428Y-102883809D01*
X260346190Y-102836190D01*
X260155714Y-102788571D01*
X260060476Y-102740952D01*
X260012857Y-102693333D01*
X259965238Y-102598095D01*
X259965238Y-102502857D01*
X260012857Y-102407619D01*
X260060476Y-102360000D01*
X260155714Y-102312380D01*
X260393809Y-102312380D01*
X260536666Y-102360000D01*
X261155714Y-102312380D02*
X261250952Y-102312380D01*
X261346190Y-102360000D01*
X261393809Y-102407619D01*
X261441428Y-102502857D01*
X261489047Y-102693333D01*
X261489047Y-102931428D01*
X261441428Y-103121904D01*
X261393809Y-103217142D01*
X261346190Y-103264761D01*
X261250952Y-103312380D01*
X261155714Y-103312380D01*
X261060476Y-103264761D01*
X261012857Y-103217142D01*
X260965238Y-103121904D01*
X260917619Y-102931428D01*
X260917619Y-102693333D01*
X260965238Y-102502857D01*
X261012857Y-102407619D01*
X261060476Y-102360000D01*
X261155714Y-102312380D01*
X262060476Y-102740952D02*
X261965238Y-102693333D01*
X261917619Y-102645714D01*
X261870000Y-102550476D01*
X261870000Y-102502857D01*
X261917619Y-102407619D01*
X261965238Y-102360000D01*
X262060476Y-102312380D01*
X262250952Y-102312380D01*
X262346190Y-102360000D01*
X262393809Y-102407619D01*
X262441428Y-102502857D01*
X262441428Y-102550476D01*
X262393809Y-102645714D01*
X262346190Y-102693333D01*
X262250952Y-102740952D01*
X262060476Y-102740952D01*
X261965238Y-102788571D01*
X261917619Y-102836190D01*
X261870000Y-102931428D01*
X261870000Y-103121904D01*
X261917619Y-103217142D01*
X261965238Y-103264761D01*
X262060476Y-103312380D01*
X262250952Y-103312380D01*
X262346190Y-103264761D01*
X262393809Y-103217142D01*
X262441428Y-103121904D01*
X262441428Y-102931428D01*
X262393809Y-102836190D01*
X262346190Y-102788571D01*
X262250952Y-102740952D01*
X262870000Y-103312380D02*
X262870000Y-102312380D01*
X263441428Y-103312380D01*
X263441428Y-102312380D01*
%TO.C,U2*%
X227708095Y-124602380D02*
X227708095Y-125411904D01*
X227755714Y-125507142D01*
X227803333Y-125554761D01*
X227898571Y-125602380D01*
X228089047Y-125602380D01*
X228184285Y-125554761D01*
X228231904Y-125507142D01*
X228279523Y-125411904D01*
X228279523Y-124602380D01*
X228708095Y-124697619D02*
X228755714Y-124650000D01*
X228850952Y-124602380D01*
X229089047Y-124602380D01*
X229184285Y-124650000D01*
X229231904Y-124697619D01*
X229279523Y-124792857D01*
X229279523Y-124888095D01*
X229231904Y-125030952D01*
X228660476Y-125602380D01*
X229279523Y-125602380D01*
X224628095Y-103294761D02*
X224770952Y-103342380D01*
X225009047Y-103342380D01*
X225104285Y-103294761D01*
X225151904Y-103247142D01*
X225199523Y-103151904D01*
X225199523Y-103056666D01*
X225151904Y-102961428D01*
X225104285Y-102913809D01*
X225009047Y-102866190D01*
X224818571Y-102818571D01*
X224723333Y-102770952D01*
X224675714Y-102723333D01*
X224628095Y-102628095D01*
X224628095Y-102532857D01*
X224675714Y-102437619D01*
X224723333Y-102390000D01*
X224818571Y-102342380D01*
X225056666Y-102342380D01*
X225199523Y-102390000D01*
X225628095Y-103342380D02*
X225628095Y-102342380D01*
X226199523Y-103342380D01*
X226199523Y-102342380D01*
X226580476Y-102342380D02*
X227247142Y-102342380D01*
X226818571Y-103342380D01*
X228056666Y-102675714D02*
X228056666Y-103342380D01*
X227818571Y-102294761D02*
X227580476Y-103009047D01*
X228199523Y-103009047D01*
X228580476Y-103342380D02*
X228580476Y-102342380D01*
X228580476Y-102818571D02*
X229151904Y-102818571D01*
X229151904Y-103342380D02*
X229151904Y-102342380D01*
X230199523Y-103247142D02*
X230151904Y-103294761D01*
X230009047Y-103342380D01*
X229913809Y-103342380D01*
X229770952Y-103294761D01*
X229675714Y-103199523D01*
X229628095Y-103104285D01*
X229580476Y-102913809D01*
X229580476Y-102770952D01*
X229628095Y-102580476D01*
X229675714Y-102485238D01*
X229770952Y-102390000D01*
X229913809Y-102342380D01*
X230009047Y-102342380D01*
X230151904Y-102390000D01*
X230199523Y-102437619D01*
X230532857Y-102342380D02*
X231151904Y-102342380D01*
X230818571Y-102723333D01*
X230961428Y-102723333D01*
X231056666Y-102770952D01*
X231104285Y-102818571D01*
X231151904Y-102913809D01*
X231151904Y-103151904D01*
X231104285Y-103247142D01*
X231056666Y-103294761D01*
X230961428Y-103342380D01*
X230675714Y-103342380D01*
X230580476Y-103294761D01*
X230532857Y-103247142D01*
X231532857Y-102437619D02*
X231580476Y-102390000D01*
X231675714Y-102342380D01*
X231913809Y-102342380D01*
X232009047Y-102390000D01*
X232056666Y-102437619D01*
X232104285Y-102532857D01*
X232104285Y-102628095D01*
X232056666Y-102770952D01*
X231485238Y-103342380D01*
X232104285Y-103342380D01*
X232532857Y-103342380D02*
X232532857Y-102342380D01*
X233104285Y-103342380D01*
X233104285Y-102342380D01*
%TO.C,U4*%
X212468095Y-124572380D02*
X212468095Y-125381904D01*
X212515714Y-125477142D01*
X212563333Y-125524761D01*
X212658571Y-125572380D01*
X212849047Y-125572380D01*
X212944285Y-125524761D01*
X212991904Y-125477142D01*
X213039523Y-125381904D01*
X213039523Y-124572380D01*
X213944285Y-124905714D02*
X213944285Y-125572380D01*
X213706190Y-124524761D02*
X213468095Y-125239047D01*
X214087142Y-125239047D01*
X209388095Y-103234761D02*
X209530952Y-103282380D01*
X209769047Y-103282380D01*
X209864285Y-103234761D01*
X209911904Y-103187142D01*
X209959523Y-103091904D01*
X209959523Y-102996666D01*
X209911904Y-102901428D01*
X209864285Y-102853809D01*
X209769047Y-102806190D01*
X209578571Y-102758571D01*
X209483333Y-102710952D01*
X209435714Y-102663333D01*
X209388095Y-102568095D01*
X209388095Y-102472857D01*
X209435714Y-102377619D01*
X209483333Y-102330000D01*
X209578571Y-102282380D01*
X209816666Y-102282380D01*
X209959523Y-102330000D01*
X210388095Y-103282380D02*
X210388095Y-102282380D01*
X210959523Y-103282380D01*
X210959523Y-102282380D01*
X211340476Y-102282380D02*
X212007142Y-102282380D01*
X211578571Y-103282380D01*
X212816666Y-102615714D02*
X212816666Y-103282380D01*
X212578571Y-102234761D02*
X212340476Y-102949047D01*
X212959523Y-102949047D01*
X213340476Y-103282380D02*
X213340476Y-102282380D01*
X213340476Y-102758571D02*
X213911904Y-102758571D01*
X213911904Y-103282380D02*
X213911904Y-102282380D01*
X214959523Y-103187142D02*
X214911904Y-103234761D01*
X214769047Y-103282380D01*
X214673809Y-103282380D01*
X214530952Y-103234761D01*
X214435714Y-103139523D01*
X214388095Y-103044285D01*
X214340476Y-102853809D01*
X214340476Y-102710952D01*
X214388095Y-102520476D01*
X214435714Y-102425238D01*
X214530952Y-102330000D01*
X214673809Y-102282380D01*
X214769047Y-102282380D01*
X214911904Y-102330000D01*
X214959523Y-102377619D01*
X215578571Y-102282380D02*
X215673809Y-102282380D01*
X215769047Y-102330000D01*
X215816666Y-102377619D01*
X215864285Y-102472857D01*
X215911904Y-102663333D01*
X215911904Y-102901428D01*
X215864285Y-103091904D01*
X215816666Y-103187142D01*
X215769047Y-103234761D01*
X215673809Y-103282380D01*
X215578571Y-103282380D01*
X215483333Y-103234761D01*
X215435714Y-103187142D01*
X215388095Y-103091904D01*
X215340476Y-102901428D01*
X215340476Y-102663333D01*
X215388095Y-102472857D01*
X215435714Y-102377619D01*
X215483333Y-102330000D01*
X215578571Y-102282380D01*
X216530952Y-102282380D02*
X216626190Y-102282380D01*
X216721428Y-102330000D01*
X216769047Y-102377619D01*
X216816666Y-102472857D01*
X216864285Y-102663333D01*
X216864285Y-102901428D01*
X216816666Y-103091904D01*
X216769047Y-103187142D01*
X216721428Y-103234761D01*
X216626190Y-103282380D01*
X216530952Y-103282380D01*
X216435714Y-103234761D01*
X216388095Y-103187142D01*
X216340476Y-103091904D01*
X216292857Y-102901428D01*
X216292857Y-102663333D01*
X216340476Y-102472857D01*
X216388095Y-102377619D01*
X216435714Y-102330000D01*
X216530952Y-102282380D01*
X217292857Y-103282380D02*
X217292857Y-102282380D01*
X217864285Y-103282380D01*
X217864285Y-102282380D01*
%TO.C,U3*%
X242948095Y-124602380D02*
X242948095Y-125411904D01*
X242995714Y-125507142D01*
X243043333Y-125554761D01*
X243138571Y-125602380D01*
X243329047Y-125602380D01*
X243424285Y-125554761D01*
X243471904Y-125507142D01*
X243519523Y-125411904D01*
X243519523Y-124602380D01*
X243900476Y-124602380D02*
X244519523Y-124602380D01*
X244186190Y-124983333D01*
X244329047Y-124983333D01*
X244424285Y-125030952D01*
X244471904Y-125078571D01*
X244519523Y-125173809D01*
X244519523Y-125411904D01*
X244471904Y-125507142D01*
X244424285Y-125554761D01*
X244329047Y-125602380D01*
X244043333Y-125602380D01*
X243948095Y-125554761D01*
X243900476Y-125507142D01*
X240010952Y-103264761D02*
X240153809Y-103312380D01*
X240391904Y-103312380D01*
X240487142Y-103264761D01*
X240534761Y-103217142D01*
X240582380Y-103121904D01*
X240582380Y-103026666D01*
X240534761Y-102931428D01*
X240487142Y-102883809D01*
X240391904Y-102836190D01*
X240201428Y-102788571D01*
X240106190Y-102740952D01*
X240058571Y-102693333D01*
X240010952Y-102598095D01*
X240010952Y-102502857D01*
X240058571Y-102407619D01*
X240106190Y-102360000D01*
X240201428Y-102312380D01*
X240439523Y-102312380D01*
X240582380Y-102360000D01*
X241010952Y-103312380D02*
X241010952Y-102312380D01*
X241582380Y-103312380D01*
X241582380Y-102312380D01*
X241963333Y-102312380D02*
X242630000Y-102312380D01*
X242201428Y-103312380D01*
X243439523Y-102645714D02*
X243439523Y-103312380D01*
X243201428Y-102264761D02*
X242963333Y-102979047D01*
X243582380Y-102979047D01*
X244439523Y-103312380D02*
X243963333Y-103312380D01*
X243963333Y-102312380D01*
X244725238Y-103264761D02*
X244868095Y-103312380D01*
X245106190Y-103312380D01*
X245201428Y-103264761D01*
X245249047Y-103217142D01*
X245296666Y-103121904D01*
X245296666Y-103026666D01*
X245249047Y-102931428D01*
X245201428Y-102883809D01*
X245106190Y-102836190D01*
X244915714Y-102788571D01*
X244820476Y-102740952D01*
X244772857Y-102693333D01*
X244725238Y-102598095D01*
X244725238Y-102502857D01*
X244772857Y-102407619D01*
X244820476Y-102360000D01*
X244915714Y-102312380D01*
X245153809Y-102312380D01*
X245296666Y-102360000D01*
X245915714Y-102312380D02*
X246010952Y-102312380D01*
X246106190Y-102360000D01*
X246153809Y-102407619D01*
X246201428Y-102502857D01*
X246249047Y-102693333D01*
X246249047Y-102931428D01*
X246201428Y-103121904D01*
X246153809Y-103217142D01*
X246106190Y-103264761D01*
X246010952Y-103312380D01*
X245915714Y-103312380D01*
X245820476Y-103264761D01*
X245772857Y-103217142D01*
X245725238Y-103121904D01*
X245677619Y-102931428D01*
X245677619Y-102693333D01*
X245725238Y-102502857D01*
X245772857Y-102407619D01*
X245820476Y-102360000D01*
X245915714Y-102312380D01*
X246820476Y-102740952D02*
X246725238Y-102693333D01*
X246677619Y-102645714D01*
X246630000Y-102550476D01*
X246630000Y-102502857D01*
X246677619Y-102407619D01*
X246725238Y-102360000D01*
X246820476Y-102312380D01*
X247010952Y-102312380D01*
X247106190Y-102360000D01*
X247153809Y-102407619D01*
X247201428Y-102502857D01*
X247201428Y-102550476D01*
X247153809Y-102645714D01*
X247106190Y-102693333D01*
X247010952Y-102740952D01*
X246820476Y-102740952D01*
X246725238Y-102788571D01*
X246677619Y-102836190D01*
X246630000Y-102931428D01*
X246630000Y-103121904D01*
X246677619Y-103217142D01*
X246725238Y-103264761D01*
X246820476Y-103312380D01*
X247010952Y-103312380D01*
X247106190Y-103264761D01*
X247153809Y-103217142D01*
X247201428Y-103121904D01*
X247201428Y-102931428D01*
X247153809Y-102836190D01*
X247106190Y-102788571D01*
X247010952Y-102740952D01*
X247630000Y-103312380D02*
X247630000Y-102312380D01*
X248201428Y-103312380D01*
X248201428Y-102312380D01*
%TO.C,SW1*%
X242104761Y-148610833D02*
X242152380Y-148467976D01*
X242152380Y-148229880D01*
X242104761Y-148134642D01*
X242057142Y-148087023D01*
X241961904Y-148039404D01*
X241866666Y-148039404D01*
X241771428Y-148087023D01*
X241723809Y-148134642D01*
X241676190Y-148229880D01*
X241628571Y-148420357D01*
X241580952Y-148515595D01*
X241533333Y-148563214D01*
X241438095Y-148610833D01*
X241342857Y-148610833D01*
X241247619Y-148563214D01*
X241200000Y-148515595D01*
X241152380Y-148420357D01*
X241152380Y-148182261D01*
X241200000Y-148039404D01*
X241152380Y-147706071D02*
X242152380Y-147467976D01*
X241438095Y-147277500D01*
X242152380Y-147087023D01*
X241152380Y-146848928D01*
X242152380Y-145944166D02*
X242152380Y-146515595D01*
X242152380Y-146229880D02*
X241152380Y-146229880D01*
X241295238Y-146325119D01*
X241390476Y-146420357D01*
X241438095Y-146515595D01*
%TO.C,R7*%
X227437180Y-92729266D02*
X226960990Y-93062600D01*
X227437180Y-93300695D02*
X226437180Y-93300695D01*
X226437180Y-92919742D01*
X226484800Y-92824504D01*
X226532419Y-92776885D01*
X226627657Y-92729266D01*
X226770514Y-92729266D01*
X226865752Y-92776885D01*
X226913371Y-92824504D01*
X226960990Y-92919742D01*
X226960990Y-93300695D01*
X226437180Y-92395933D02*
X226437180Y-91729266D01*
X227437180Y-92157838D01*
X230287580Y-93690914D02*
X230287580Y-93071866D01*
X230668533Y-93405200D01*
X230668533Y-93262342D01*
X230716152Y-93167104D01*
X230763771Y-93119485D01*
X230859009Y-93071866D01*
X231097104Y-93071866D01*
X231192342Y-93119485D01*
X231239961Y-93167104D01*
X231287580Y-93262342D01*
X231287580Y-93548057D01*
X231239961Y-93643295D01*
X231192342Y-93690914D01*
X230287580Y-92738533D02*
X230287580Y-92119485D01*
X230668533Y-92452819D01*
X230668533Y-92309961D01*
X230716152Y-92214723D01*
X230763771Y-92167104D01*
X230859009Y-92119485D01*
X231097104Y-92119485D01*
X231192342Y-92167104D01*
X231239961Y-92214723D01*
X231287580Y-92309961D01*
X231287580Y-92595676D01*
X231239961Y-92690914D01*
X231192342Y-92738533D01*
X230287580Y-91500438D02*
X230287580Y-91405200D01*
X230335200Y-91309961D01*
X230382819Y-91262342D01*
X230478057Y-91214723D01*
X230668533Y-91167104D01*
X230906628Y-91167104D01*
X231097104Y-91214723D01*
X231192342Y-91262342D01*
X231239961Y-91309961D01*
X231287580Y-91405200D01*
X231287580Y-91500438D01*
X231239961Y-91595676D01*
X231192342Y-91643295D01*
X231097104Y-91690914D01*
X230906628Y-91738533D01*
X230668533Y-91738533D01*
X230478057Y-91690914D01*
X230382819Y-91643295D01*
X230335200Y-91595676D01*
X230287580Y-91500438D01*
%TO.C,R6*%
X222083333Y-138821180D02*
X221750000Y-138344990D01*
X221511904Y-138821180D02*
X221511904Y-137821180D01*
X221892857Y-137821180D01*
X221988095Y-137868800D01*
X222035714Y-137916419D01*
X222083333Y-138011657D01*
X222083333Y-138154514D01*
X222035714Y-138249752D01*
X221988095Y-138297371D01*
X221892857Y-138344990D01*
X221511904Y-138344990D01*
X222940476Y-137821180D02*
X222750000Y-137821180D01*
X222654761Y-137868800D01*
X222607142Y-137916419D01*
X222511904Y-138059276D01*
X222464285Y-138249752D01*
X222464285Y-138630704D01*
X222511904Y-138725942D01*
X222559523Y-138773561D01*
X222654761Y-138821180D01*
X222845238Y-138821180D01*
X222940476Y-138773561D01*
X222988095Y-138725942D01*
X223035714Y-138630704D01*
X223035714Y-138392609D01*
X222988095Y-138297371D01*
X222940476Y-138249752D01*
X222845238Y-138202133D01*
X222654761Y-138202133D01*
X222559523Y-138249752D01*
X222511904Y-138297371D01*
X222464285Y-138392609D01*
X221654761Y-134981180D02*
X221083333Y-134981180D01*
X221369047Y-134981180D02*
X221369047Y-133981180D01*
X221273809Y-134124038D01*
X221178571Y-134219276D01*
X221083333Y-134266895D01*
X222273809Y-133981180D02*
X222369047Y-133981180D01*
X222464285Y-134028800D01*
X222511904Y-134076419D01*
X222559523Y-134171657D01*
X222607142Y-134362133D01*
X222607142Y-134600228D01*
X222559523Y-134790704D01*
X222511904Y-134885942D01*
X222464285Y-134933561D01*
X222369047Y-134981180D01*
X222273809Y-134981180D01*
X222178571Y-134933561D01*
X222130952Y-134885942D01*
X222083333Y-134790704D01*
X222035714Y-134600228D01*
X222035714Y-134362133D01*
X222083333Y-134171657D01*
X222130952Y-134076419D01*
X222178571Y-134028800D01*
X222273809Y-133981180D01*
X223035714Y-134981180D02*
X223035714Y-133981180D01*
X223130952Y-134600228D02*
X223416666Y-134981180D01*
X223416666Y-134314514D02*
X223035714Y-134695466D01*
%TO.C,R5*%
X237292380Y-92729266D02*
X236816190Y-93062600D01*
X237292380Y-93300695D02*
X236292380Y-93300695D01*
X236292380Y-92919742D01*
X236340000Y-92824504D01*
X236387619Y-92776885D01*
X236482857Y-92729266D01*
X236625714Y-92729266D01*
X236720952Y-92776885D01*
X236768571Y-92824504D01*
X236816190Y-92919742D01*
X236816190Y-93300695D01*
X236292380Y-91824504D02*
X236292380Y-92300695D01*
X236768571Y-92348314D01*
X236720952Y-92300695D01*
X236673333Y-92205457D01*
X236673333Y-91967361D01*
X236720952Y-91872123D01*
X236768571Y-91824504D01*
X236863809Y-91776885D01*
X237101904Y-91776885D01*
X237197142Y-91824504D01*
X237244761Y-91872123D01*
X237292380Y-91967361D01*
X237292380Y-92205457D01*
X237244761Y-92300695D01*
X237197142Y-92348314D01*
X240132380Y-93848314D02*
X240132380Y-93229266D01*
X240513333Y-93562600D01*
X240513333Y-93419742D01*
X240560952Y-93324504D01*
X240608571Y-93276885D01*
X240703809Y-93229266D01*
X240941904Y-93229266D01*
X241037142Y-93276885D01*
X241084761Y-93324504D01*
X241132380Y-93419742D01*
X241132380Y-93705457D01*
X241084761Y-93800695D01*
X241037142Y-93848314D01*
X240132380Y-92895933D02*
X240132380Y-92276885D01*
X240513333Y-92610219D01*
X240513333Y-92467361D01*
X240560952Y-92372123D01*
X240608571Y-92324504D01*
X240703809Y-92276885D01*
X240941904Y-92276885D01*
X241037142Y-92324504D01*
X241084761Y-92372123D01*
X241132380Y-92467361D01*
X241132380Y-92753076D01*
X241084761Y-92848314D01*
X241037142Y-92895933D01*
X240132380Y-91657838D02*
X240132380Y-91562600D01*
X240180000Y-91467361D01*
X240227619Y-91419742D01*
X240322857Y-91372123D01*
X240513333Y-91324504D01*
X240751428Y-91324504D01*
X240941904Y-91372123D01*
X241037142Y-91419742D01*
X241084761Y-91467361D01*
X241132380Y-91562600D01*
X241132380Y-91657838D01*
X241084761Y-91753076D01*
X241037142Y-91800695D01*
X240941904Y-91848314D01*
X240751428Y-91895933D01*
X240513333Y-91895933D01*
X240322857Y-91848314D01*
X240227619Y-91800695D01*
X240180000Y-91753076D01*
X240132380Y-91657838D01*
%TO.C,R4*%
X222083333Y-144612380D02*
X221750000Y-144136190D01*
X221511904Y-144612380D02*
X221511904Y-143612380D01*
X221892857Y-143612380D01*
X221988095Y-143660000D01*
X222035714Y-143707619D01*
X222083333Y-143802857D01*
X222083333Y-143945714D01*
X222035714Y-144040952D01*
X221988095Y-144088571D01*
X221892857Y-144136190D01*
X221511904Y-144136190D01*
X222940476Y-143945714D02*
X222940476Y-144612380D01*
X222702380Y-143564761D02*
X222464285Y-144279047D01*
X223083333Y-144279047D01*
X221654761Y-140772380D02*
X221083333Y-140772380D01*
X221369047Y-140772380D02*
X221369047Y-139772380D01*
X221273809Y-139915238D01*
X221178571Y-140010476D01*
X221083333Y-140058095D01*
X222273809Y-139772380D02*
X222369047Y-139772380D01*
X222464285Y-139820000D01*
X222511904Y-139867619D01*
X222559523Y-139962857D01*
X222607142Y-140153333D01*
X222607142Y-140391428D01*
X222559523Y-140581904D01*
X222511904Y-140677142D01*
X222464285Y-140724761D01*
X222369047Y-140772380D01*
X222273809Y-140772380D01*
X222178571Y-140724761D01*
X222130952Y-140677142D01*
X222083333Y-140581904D01*
X222035714Y-140391428D01*
X222035714Y-140153333D01*
X222083333Y-139962857D01*
X222130952Y-139867619D01*
X222178571Y-139820000D01*
X222273809Y-139772380D01*
X223035714Y-140772380D02*
X223035714Y-139772380D01*
X223130952Y-140391428D02*
X223416666Y-140772380D01*
X223416666Y-140105714D02*
X223035714Y-140486666D01*
%TO.C,R3*%
X222083333Y-150301980D02*
X221750000Y-149825790D01*
X221511904Y-150301980D02*
X221511904Y-149301980D01*
X221892857Y-149301980D01*
X221988095Y-149349600D01*
X222035714Y-149397219D01*
X222083333Y-149492457D01*
X222083333Y-149635314D01*
X222035714Y-149730552D01*
X221988095Y-149778171D01*
X221892857Y-149825790D01*
X221511904Y-149825790D01*
X222416666Y-149301980D02*
X223035714Y-149301980D01*
X222702380Y-149682933D01*
X222845238Y-149682933D01*
X222940476Y-149730552D01*
X222988095Y-149778171D01*
X223035714Y-149873409D01*
X223035714Y-150111504D01*
X222988095Y-150206742D01*
X222940476Y-150254361D01*
X222845238Y-150301980D01*
X222559523Y-150301980D01*
X222464285Y-150254361D01*
X222416666Y-150206742D01*
X221654761Y-146461980D02*
X221083333Y-146461980D01*
X221369047Y-146461980D02*
X221369047Y-145461980D01*
X221273809Y-145604838D01*
X221178571Y-145700076D01*
X221083333Y-145747695D01*
X222273809Y-145461980D02*
X222369047Y-145461980D01*
X222464285Y-145509600D01*
X222511904Y-145557219D01*
X222559523Y-145652457D01*
X222607142Y-145842933D01*
X222607142Y-146081028D01*
X222559523Y-146271504D01*
X222511904Y-146366742D01*
X222464285Y-146414361D01*
X222369047Y-146461980D01*
X222273809Y-146461980D01*
X222178571Y-146414361D01*
X222130952Y-146366742D01*
X222083333Y-146271504D01*
X222035714Y-146081028D01*
X222035714Y-145842933D01*
X222083333Y-145652457D01*
X222130952Y-145557219D01*
X222178571Y-145509600D01*
X222273809Y-145461980D01*
X223035714Y-146461980D02*
X223035714Y-145461980D01*
X223130952Y-146081028D02*
X223416666Y-146461980D01*
X223416666Y-145795314D02*
X223035714Y-146176266D01*
%TO.C,R2*%
X222083333Y-156245580D02*
X221750000Y-155769390D01*
X221511904Y-156245580D02*
X221511904Y-155245580D01*
X221892857Y-155245580D01*
X221988095Y-155293200D01*
X222035714Y-155340819D01*
X222083333Y-155436057D01*
X222083333Y-155578914D01*
X222035714Y-155674152D01*
X221988095Y-155721771D01*
X221892857Y-155769390D01*
X221511904Y-155769390D01*
X222464285Y-155340819D02*
X222511904Y-155293200D01*
X222607142Y-155245580D01*
X222845238Y-155245580D01*
X222940476Y-155293200D01*
X222988095Y-155340819D01*
X223035714Y-155436057D01*
X223035714Y-155531295D01*
X222988095Y-155674152D01*
X222416666Y-156245580D01*
X223035714Y-156245580D01*
X221654761Y-152405580D02*
X221083333Y-152405580D01*
X221369047Y-152405580D02*
X221369047Y-151405580D01*
X221273809Y-151548438D01*
X221178571Y-151643676D01*
X221083333Y-151691295D01*
X222273809Y-151405580D02*
X222369047Y-151405580D01*
X222464285Y-151453200D01*
X222511904Y-151500819D01*
X222559523Y-151596057D01*
X222607142Y-151786533D01*
X222607142Y-152024628D01*
X222559523Y-152215104D01*
X222511904Y-152310342D01*
X222464285Y-152357961D01*
X222369047Y-152405580D01*
X222273809Y-152405580D01*
X222178571Y-152357961D01*
X222130952Y-152310342D01*
X222083333Y-152215104D01*
X222035714Y-152024628D01*
X222035714Y-151786533D01*
X222083333Y-151596057D01*
X222130952Y-151500819D01*
X222178571Y-151453200D01*
X222273809Y-151405580D01*
X223035714Y-152405580D02*
X223035714Y-151405580D01*
X223130952Y-152024628D02*
X223416666Y-152405580D01*
X223416666Y-151738914D02*
X223035714Y-152119866D01*
%TO.C,R1*%
X247096780Y-92729266D02*
X246620590Y-93062600D01*
X247096780Y-93300695D02*
X246096780Y-93300695D01*
X246096780Y-92919742D01*
X246144400Y-92824504D01*
X246192019Y-92776885D01*
X246287257Y-92729266D01*
X246430114Y-92729266D01*
X246525352Y-92776885D01*
X246572971Y-92824504D01*
X246620590Y-92919742D01*
X246620590Y-93300695D01*
X247096780Y-91776885D02*
X247096780Y-92348314D01*
X247096780Y-92062600D02*
X246096780Y-92062600D01*
X246239638Y-92157838D01*
X246334876Y-92253076D01*
X246382495Y-92348314D01*
X249936780Y-93848314D02*
X249936780Y-93229266D01*
X250317733Y-93562600D01*
X250317733Y-93419742D01*
X250365352Y-93324504D01*
X250412971Y-93276885D01*
X250508209Y-93229266D01*
X250746304Y-93229266D01*
X250841542Y-93276885D01*
X250889161Y-93324504D01*
X250936780Y-93419742D01*
X250936780Y-93705457D01*
X250889161Y-93800695D01*
X250841542Y-93848314D01*
X249936780Y-92895933D02*
X249936780Y-92276885D01*
X250317733Y-92610219D01*
X250317733Y-92467361D01*
X250365352Y-92372123D01*
X250412971Y-92324504D01*
X250508209Y-92276885D01*
X250746304Y-92276885D01*
X250841542Y-92324504D01*
X250889161Y-92372123D01*
X250936780Y-92467361D01*
X250936780Y-92753076D01*
X250889161Y-92848314D01*
X250841542Y-92895933D01*
X249936780Y-91657838D02*
X249936780Y-91562600D01*
X249984400Y-91467361D01*
X250032019Y-91419742D01*
X250127257Y-91372123D01*
X250317733Y-91324504D01*
X250555828Y-91324504D01*
X250746304Y-91372123D01*
X250841542Y-91419742D01*
X250889161Y-91467361D01*
X250936780Y-91562600D01*
X250936780Y-91657838D01*
X250889161Y-91753076D01*
X250841542Y-91800695D01*
X250746304Y-91848314D01*
X250555828Y-91895933D01*
X250317733Y-91895933D01*
X250127257Y-91848314D01*
X250032019Y-91800695D01*
X249984400Y-91753076D01*
X249936780Y-91657838D01*
%TO.C,J1*%
X211705866Y-141648380D02*
X211705866Y-142362666D01*
X211658247Y-142505523D01*
X211563009Y-142600761D01*
X211420152Y-142648380D01*
X211324914Y-142648380D01*
X212705866Y-142648380D02*
X212134438Y-142648380D01*
X212420152Y-142648380D02*
X212420152Y-141648380D01*
X212324914Y-141791238D01*
X212229676Y-141886476D01*
X212134438Y-141934095D01*
%TO.C,D4*%
X243121580Y-83237295D02*
X242121580Y-83237295D01*
X242121580Y-82999200D01*
X242169200Y-82856342D01*
X242264438Y-82761104D01*
X242359676Y-82713485D01*
X242550152Y-82665866D01*
X242693009Y-82665866D01*
X242883485Y-82713485D01*
X242978723Y-82761104D01*
X243073961Y-82856342D01*
X243121580Y-82999200D01*
X243121580Y-83237295D01*
X242454914Y-81808723D02*
X243121580Y-81808723D01*
X242073961Y-82046819D02*
X242788247Y-82284914D01*
X242788247Y-81665866D01*
X235201580Y-83142057D02*
X235201580Y-83618247D01*
X234201580Y-83618247D01*
X234677771Y-82808723D02*
X234677771Y-82475390D01*
X235201580Y-82332533D02*
X235201580Y-82808723D01*
X234201580Y-82808723D01*
X234201580Y-82332533D01*
X235201580Y-81903961D02*
X234201580Y-81903961D01*
X234201580Y-81665866D01*
X234249200Y-81523009D01*
X234344438Y-81427771D01*
X234439676Y-81380152D01*
X234630152Y-81332533D01*
X234773009Y-81332533D01*
X234963485Y-81380152D01*
X235058723Y-81427771D01*
X235153961Y-81523009D01*
X235201580Y-81665866D01*
X235201580Y-81903961D01*
%TO.C,D3*%
X252976780Y-83237295D02*
X251976780Y-83237295D01*
X251976780Y-82999200D01*
X252024400Y-82856342D01*
X252119638Y-82761104D01*
X252214876Y-82713485D01*
X252405352Y-82665866D01*
X252548209Y-82665866D01*
X252738685Y-82713485D01*
X252833923Y-82761104D01*
X252929161Y-82856342D01*
X252976780Y-82999200D01*
X252976780Y-83237295D01*
X251976780Y-82332533D02*
X251976780Y-81713485D01*
X252357733Y-82046819D01*
X252357733Y-81903961D01*
X252405352Y-81808723D01*
X252452971Y-81761104D01*
X252548209Y-81713485D01*
X252786304Y-81713485D01*
X252881542Y-81761104D01*
X252929161Y-81808723D01*
X252976780Y-81903961D01*
X252976780Y-82189676D01*
X252929161Y-82284914D01*
X252881542Y-82332533D01*
X245056780Y-83142057D02*
X245056780Y-83618247D01*
X244056780Y-83618247D01*
X244532971Y-82808723D02*
X244532971Y-82475390D01*
X245056780Y-82332533D02*
X245056780Y-82808723D01*
X244056780Y-82808723D01*
X244056780Y-82332533D01*
X245056780Y-81903961D02*
X244056780Y-81903961D01*
X244056780Y-81665866D01*
X244104400Y-81523009D01*
X244199638Y-81427771D01*
X244294876Y-81380152D01*
X244485352Y-81332533D01*
X244628209Y-81332533D01*
X244818685Y-81380152D01*
X244913923Y-81427771D01*
X245009161Y-81523009D01*
X245056780Y-81665866D01*
X245056780Y-81903961D01*
%TO.C,D1*%
X233317180Y-83237295D02*
X232317180Y-83237295D01*
X232317180Y-82999200D01*
X232364800Y-82856342D01*
X232460038Y-82761104D01*
X232555276Y-82713485D01*
X232745752Y-82665866D01*
X232888609Y-82665866D01*
X233079085Y-82713485D01*
X233174323Y-82761104D01*
X233269561Y-82856342D01*
X233317180Y-82999200D01*
X233317180Y-83237295D01*
X233317180Y-81713485D02*
X233317180Y-82284914D01*
X233317180Y-81999200D02*
X232317180Y-81999200D01*
X232460038Y-82094438D01*
X232555276Y-82189676D01*
X232602895Y-82284914D01*
X225397180Y-83142057D02*
X225397180Y-83618247D01*
X224397180Y-83618247D01*
X224873371Y-82808723D02*
X224873371Y-82475390D01*
X225397180Y-82332533D02*
X225397180Y-82808723D01*
X224397180Y-82808723D01*
X224397180Y-82332533D01*
X225397180Y-81903961D02*
X224397180Y-81903961D01*
X224397180Y-81665866D01*
X224444800Y-81523009D01*
X224540038Y-81427771D01*
X224635276Y-81380152D01*
X224825752Y-81332533D01*
X224968609Y-81332533D01*
X225159085Y-81380152D01*
X225254323Y-81427771D01*
X225349561Y-81523009D01*
X225397180Y-81665866D01*
X225397180Y-81903961D01*
D13*
%TO.C,U1*%
X262490000Y-104550000D02*
X262090000Y-104550000D01*
X262490000Y-104950000D02*
X262490000Y-104550000D01*
X255690000Y-104550000D02*
X255690000Y-104950000D01*
X256190000Y-104550000D02*
X255690000Y-104550000D01*
X255690000Y-124050000D02*
X256090000Y-124050000D01*
X255690000Y-123650000D02*
X255690000Y-124050000D01*
X261590000Y-124150000D02*
X262590000Y-123150000D01*
X261290000Y-124150000D02*
X261590000Y-124150000D01*
X262590000Y-123150000D02*
X262960000Y-123150000D01*
X262970000Y-123150000D02*
X263220000Y-123150000D01*
%TO.C,U2*%
X232010000Y-104550000D02*
X231610000Y-104550000D01*
X232010000Y-104950000D02*
X232010000Y-104550000D01*
X225210000Y-104550000D02*
X225210000Y-104950000D01*
X225710000Y-104550000D02*
X225210000Y-104550000D01*
X225210000Y-124050000D02*
X225610000Y-124050000D01*
X225210000Y-123650000D02*
X225210000Y-124050000D01*
X231110000Y-124150000D02*
X232110000Y-123150000D01*
X230810000Y-124150000D02*
X231110000Y-124150000D01*
X232110000Y-123150000D02*
X232480000Y-123150000D01*
X232490000Y-123150000D02*
X232740000Y-123150000D01*
%TO.C,U4*%
X216770000Y-104520000D02*
X216370000Y-104520000D01*
X216770000Y-104920000D02*
X216770000Y-104520000D01*
X209970000Y-104520000D02*
X209970000Y-104920000D01*
X210470000Y-104520000D02*
X209970000Y-104520000D01*
X209970000Y-124020000D02*
X210370000Y-124020000D01*
X209970000Y-123620000D02*
X209970000Y-124020000D01*
X215870000Y-124120000D02*
X216870000Y-123120000D01*
X215570000Y-124120000D02*
X215870000Y-124120000D01*
X216870000Y-123120000D02*
X217240000Y-123120000D01*
X217250000Y-123120000D02*
X217500000Y-123120000D01*
%TO.C,U3*%
X247250000Y-104550000D02*
X246850000Y-104550000D01*
X247250000Y-104950000D02*
X247250000Y-104550000D01*
X240450000Y-104550000D02*
X240450000Y-104950000D01*
X240950000Y-104550000D02*
X240450000Y-104550000D01*
X240450000Y-124050000D02*
X240850000Y-124050000D01*
X240450000Y-123650000D02*
X240450000Y-124050000D01*
X246350000Y-124150000D02*
X247350000Y-123150000D01*
X246050000Y-124150000D02*
X246350000Y-124150000D01*
X247350000Y-123150000D02*
X247720000Y-123150000D01*
X247730000Y-123150000D02*
X247980000Y-123150000D01*
D14*
%TO.C,SW1*%
X244605000Y-149307500D02*
X244605000Y-147954167D01*
X247985000Y-149307500D02*
X247985000Y-147954167D01*
X247025000Y-149307500D02*
X248295000Y-149307500D01*
X252225000Y-149307500D02*
X252225000Y-147954167D01*
X250285000Y-149307500D02*
X250285000Y-147954167D01*
X249565000Y-145247500D02*
X249565000Y-149307500D01*
X247145000Y-149307500D02*
X247145000Y-147954167D01*
X248225000Y-149307500D02*
X248225000Y-147954167D01*
X250165000Y-149307500D02*
X250165000Y-147954167D01*
X247025000Y-145247500D02*
X247025000Y-149307500D01*
X242700000Y-152227500D02*
X255160000Y-152227500D01*
X242460000Y-152467500D02*
X242460000Y-151083500D01*
X247865000Y-149307500D02*
X247865000Y-147954167D01*
X250405000Y-149307500D02*
X250405000Y-147954167D01*
X253065000Y-149307500D02*
X253065000Y-147954167D01*
X253185000Y-149307500D02*
X253185000Y-147954167D01*
X247505000Y-149307500D02*
X247505000Y-147954167D01*
X247025000Y-147954167D02*
X248295000Y-147954167D01*
X245445000Y-149307500D02*
X245445000Y-147954167D01*
X247385000Y-149307500D02*
X247385000Y-147954167D01*
X252465000Y-149307500D02*
X252465000Y-147954167D01*
X248105000Y-149307500D02*
X248105000Y-147954167D01*
X242700000Y-142327500D02*
X255160000Y-142327500D01*
X245755000Y-145247500D02*
X244485000Y-145247500D01*
X249565000Y-149307500D02*
X250835000Y-149307500D01*
X244725000Y-149307500D02*
X244725000Y-147954167D01*
X244485000Y-145247500D02*
X244485000Y-149307500D01*
X242700000Y-152227500D02*
X242700000Y-142327500D01*
X244845000Y-149307500D02*
X244845000Y-147954167D01*
X252105000Y-149307500D02*
X253375000Y-149307500D01*
X250765000Y-149307500D02*
X250765000Y-147954167D01*
X252105000Y-147954167D02*
X253375000Y-147954167D01*
X252105000Y-145247500D02*
X252105000Y-149307500D01*
X245205000Y-149307500D02*
X245205000Y-147954167D01*
X247745000Y-149307500D02*
X247745000Y-147954167D01*
X247265000Y-149307500D02*
X247265000Y-147954167D01*
X249925000Y-149307500D02*
X249925000Y-147954167D01*
X250645000Y-149307500D02*
X250645000Y-147954167D01*
X253375000Y-149307500D02*
X253375000Y-145247500D01*
X244485000Y-149307500D02*
X245755000Y-149307500D01*
X250045000Y-149307500D02*
X250045000Y-147954167D01*
X245685000Y-149307500D02*
X245685000Y-147954167D01*
X252945000Y-149307500D02*
X252945000Y-147954167D01*
X255160000Y-152227500D02*
X255160000Y-142327500D01*
X245565000Y-149307500D02*
X245565000Y-147954167D01*
X247625000Y-149307500D02*
X247625000Y-147954167D01*
X244485000Y-147954167D02*
X245755000Y-147954167D01*
X252585000Y-149307500D02*
X252585000Y-147954167D01*
X249685000Y-149307500D02*
X249685000Y-147954167D01*
X248295000Y-145247500D02*
X247025000Y-145247500D01*
X244965000Y-149307500D02*
X244965000Y-147954167D01*
X250835000Y-149307500D02*
X250835000Y-145247500D01*
X252345000Y-149307500D02*
X252345000Y-147954167D01*
X249805000Y-149307500D02*
X249805000Y-147954167D01*
X245085000Y-149307500D02*
X245085000Y-147954167D01*
X252825000Y-149307500D02*
X252825000Y-147954167D01*
X250835000Y-145247500D02*
X249565000Y-145247500D01*
X245325000Y-149307500D02*
X245325000Y-147954167D01*
X242460000Y-152467500D02*
X243843000Y-152467500D01*
X249565000Y-147954167D02*
X250835000Y-147954167D01*
X252705000Y-149307500D02*
X252705000Y-147954167D01*
X250525000Y-149307500D02*
X250525000Y-147954167D01*
X253375000Y-145247500D02*
X252105000Y-145247500D01*
X253305000Y-149307500D02*
X253305000Y-147954167D01*
X245755000Y-149307500D02*
X245755000Y-145247500D01*
X248295000Y-149307500D02*
X248295000Y-145247500D01*
%TO.C,R7*%
X228904800Y-95432600D02*
X228904800Y-94482600D01*
X227984800Y-94482600D02*
X229824800Y-94482600D01*
X228904800Y-89692600D02*
X228904800Y-90642600D01*
X229824800Y-94482600D02*
X229824800Y-90642600D01*
X227984800Y-90642600D02*
X227984800Y-94482600D01*
X229824800Y-90642600D02*
X227984800Y-90642600D01*
%TO.C,R6*%
X225120000Y-136448800D02*
X224170000Y-136448800D01*
X224170000Y-137368800D02*
X224170000Y-135528800D01*
X219380000Y-136448800D02*
X220330000Y-136448800D01*
X224170000Y-135528800D02*
X220330000Y-135528800D01*
X220330000Y-137368800D02*
X224170000Y-137368800D01*
X220330000Y-135528800D02*
X220330000Y-137368800D01*
%TO.C,R5*%
X239680000Y-90642600D02*
X237840000Y-90642600D01*
X237840000Y-90642600D02*
X237840000Y-94482600D01*
X239680000Y-94482600D02*
X239680000Y-90642600D01*
X238760000Y-89692600D02*
X238760000Y-90642600D01*
X237840000Y-94482600D02*
X239680000Y-94482600D01*
X238760000Y-95432600D02*
X238760000Y-94482600D01*
%TO.C,R4*%
X225120000Y-142240000D02*
X224170000Y-142240000D01*
X224170000Y-143160000D02*
X224170000Y-141320000D01*
X219380000Y-142240000D02*
X220330000Y-142240000D01*
X224170000Y-141320000D02*
X220330000Y-141320000D01*
X220330000Y-143160000D02*
X224170000Y-143160000D01*
X220330000Y-141320000D02*
X220330000Y-143160000D01*
%TO.C,R3*%
X220330000Y-147009600D02*
X220330000Y-148849600D01*
X220330000Y-148849600D02*
X224170000Y-148849600D01*
X224170000Y-147009600D02*
X220330000Y-147009600D01*
X219380000Y-147929600D02*
X220330000Y-147929600D01*
X224170000Y-148849600D02*
X224170000Y-147009600D01*
X225120000Y-147929600D02*
X224170000Y-147929600D01*
%TO.C,R2*%
X225120000Y-153873200D02*
X224170000Y-153873200D01*
X224170000Y-154793200D02*
X224170000Y-152953200D01*
X219380000Y-153873200D02*
X220330000Y-153873200D01*
X224170000Y-152953200D02*
X220330000Y-152953200D01*
X220330000Y-154793200D02*
X224170000Y-154793200D01*
X220330000Y-152953200D02*
X220330000Y-154793200D01*
%TO.C,R1*%
X249484400Y-90642600D02*
X247644400Y-90642600D01*
X247644400Y-90642600D02*
X247644400Y-94482600D01*
X249484400Y-94482600D02*
X249484400Y-90642600D01*
X248564400Y-89692600D02*
X248564400Y-90642600D01*
X247644400Y-94482600D02*
X249484400Y-94482600D01*
X248564400Y-95432600D02*
X248564400Y-94482600D01*
%TO.C,J1*%
X210709200Y-145796000D02*
X213369200Y-145796000D01*
X210709200Y-143196000D02*
X212039200Y-143196000D01*
X213369200Y-145796000D02*
X213369200Y-150936000D01*
X210709200Y-144526000D02*
X210709200Y-143196000D01*
X210709200Y-145796000D02*
X210709200Y-150936000D01*
X210709200Y-150936000D02*
X213369200Y-150936000D01*
%TO.C,D4*%
X241209200Y-82499200D02*
G75*
G03*
X241209200Y-82499200I-2500000J0D01*
G01*
X238708738Y-85489200D02*
G75*
G03*
X240254030Y-79939200I462J2990000D01*
G01*
X237164370Y-79939200D02*
G75*
G03*
X238709662Y-85489200I1544830J-2560000D01*
G01*
X240254200Y-79939200D02*
X237164200Y-79939200D01*
%TO.C,D3*%
X250109400Y-79939200D02*
X247019400Y-79939200D01*
X247019570Y-79939200D02*
G75*
G03*
X248564862Y-85489200I1544830J-2560000D01*
G01*
X248563938Y-85489200D02*
G75*
G03*
X250109230Y-79939200I462J2990000D01*
G01*
X251064400Y-82499200D02*
G75*
G03*
X251064400Y-82499200I-2500000J0D01*
G01*
%TO.C,D1*%
X231404800Y-82499200D02*
G75*
G03*
X231404800Y-82499200I-2500000J0D01*
G01*
X228904338Y-85489200D02*
G75*
G03*
X230449630Y-79939200I462J2990000D01*
G01*
X227359970Y-79939200D02*
G75*
G03*
X228905262Y-85489200I1544830J-2560000D01*
G01*
X230449800Y-79939200D02*
X227359800Y-79939200D01*
%TD*%
M02*
