%TF.GenerationSoftware,KiCad,Pcbnew,(6.0.2)*%
%TF.CreationDate,2022-11-27T18:43:32-05:00*%
%TF.ProjectId,ECE436_Project,45434534-3336-45f5-9072-6f6a6563742e,rev?*%
%TF.SameCoordinates,Original*%
%TF.FileFunction,Copper,L2,Bot*%
%TF.FilePolarity,Positive*%
%FSLAX46Y46*%
G04 Gerber Fmt 4.6, Leading zero omitted, Abs format (unit mm)*
G04 Created by KiCad (PCBNEW (6.0.2)) date 2022-11-27 18:43:32*
%MOMM*%
%LPD*%
G01*
G04 APERTURE LIST*
%TA.AperFunction,ComponentPad*%
%ADD10C,1.600000*%
%TD*%
%TA.AperFunction,ComponentPad*%
%ADD11R,1.600000X1.600000*%
%TD*%
%TA.AperFunction,ComponentPad*%
%ADD12O,1.600000X1.600000*%
%TD*%
%TA.AperFunction,ComponentPad*%
%ADD13O,1.400000X1.400000*%
%TD*%
%TA.AperFunction,ComponentPad*%
%ADD14C,1.400000*%
%TD*%
%TA.AperFunction,ComponentPad*%
%ADD15O,1.700000X1.700000*%
%TD*%
%TA.AperFunction,ComponentPad*%
%ADD16R,1.700000X1.700000*%
%TD*%
%TA.AperFunction,ComponentPad*%
%ADD17C,1.800000*%
%TD*%
%TA.AperFunction,ComponentPad*%
%ADD18R,1.800000X1.800000*%
%TD*%
%TA.AperFunction,ViaPad*%
%ADD19C,0.800000*%
%TD*%
%TA.AperFunction,Conductor*%
%ADD20C,0.200000*%
%TD*%
%TA.AperFunction,Conductor*%
%ADD21C,0.152400*%
%TD*%
G04 APERTURE END LIST*
D10*
%TO.P,U1,14,VCC*%
%TO.N,/3V*%
X255270000Y-121950000D03*
%TO.P,U1,13,4B*%
%TO.N,Net-(U4-Pad10)*%
X255270000Y-119410000D03*
%TO.P,U1,12,4A*%
%TO.N,Net-(U4-Pad9)*%
X255270000Y-116870000D03*
%TO.P,U1,11,4Y*%
%TO.N,Net-(U1-Pad11)*%
X255270000Y-114330000D03*
%TO.P,U1,10,3B*%
%TO.N,Net-(U2-Pad6)*%
X255270000Y-111790000D03*
%TO.P,U1,9,3A*%
%TO.N,Net-(U4-Pad6)*%
X255270000Y-109250000D03*
%TO.P,U1,8,3Y*%
%TO.N,Net-(U4-Pad10)*%
X255270000Y-106710000D03*
%TO.P,U1,7,GND*%
%TO.N,GND*%
X262890000Y-106710000D03*
%TO.P,U1,6,2Y*%
%TO.N,Net-(U4-Pad9)*%
X262890000Y-109250000D03*
%TO.P,U1,5,2B*%
%TO.N,Net-(R2-Pad1)*%
X262890000Y-111790000D03*
%TO.P,U1,4,2A*%
%TO.N,Net-(R6-Pad1)*%
X262890000Y-114330000D03*
%TO.P,U1,3,1Y*%
%TO.N,Net-(U1-Pad3)*%
X262890000Y-116870000D03*
%TO.P,U1,2,1B*%
%TO.N,Net-(U1-Pad2)*%
X262890000Y-119410000D03*
D11*
%TO.P,U1,1,1A*%
%TO.N,Net-(U4-Pad3)*%
X262890000Y-121950000D03*
%TD*%
D10*
%TO.P,U2,14,VCC*%
%TO.N,/3V*%
X224790000Y-121950000D03*
%TO.P,U2,13,4B*%
%TO.N,Net-(U4-Pad10)*%
X224790000Y-119410000D03*
%TO.P,U2,12,4A*%
%TO.N,Net-(U4-Pad9)*%
X224790000Y-116870000D03*
%TO.P,U2,11,4Y*%
%TO.N,Net-(U3-Pad5)*%
X224790000Y-114330000D03*
%TO.P,U2,10,3B*%
%TO.N,Net-(U3-Pad3)*%
X224790000Y-111790000D03*
%TO.P,U2,9,3A*%
%TO.N,Net-(U1-Pad11)*%
X224790000Y-109250000D03*
%TO.P,U2,8,3Y*%
%TO.N,Net-(R7-Pad1)*%
X224790000Y-106710000D03*
%TO.P,U2,7,GND*%
%TO.N,GND*%
X232410000Y-106710000D03*
%TO.P,U2,6,2Y*%
%TO.N,Net-(U2-Pad6)*%
X232410000Y-109250000D03*
%TO.P,U2,5,2B*%
%TO.N,Net-(R3-Pad1)*%
X232410000Y-111790000D03*
%TO.P,U2,4,2A*%
%TO.N,Net-(R4-Pad1)*%
X232410000Y-114330000D03*
%TO.P,U2,3,1Y*%
%TO.N,Net-(U1-Pad2)*%
X232410000Y-116870000D03*
%TO.P,U2,2,1B*%
%TO.N,Net-(R2-Pad1)*%
X232410000Y-119410000D03*
D11*
%TO.P,U2,1,1A*%
%TO.N,Net-(R6-Pad1)*%
X232410000Y-121950000D03*
%TD*%
D10*
%TO.P,U4,14,VCC*%
%TO.N,/3V*%
X209550000Y-121920000D03*
%TO.P,U4,13,4B*%
%TO.N,unconnected-(U4-Pad13)*%
X209550000Y-119380000D03*
%TO.P,U4,12,4A*%
%TO.N,unconnected-(U4-Pad12)*%
X209550000Y-116840000D03*
%TO.P,U4,11,4Y*%
%TO.N,unconnected-(U4-Pad11)*%
X209550000Y-114300000D03*
%TO.P,U4,10,3B*%
%TO.N,Net-(U4-Pad10)*%
X209550000Y-111760000D03*
%TO.P,U4,9,3A*%
%TO.N,Net-(U4-Pad9)*%
X209550000Y-109220000D03*
%TO.P,U4,8,3Y*%
%TO.N,Net-(U4-Pad8)*%
X209550000Y-106680000D03*
%TO.P,U4,7,GND*%
%TO.N,GND*%
X217170000Y-106680000D03*
%TO.P,U4,6,2Y*%
%TO.N,Net-(U4-Pad6)*%
X217170000Y-109220000D03*
%TO.P,U4,5,2B*%
%TO.N,Net-(R3-Pad1)*%
X217170000Y-111760000D03*
%TO.P,U4,4,2A*%
%TO.N,Net-(R4-Pad1)*%
X217170000Y-114300000D03*
%TO.P,U4,3,1Y*%
%TO.N,Net-(U4-Pad3)*%
X217170000Y-116840000D03*
%TO.P,U4,2,1B*%
%TO.N,Net-(R2-Pad1)*%
X217170000Y-119380000D03*
D11*
%TO.P,U4,1,1A*%
%TO.N,Net-(R6-Pad1)*%
X217170000Y-121920000D03*
%TD*%
D10*
%TO.P,U3,14,VCC*%
%TO.N,/3V*%
X240030000Y-121950000D03*
%TO.P,U3,13,4B*%
%TO.N,unconnected-(U3-Pad13)*%
X240030000Y-119410000D03*
%TO.P,U3,12,4A*%
%TO.N,unconnected-(U3-Pad12)*%
X240030000Y-116870000D03*
%TO.P,U3,11,4Y*%
%TO.N,unconnected-(U3-Pad11)*%
X240030000Y-114330000D03*
%TO.P,U3,10,3B*%
%TO.N,unconnected-(U3-Pad10)*%
X240030000Y-111790000D03*
%TO.P,U3,9,3A*%
%TO.N,unconnected-(U3-Pad9)*%
X240030000Y-109250000D03*
%TO.P,U3,8,3Y*%
%TO.N,unconnected-(U3-Pad8)*%
X240030000Y-106710000D03*
%TO.P,U3,7,GND*%
%TO.N,GND*%
X247650000Y-106710000D03*
%TO.P,U3,6,2Y*%
%TO.N,Net-(R5-Pad1)*%
X247650000Y-109250000D03*
%TO.P,U3,5,2B*%
%TO.N,Net-(U3-Pad5)*%
X247650000Y-111790000D03*
%TO.P,U3,4,2A*%
%TO.N,Net-(U4-Pad8)*%
X247650000Y-114330000D03*
%TO.P,U3,3,1Y*%
%TO.N,Net-(U3-Pad3)*%
X247650000Y-116870000D03*
%TO.P,U3,2,1B*%
%TO.N,Net-(R4-Pad1)*%
X247650000Y-119410000D03*
D11*
%TO.P,U3,1,1A*%
%TO.N,Net-(R3-Pad1)*%
X247650000Y-121950000D03*
%TD*%
D12*
%TO.P,SW1,8*%
%TO.N,Net-(R3-Pad1)*%
X245120000Y-143467500D03*
%TO.P,SW1,7*%
%TO.N,Net-(R2-Pad1)*%
X247660000Y-143467500D03*
%TO.P,SW1,6*%
%TO.N,Net-(R4-Pad1)*%
X250200000Y-143467500D03*
%TO.P,SW1,5*%
%TO.N,Net-(R6-Pad1)*%
X252740000Y-143467500D03*
%TO.P,SW1,4*%
%TO.N,GND*%
X252740000Y-151087500D03*
%TO.P,SW1,3*%
X250200000Y-151087500D03*
%TO.P,SW1,2*%
X247660000Y-151087500D03*
D11*
%TO.P,SW1,1*%
X245120000Y-151087500D03*
%TD*%
D13*
%TO.P,R7,2*%
%TO.N,Net-(D1-Pad2)*%
X228904800Y-88752600D03*
D14*
%TO.P,R7,1*%
%TO.N,Net-(R7-Pad1)*%
X228904800Y-96372600D03*
%TD*%
D13*
%TO.P,R6,2*%
%TO.N,/3V*%
X218440000Y-136448800D03*
D14*
%TO.P,R6,1*%
%TO.N,Net-(R6-Pad1)*%
X226060000Y-136448800D03*
%TD*%
%TO.P,R5,1*%
%TO.N,Net-(R5-Pad1)*%
X238760000Y-96372600D03*
D13*
%TO.P,R5,2*%
%TO.N,Net-(R5-Pad2)*%
X238760000Y-88752600D03*
%TD*%
%TO.P,R4,2*%
%TO.N,/3V*%
X218440000Y-142240000D03*
D14*
%TO.P,R4,1*%
%TO.N,Net-(R4-Pad1)*%
X226060000Y-142240000D03*
%TD*%
%TO.P,R3,1*%
%TO.N,Net-(R3-Pad1)*%
X226060000Y-147929600D03*
D13*
%TO.P,R3,2*%
%TO.N,/3V*%
X218440000Y-147929600D03*
%TD*%
%TO.P,R2,2*%
%TO.N,/3V*%
X218440000Y-153873200D03*
D14*
%TO.P,R2,1*%
%TO.N,Net-(R2-Pad1)*%
X226060000Y-153873200D03*
%TD*%
%TO.P,R1,1*%
%TO.N,Net-(U1-Pad3)*%
X248564400Y-96372600D03*
D13*
%TO.P,R1,2*%
%TO.N,Net-(R1-Pad2)*%
X248564400Y-88752600D03*
%TD*%
D15*
%TO.P,J1,3,Pin_3*%
%TO.N,GND*%
X212039200Y-149606000D03*
%TO.P,J1,2,Pin_2*%
%TO.N,unconnected-(J1-Pad2)*%
X212039200Y-147066000D03*
D16*
%TO.P,J1,1,Pin_1*%
%TO.N,/3V*%
X212039200Y-144526000D03*
%TD*%
D17*
%TO.P,D4,2,A*%
%TO.N,Net-(R5-Pad2)*%
X238709200Y-83769200D03*
D18*
%TO.P,D4,1,K*%
%TO.N,GND*%
X238709200Y-81229200D03*
%TD*%
%TO.P,D3,1,K*%
%TO.N,GND*%
X248564400Y-81229200D03*
D17*
%TO.P,D3,2,A*%
%TO.N,Net-(R1-Pad2)*%
X248564400Y-83769200D03*
%TD*%
%TO.P,D1,2,A*%
%TO.N,Net-(D1-Pad2)*%
X228904800Y-83769200D03*
D18*
%TO.P,D1,1,K*%
%TO.N,GND*%
X228904800Y-81229200D03*
%TD*%
D19*
%TO.N,Net-(U2-Pad6)*%
X238607600Y-103047800D03*
%TO.N,Net-(U3-Pad3)*%
X251968000Y-116840000D03*
X251460000Y-113030000D03*
%TO.N,Net-(U1-Pad11)*%
X259842000Y-109220000D03*
X233680000Y-100330000D03*
%TO.N,Net-(U3-Pad5)*%
X221742000Y-112014000D03*
%TO.N,Net-(U4-Pad6)*%
X252264211Y-110374511D03*
%TO.N,Net-(U4-Pad10)*%
X234442000Y-119380000D03*
X238252000Y-125984000D03*
X249682000Y-125476000D03*
%TO.N,Net-(U1-Pad2)*%
X235966000Y-128524000D03*
X235966000Y-119380000D03*
%TO.N,Net-(R4-Pad1)*%
X238506000Y-130048000D03*
X238506000Y-139192000D03*
%TO.N,Net-(R3-Pad1)*%
X245110000Y-130302000D03*
X251460000Y-119380000D03*
%TD*%
D20*
%TO.N,Net-(U2-Pad6)*%
X253517400Y-110037400D02*
X255270000Y-111790000D01*
X253517400Y-106756200D02*
X253517400Y-110037400D01*
X249809000Y-103047800D02*
X253517400Y-106756200D01*
X238607600Y-103047800D02*
X249809000Y-103047800D01*
D21*
%TO.N,Net-(U3-Pad3)*%
X251968000Y-113538000D02*
X251968000Y-116840000D01*
X251460000Y-113030000D02*
X251968000Y-113538000D01*
%TO.N,Net-(U1-Pad11)*%
X259842000Y-108957386D02*
X259842000Y-109220000D01*
X251214614Y-100330000D02*
X259842000Y-108957386D01*
X233680000Y-100330000D02*
X251214614Y-100330000D01*
%TO.N,Net-(U3-Pad5)*%
X222474000Y-112014000D02*
X224790000Y-114330000D01*
X221742000Y-112014000D02*
X222474000Y-112014000D01*
%TO.N,Net-(U4-Pad10)*%
X225914511Y-118285489D02*
X224790000Y-119410000D01*
X232875789Y-118285489D02*
X225914511Y-118285489D01*
X233970300Y-119380000D02*
X232875789Y-118285489D01*
X234442000Y-119380000D02*
X233970300Y-119380000D01*
%TO.N,Net-(U1-Pad2)*%
X235966000Y-118364000D02*
X235966000Y-119380000D01*
X234472000Y-116870000D02*
X235966000Y-118364000D01*
X232410000Y-116870000D02*
X234472000Y-116870000D01*
%TO.N,Net-(U4-Pad10)*%
X238760000Y-125476000D02*
X238252000Y-125984000D01*
X249682000Y-125476000D02*
X238760000Y-125476000D01*
X257048000Y-108488000D02*
X257048000Y-117632000D01*
X257048000Y-117632000D02*
X255270000Y-119410000D01*
X255270000Y-106710000D02*
X257048000Y-108488000D01*
%TO.N,Net-(U1-Pad2)*%
X264414000Y-120904000D02*
X264384000Y-120904000D01*
X264414000Y-122675022D02*
X264414000Y-120904000D01*
X258565022Y-128524000D02*
X264414000Y-122675022D01*
X264384000Y-120904000D02*
X262890000Y-119410000D01*
X235966000Y-128524000D02*
X258565022Y-128524000D01*
%TO.N,Net-(R4-Pad1)*%
X238506000Y-139192000D02*
X238506000Y-130048000D01*
%TO.N,Net-(R2-Pad1)*%
X265684000Y-114584000D02*
X262890000Y-111790000D01*
X265684000Y-123444000D02*
X265684000Y-114584000D01*
X247660000Y-141468000D02*
X265684000Y-123444000D01*
X247660000Y-143467500D02*
X247660000Y-141468000D01*
%TO.N,Net-(R3-Pad1)*%
X245120000Y-130312000D02*
X245110000Y-130302000D01*
X245120000Y-143467500D02*
X245120000Y-130312000D01*
%TO.N,Net-(R4-Pad1)*%
X218324511Y-115454511D02*
X231285489Y-115454511D01*
X217170000Y-114300000D02*
X218324511Y-115454511D01*
X231285489Y-115454511D02*
X232410000Y-114330000D01*
%TO.N,Net-(U4-Pad6)*%
X218555489Y-107834511D02*
X217170000Y-109220000D01*
X232875789Y-107834511D02*
X218555489Y-107834511D01*
X235415789Y-110374511D02*
X232875789Y-107834511D01*
X252264211Y-110374511D02*
X235415789Y-110374511D01*
%TO.N,Net-(R3-Pad1)*%
X251460000Y-119089700D02*
X251460000Y-119380000D01*
X248115789Y-115745489D02*
X251460000Y-119089700D01*
X247184211Y-115745489D02*
X248115789Y-115745489D01*
X233825489Y-113205489D02*
X244644211Y-113205489D01*
X244644211Y-113205489D02*
X247184211Y-115745489D01*
X232410000Y-111790000D02*
X233825489Y-113205489D01*
X231285489Y-110665489D02*
X232410000Y-111790000D01*
X218264511Y-110665489D02*
X231285489Y-110665489D01*
X217170000Y-111760000D02*
X218264511Y-110665489D01*
%TO.N,Net-(R4-Pad1)*%
X243985489Y-115745489D02*
X247650000Y-119410000D01*
X233825489Y-115745489D02*
X243985489Y-115745489D01*
X232410000Y-114330000D02*
X233825489Y-115745489D01*
%TO.N,Net-(U4-Pad3)*%
X220864511Y-120534511D02*
X261474511Y-120534511D01*
X217170000Y-116840000D02*
X220864511Y-120534511D01*
X261474511Y-120534511D02*
X262890000Y-121950000D01*
%TO.N,/3V*%
X249661200Y-127558800D02*
X255270000Y-121950000D01*
X234421200Y-127558800D02*
X249661200Y-127558800D01*
X234421200Y-127558800D02*
X240030000Y-121950000D01*
X219181200Y-127558800D02*
X234421200Y-127558800D01*
X219181200Y-127558800D02*
X224790000Y-121950000D01*
X209550000Y-127558800D02*
X219181200Y-127558800D01*
X209550000Y-127558800D02*
X209550000Y-121920000D01*
X218440000Y-136448800D02*
X209550000Y-127558800D01*
%TD*%
%TA.AperFunction,Conductor*%
%TO.N,GND*%
G36*
X251152475Y-77723437D02*
G01*
X251220382Y-77744155D01*
X251242753Y-77762915D01*
X255493971Y-82264205D01*
X255526202Y-82327464D01*
X255527872Y-82339564D01*
X256031505Y-88005431D01*
X256032000Y-88016587D01*
X256032000Y-88846793D01*
X256030254Y-88867697D01*
X256026929Y-88887461D01*
X256026776Y-88900000D01*
X256027466Y-88904815D01*
X256027782Y-88909674D01*
X256027779Y-88909674D01*
X256028289Y-88915273D01*
X256044928Y-89338768D01*
X256045217Y-89341213D01*
X256045218Y-89341221D01*
X256067309Y-89527864D01*
X256096540Y-89774830D01*
X256182205Y-90205499D01*
X256182875Y-90207875D01*
X256182878Y-90207887D01*
X256244519Y-90426445D01*
X256248755Y-90449488D01*
X256540000Y-93726000D01*
X257985008Y-93886556D01*
X259419711Y-94045968D01*
X259458548Y-94056771D01*
X259479915Y-94066621D01*
X259482227Y-94067474D01*
X259482232Y-94067476D01*
X259508631Y-94077215D01*
X259891881Y-94218603D01*
X259894265Y-94219275D01*
X259894270Y-94219277D01*
X260312113Y-94337122D01*
X260312125Y-94337125D01*
X260314501Y-94337795D01*
X260316921Y-94338276D01*
X260316932Y-94338279D01*
X260593065Y-94393205D01*
X260745170Y-94423460D01*
X260917014Y-94443799D01*
X261178779Y-94474782D01*
X261178787Y-94474783D01*
X261181232Y-94475072D01*
X261302242Y-94479827D01*
X261589722Y-94491122D01*
X261597806Y-94491957D01*
X261597817Y-94491829D01*
X261602659Y-94492263D01*
X261607461Y-94493071D01*
X261613842Y-94493149D01*
X261615141Y-94493165D01*
X261615145Y-94493165D01*
X261620000Y-94493224D01*
X261647588Y-94489273D01*
X261665451Y-94488000D01*
X263354258Y-94488000D01*
X263422379Y-94508002D01*
X263432333Y-94515105D01*
X268176698Y-98260656D01*
X268217770Y-98318565D01*
X268224615Y-98358264D01*
X268250155Y-100861226D01*
X268726103Y-147504138D01*
X268726048Y-147509382D01*
X268713078Y-147922097D01*
X268712581Y-147929997D01*
X268698014Y-148084101D01*
X268671690Y-148150037D01*
X268667059Y-148155600D01*
X262938061Y-154648464D01*
X261149620Y-156675364D01*
X261089551Y-156713210D01*
X261055140Y-156718000D01*
X210867641Y-156718000D01*
X210799520Y-156697998D01*
X210784277Y-156686480D01*
X208950414Y-155068365D01*
X207595893Y-153873200D01*
X217226884Y-153873200D01*
X217245314Y-154083855D01*
X217246738Y-154089168D01*
X217246738Y-154089170D01*
X217257175Y-154128119D01*
X217300044Y-154288110D01*
X217389411Y-154479758D01*
X217510699Y-154652976D01*
X217660224Y-154802501D01*
X217833442Y-154923789D01*
X217838420Y-154926110D01*
X217838423Y-154926112D01*
X217865753Y-154938856D01*
X218025090Y-155013156D01*
X218030398Y-155014578D01*
X218030400Y-155014579D01*
X218224030Y-155066462D01*
X218224032Y-155066462D01*
X218229345Y-155067886D01*
X218440000Y-155086316D01*
X218650655Y-155067886D01*
X218655968Y-155066462D01*
X218655970Y-155066462D01*
X218849600Y-155014579D01*
X218849602Y-155014578D01*
X218854910Y-155013156D01*
X219014247Y-154938856D01*
X219041577Y-154926112D01*
X219041580Y-154926110D01*
X219046558Y-154923789D01*
X219219776Y-154802501D01*
X219369301Y-154652976D01*
X219490589Y-154479758D01*
X219579956Y-154288110D01*
X219622826Y-154128119D01*
X219633262Y-154089170D01*
X219633262Y-154089168D01*
X219634686Y-154083855D01*
X219653116Y-153873200D01*
X224846884Y-153873200D01*
X224865314Y-154083855D01*
X224866738Y-154089168D01*
X224866738Y-154089170D01*
X224877175Y-154128119D01*
X224920044Y-154288110D01*
X225009411Y-154479758D01*
X225130699Y-154652976D01*
X225280224Y-154802501D01*
X225453442Y-154923789D01*
X225458420Y-154926110D01*
X225458423Y-154926112D01*
X225485753Y-154938856D01*
X225645090Y-155013156D01*
X225650398Y-155014578D01*
X225650400Y-155014579D01*
X225844030Y-155066462D01*
X225844032Y-155066462D01*
X225849345Y-155067886D01*
X226060000Y-155086316D01*
X226270655Y-155067886D01*
X226275968Y-155066462D01*
X226275970Y-155066462D01*
X226469600Y-155014579D01*
X226469602Y-155014578D01*
X226474910Y-155013156D01*
X226634247Y-154938856D01*
X226661577Y-154926112D01*
X226661580Y-154926110D01*
X226666558Y-154923789D01*
X226839776Y-154802501D01*
X226989301Y-154652976D01*
X227110589Y-154479758D01*
X227199956Y-154288110D01*
X227242826Y-154128119D01*
X227253262Y-154089170D01*
X227253262Y-154089168D01*
X227254686Y-154083855D01*
X227273116Y-153873200D01*
X227254686Y-153662545D01*
X227199956Y-153458290D01*
X227110589Y-153266642D01*
X226989301Y-153093424D01*
X226839776Y-152943899D01*
X226666558Y-152822611D01*
X226661580Y-152820290D01*
X226661577Y-152820288D01*
X226479892Y-152735567D01*
X226479891Y-152735566D01*
X226474910Y-152733244D01*
X226469602Y-152731822D01*
X226469600Y-152731821D01*
X226275970Y-152679938D01*
X226275968Y-152679938D01*
X226270655Y-152678514D01*
X226060000Y-152660084D01*
X225849345Y-152678514D01*
X225844032Y-152679938D01*
X225844030Y-152679938D01*
X225650400Y-152731821D01*
X225650398Y-152731822D01*
X225645090Y-152733244D01*
X225640109Y-152735566D01*
X225640108Y-152735567D01*
X225458423Y-152820288D01*
X225458420Y-152820290D01*
X225453442Y-152822611D01*
X225280224Y-152943899D01*
X225130699Y-153093424D01*
X225009411Y-153266642D01*
X224920044Y-153458290D01*
X224865314Y-153662545D01*
X224846884Y-153873200D01*
X219653116Y-153873200D01*
X219634686Y-153662545D01*
X219579956Y-153458290D01*
X219490589Y-153266642D01*
X219369301Y-153093424D01*
X219219776Y-152943899D01*
X219046558Y-152822611D01*
X219041580Y-152820290D01*
X219041577Y-152820288D01*
X218859892Y-152735567D01*
X218859891Y-152735566D01*
X218854910Y-152733244D01*
X218849602Y-152731822D01*
X218849600Y-152731821D01*
X218655970Y-152679938D01*
X218655968Y-152679938D01*
X218650655Y-152678514D01*
X218440000Y-152660084D01*
X218229345Y-152678514D01*
X218224032Y-152679938D01*
X218224030Y-152679938D01*
X218030400Y-152731821D01*
X218030398Y-152731822D01*
X218025090Y-152733244D01*
X218020109Y-152735566D01*
X218020108Y-152735567D01*
X217838423Y-152820288D01*
X217838420Y-152820290D01*
X217833442Y-152822611D01*
X217660224Y-152943899D01*
X217510699Y-153093424D01*
X217389411Y-153266642D01*
X217300044Y-153458290D01*
X217245314Y-153662545D01*
X217226884Y-153873200D01*
X207595893Y-153873200D01*
X206544636Y-152945620D01*
X206506790Y-152885551D01*
X206502000Y-152851140D01*
X206502000Y-151932169D01*
X243812001Y-151932169D01*
X243812371Y-151938990D01*
X243817895Y-151989852D01*
X243821521Y-152005104D01*
X243866676Y-152125554D01*
X243875214Y-152141149D01*
X243951715Y-152243224D01*
X243964276Y-152255785D01*
X244066351Y-152332286D01*
X244081946Y-152340824D01*
X244202394Y-152385978D01*
X244217649Y-152389605D01*
X244268514Y-152395131D01*
X244275328Y-152395500D01*
X244847885Y-152395500D01*
X244863124Y-152391025D01*
X244864329Y-152389635D01*
X244866000Y-152381952D01*
X244866000Y-152377384D01*
X245374000Y-152377384D01*
X245378475Y-152392623D01*
X245379865Y-152393828D01*
X245387548Y-152395499D01*
X245964669Y-152395499D01*
X245971490Y-152395129D01*
X246022352Y-152389605D01*
X246037604Y-152385979D01*
X246158054Y-152340824D01*
X246173649Y-152332286D01*
X246275724Y-152255785D01*
X246288285Y-152243224D01*
X246364786Y-152141149D01*
X246373324Y-152125554D01*
X246418478Y-152005106D01*
X246422104Y-151989857D01*
X246422561Y-151985649D01*
X246423832Y-151982590D01*
X246423932Y-151982169D01*
X246424000Y-151982185D01*
X246449801Y-151920086D01*
X246508163Y-151879657D01*
X246579117Y-151877199D01*
X246640136Y-151913492D01*
X246650972Y-151926900D01*
X246658084Y-151935375D01*
X246812125Y-152089416D01*
X246820533Y-152096472D01*
X246998993Y-152221431D01*
X247008489Y-152226914D01*
X247205947Y-152318990D01*
X247216239Y-152322736D01*
X247388503Y-152368894D01*
X247402599Y-152368558D01*
X247406000Y-152360616D01*
X247406000Y-152355467D01*
X247914000Y-152355467D01*
X247917973Y-152368998D01*
X247926522Y-152370227D01*
X248103761Y-152322736D01*
X248114053Y-152318990D01*
X248311511Y-152226914D01*
X248321007Y-152221431D01*
X248499467Y-152096472D01*
X248507875Y-152089416D01*
X248661916Y-151935375D01*
X248668972Y-151926967D01*
X248793931Y-151748507D01*
X248799414Y-151739011D01*
X248815805Y-151703859D01*
X248862722Y-151650574D01*
X248930999Y-151631113D01*
X248998959Y-151651655D01*
X249044195Y-151703859D01*
X249060586Y-151739011D01*
X249066069Y-151748507D01*
X249191028Y-151926967D01*
X249198084Y-151935375D01*
X249352125Y-152089416D01*
X249360533Y-152096472D01*
X249538993Y-152221431D01*
X249548489Y-152226914D01*
X249745947Y-152318990D01*
X249756239Y-152322736D01*
X249928503Y-152368894D01*
X249942599Y-152368558D01*
X249946000Y-152360616D01*
X249946000Y-152355467D01*
X250454000Y-152355467D01*
X250457973Y-152368998D01*
X250466522Y-152370227D01*
X250643761Y-152322736D01*
X250654053Y-152318990D01*
X250851511Y-152226914D01*
X250861007Y-152221431D01*
X251039467Y-152096472D01*
X251047875Y-152089416D01*
X251201916Y-151935375D01*
X251208972Y-151926967D01*
X251333931Y-151748507D01*
X251339414Y-151739011D01*
X251355805Y-151703859D01*
X251402722Y-151650574D01*
X251470999Y-151631113D01*
X251538959Y-151651655D01*
X251584195Y-151703859D01*
X251600586Y-151739011D01*
X251606069Y-151748507D01*
X251731028Y-151926967D01*
X251738084Y-151935375D01*
X251892125Y-152089416D01*
X251900533Y-152096472D01*
X252078993Y-152221431D01*
X252088489Y-152226914D01*
X252285947Y-152318990D01*
X252296239Y-152322736D01*
X252468503Y-152368894D01*
X252482599Y-152368558D01*
X252486000Y-152360616D01*
X252486000Y-152355467D01*
X252994000Y-152355467D01*
X252997973Y-152368998D01*
X253006522Y-152370227D01*
X253183761Y-152322736D01*
X253194053Y-152318990D01*
X253391511Y-152226914D01*
X253401007Y-152221431D01*
X253579467Y-152096472D01*
X253587875Y-152089416D01*
X253741916Y-151935375D01*
X253748972Y-151926967D01*
X253873931Y-151748507D01*
X253879414Y-151739011D01*
X253971490Y-151541553D01*
X253975236Y-151531261D01*
X254021394Y-151358997D01*
X254021058Y-151344901D01*
X254013116Y-151341500D01*
X253012115Y-151341500D01*
X252996876Y-151345975D01*
X252995671Y-151347365D01*
X252994000Y-151355048D01*
X252994000Y-152355467D01*
X252486000Y-152355467D01*
X252486000Y-151359615D01*
X252481525Y-151344376D01*
X252480135Y-151343171D01*
X252472452Y-151341500D01*
X250472115Y-151341500D01*
X250456876Y-151345975D01*
X250455671Y-151347365D01*
X250454000Y-151355048D01*
X250454000Y-152355467D01*
X249946000Y-152355467D01*
X249946000Y-151359615D01*
X249941525Y-151344376D01*
X249940135Y-151343171D01*
X249932452Y-151341500D01*
X247932115Y-151341500D01*
X247916876Y-151345975D01*
X247915671Y-151347365D01*
X247914000Y-151355048D01*
X247914000Y-152355467D01*
X247406000Y-152355467D01*
X247406000Y-151359615D01*
X247401525Y-151344376D01*
X247400135Y-151343171D01*
X247392452Y-151341500D01*
X245392115Y-151341500D01*
X245376876Y-151345975D01*
X245375671Y-151347365D01*
X245374000Y-151355048D01*
X245374000Y-152377384D01*
X244866000Y-152377384D01*
X244866000Y-151359615D01*
X244861525Y-151344376D01*
X244860135Y-151343171D01*
X244852452Y-151341500D01*
X243830116Y-151341500D01*
X243814877Y-151345975D01*
X243813672Y-151347365D01*
X243812001Y-151355048D01*
X243812001Y-151932169D01*
X206502000Y-151932169D01*
X206502000Y-149873966D01*
X210707457Y-149873966D01*
X210737765Y-150008446D01*
X210740845Y-150018275D01*
X210820970Y-150215603D01*
X210825613Y-150224794D01*
X210936894Y-150406388D01*
X210942977Y-150414699D01*
X211082413Y-150575667D01*
X211089780Y-150582883D01*
X211253634Y-150718916D01*
X211262081Y-150724831D01*
X211445956Y-150832279D01*
X211455242Y-150836729D01*
X211654201Y-150912703D01*
X211664099Y-150915579D01*
X211767450Y-150936606D01*
X211781499Y-150935410D01*
X211785200Y-150925065D01*
X211785200Y-150924517D01*
X212293200Y-150924517D01*
X212297264Y-150938359D01*
X212310678Y-150940393D01*
X212317384Y-150939534D01*
X212327462Y-150937392D01*
X212531455Y-150876191D01*
X212541042Y-150872433D01*
X212657491Y-150815385D01*
X243812000Y-150815385D01*
X243816475Y-150830624D01*
X243817865Y-150831829D01*
X243825548Y-150833500D01*
X244847885Y-150833500D01*
X244863124Y-150829025D01*
X244864329Y-150827635D01*
X244866000Y-150819952D01*
X244866000Y-150815385D01*
X245374000Y-150815385D01*
X245378475Y-150830624D01*
X245379865Y-150831829D01*
X245387548Y-150833500D01*
X247387885Y-150833500D01*
X247403124Y-150829025D01*
X247404329Y-150827635D01*
X247406000Y-150819952D01*
X247406000Y-150815385D01*
X247914000Y-150815385D01*
X247918475Y-150830624D01*
X247919865Y-150831829D01*
X247927548Y-150833500D01*
X249927885Y-150833500D01*
X249943124Y-150829025D01*
X249944329Y-150827635D01*
X249946000Y-150819952D01*
X249946000Y-150815385D01*
X250454000Y-150815385D01*
X250458475Y-150830624D01*
X250459865Y-150831829D01*
X250467548Y-150833500D01*
X252467885Y-150833500D01*
X252483124Y-150829025D01*
X252484329Y-150827635D01*
X252486000Y-150819952D01*
X252486000Y-150815385D01*
X252994000Y-150815385D01*
X252998475Y-150830624D01*
X252999865Y-150831829D01*
X253007548Y-150833500D01*
X254007967Y-150833500D01*
X254021498Y-150829527D01*
X254022727Y-150820978D01*
X253975236Y-150643739D01*
X253971490Y-150633447D01*
X253879414Y-150435989D01*
X253873931Y-150426493D01*
X253748972Y-150248033D01*
X253741916Y-150239625D01*
X253587875Y-150085584D01*
X253579467Y-150078528D01*
X253401007Y-149953569D01*
X253391511Y-149948086D01*
X253194053Y-149856010D01*
X253183761Y-149852264D01*
X253011497Y-149806106D01*
X252997401Y-149806442D01*
X252994000Y-149814384D01*
X252994000Y-150815385D01*
X252486000Y-150815385D01*
X252486000Y-149819533D01*
X252482027Y-149806002D01*
X252473478Y-149804773D01*
X252296239Y-149852264D01*
X252285947Y-149856010D01*
X252088489Y-149948086D01*
X252078993Y-149953569D01*
X251900533Y-150078528D01*
X251892125Y-150085584D01*
X251738084Y-150239625D01*
X251731028Y-150248033D01*
X251606069Y-150426493D01*
X251600586Y-150435989D01*
X251584195Y-150471141D01*
X251537278Y-150524426D01*
X251469001Y-150543887D01*
X251401041Y-150523345D01*
X251355805Y-150471141D01*
X251339414Y-150435989D01*
X251333931Y-150426493D01*
X251208972Y-150248033D01*
X251201916Y-150239625D01*
X251047875Y-150085584D01*
X251039467Y-150078528D01*
X250861007Y-149953569D01*
X250851511Y-149948086D01*
X250654053Y-149856010D01*
X250643761Y-149852264D01*
X250471497Y-149806106D01*
X250457401Y-149806442D01*
X250454000Y-149814384D01*
X250454000Y-150815385D01*
X249946000Y-150815385D01*
X249946000Y-149819533D01*
X249942027Y-149806002D01*
X249933478Y-149804773D01*
X249756239Y-149852264D01*
X249745947Y-149856010D01*
X249548489Y-149948086D01*
X249538993Y-149953569D01*
X249360533Y-150078528D01*
X249352125Y-150085584D01*
X249198084Y-150239625D01*
X249191028Y-150248033D01*
X249066069Y-150426493D01*
X249060586Y-150435989D01*
X249044195Y-150471141D01*
X248997278Y-150524426D01*
X248929001Y-150543887D01*
X248861041Y-150523345D01*
X248815805Y-150471141D01*
X248799414Y-150435989D01*
X248793931Y-150426493D01*
X248668972Y-150248033D01*
X248661916Y-150239625D01*
X248507875Y-150085584D01*
X248499467Y-150078528D01*
X248321007Y-149953569D01*
X248311511Y-149948086D01*
X248114053Y-149856010D01*
X248103761Y-149852264D01*
X247931497Y-149806106D01*
X247917401Y-149806442D01*
X247914000Y-149814384D01*
X247914000Y-150815385D01*
X247406000Y-150815385D01*
X247406000Y-149819533D01*
X247402027Y-149806002D01*
X247393478Y-149804773D01*
X247216239Y-149852264D01*
X247205947Y-149856010D01*
X247008489Y-149948086D01*
X246998993Y-149953569D01*
X246820533Y-150078528D01*
X246812125Y-150085584D01*
X246658084Y-150239625D01*
X246647493Y-150252246D01*
X246646643Y-150251532D01*
X246595578Y-150292348D01*
X246524959Y-150299656D01*
X246461599Y-150267623D01*
X246425615Y-150206421D01*
X246422562Y-150189355D01*
X246422105Y-150185147D01*
X246418479Y-150169896D01*
X246373324Y-150049446D01*
X246364786Y-150033851D01*
X246288285Y-149931776D01*
X246275724Y-149919215D01*
X246173649Y-149842714D01*
X246158054Y-149834176D01*
X246037606Y-149789022D01*
X246022351Y-149785395D01*
X245971486Y-149779869D01*
X245964672Y-149779500D01*
X245392115Y-149779500D01*
X245376876Y-149783975D01*
X245375671Y-149785365D01*
X245374000Y-149793048D01*
X245374000Y-150815385D01*
X244866000Y-150815385D01*
X244866000Y-149797616D01*
X244861525Y-149782377D01*
X244860135Y-149781172D01*
X244852452Y-149779501D01*
X244275331Y-149779501D01*
X244268510Y-149779871D01*
X244217648Y-149785395D01*
X244202396Y-149789021D01*
X244081946Y-149834176D01*
X244066351Y-149842714D01*
X243964276Y-149919215D01*
X243951715Y-149931776D01*
X243875214Y-150033851D01*
X243866676Y-150049446D01*
X243821522Y-150169894D01*
X243817895Y-150185149D01*
X243812369Y-150236014D01*
X243812000Y-150242828D01*
X243812000Y-150815385D01*
X212657491Y-150815385D01*
X212732295Y-150778739D01*
X212741145Y-150773464D01*
X212914528Y-150649792D01*
X212922400Y-150643139D01*
X213073252Y-150492812D01*
X213079930Y-150484965D01*
X213204203Y-150312020D01*
X213209513Y-150303183D01*
X213303870Y-150112267D01*
X213307669Y-150102672D01*
X213369577Y-149898910D01*
X213371755Y-149888837D01*
X213373186Y-149877962D01*
X213370975Y-149863778D01*
X213357817Y-149860000D01*
X212311315Y-149860000D01*
X212296076Y-149864475D01*
X212294871Y-149865865D01*
X212293200Y-149873548D01*
X212293200Y-150924517D01*
X211785200Y-150924517D01*
X211785200Y-149878115D01*
X211780725Y-149862876D01*
X211779335Y-149861671D01*
X211771652Y-149860000D01*
X210722425Y-149860000D01*
X210708894Y-149863973D01*
X210707457Y-149873966D01*
X206502000Y-149873966D01*
X206502000Y-147032695D01*
X210676451Y-147032695D01*
X210676748Y-147037848D01*
X210676748Y-147037851D01*
X210689012Y-147250547D01*
X210689310Y-147255715D01*
X210690447Y-147260761D01*
X210690448Y-147260767D01*
X210706623Y-147332539D01*
X210738422Y-147473639D01*
X210822466Y-147680616D01*
X210939187Y-147871088D01*
X211085450Y-148039938D01*
X211257326Y-148182632D01*
X211331155Y-148225774D01*
X211379879Y-148277412D01*
X211392950Y-148347195D01*
X211366219Y-148412967D01*
X211325762Y-148446327D01*
X211317657Y-148450546D01*
X211308938Y-148456036D01*
X211138633Y-148583905D01*
X211130926Y-148590748D01*
X210983790Y-148744717D01*
X210977304Y-148752727D01*
X210857298Y-148928649D01*
X210852200Y-148937623D01*
X210762538Y-149130783D01*
X210758975Y-149140470D01*
X210703589Y-149340183D01*
X210705112Y-149348607D01*
X210717492Y-149352000D01*
X213357544Y-149352000D01*
X213371075Y-149348027D01*
X213372380Y-149338947D01*
X213330414Y-149171875D01*
X213327094Y-149162124D01*
X213242172Y-148966814D01*
X213237305Y-148957739D01*
X213121626Y-148778926D01*
X213115336Y-148770757D01*
X212972006Y-148613240D01*
X212964473Y-148606215D01*
X212797339Y-148474222D01*
X212788756Y-148468520D01*
X212751802Y-148448120D01*
X212701831Y-148397687D01*
X212687059Y-148328245D01*
X212712175Y-148261839D01*
X212739527Y-148235232D01*
X212762997Y-148218491D01*
X212919060Y-148107173D01*
X213077296Y-147949489D01*
X213087654Y-147935075D01*
X213091588Y-147929600D01*
X217226884Y-147929600D01*
X217245314Y-148140255D01*
X217300044Y-148344510D01*
X217302366Y-148349491D01*
X217302367Y-148349492D01*
X217360530Y-148474222D01*
X217389411Y-148536158D01*
X217510699Y-148709376D01*
X217660224Y-148858901D01*
X217833442Y-148980189D01*
X217838420Y-148982510D01*
X217838423Y-148982512D01*
X218020108Y-149067233D01*
X218025090Y-149069556D01*
X218030398Y-149070978D01*
X218030400Y-149070979D01*
X218224030Y-149122862D01*
X218224032Y-149122862D01*
X218229345Y-149124286D01*
X218440000Y-149142716D01*
X218650655Y-149124286D01*
X218655968Y-149122862D01*
X218655970Y-149122862D01*
X218849600Y-149070979D01*
X218849602Y-149070978D01*
X218854910Y-149069556D01*
X218859892Y-149067233D01*
X219041577Y-148982512D01*
X219041580Y-148982510D01*
X219046558Y-148980189D01*
X219219776Y-148858901D01*
X219369301Y-148709376D01*
X219490589Y-148536158D01*
X219519471Y-148474222D01*
X219577633Y-148349492D01*
X219577634Y-148349491D01*
X219579956Y-148344510D01*
X219634686Y-148140255D01*
X219653116Y-147929600D01*
X224846884Y-147929600D01*
X224865314Y-148140255D01*
X224920044Y-148344510D01*
X224922366Y-148349491D01*
X224922367Y-148349492D01*
X224980530Y-148474222D01*
X225009411Y-148536158D01*
X225130699Y-148709376D01*
X225280224Y-148858901D01*
X225453442Y-148980189D01*
X225458420Y-148982510D01*
X225458423Y-148982512D01*
X225640108Y-149067233D01*
X225645090Y-149069556D01*
X225650398Y-149070978D01*
X225650400Y-149070979D01*
X225844030Y-149122862D01*
X225844032Y-149122862D01*
X225849345Y-149124286D01*
X226060000Y-149142716D01*
X226270655Y-149124286D01*
X226275968Y-149122862D01*
X226275970Y-149122862D01*
X226469600Y-149070979D01*
X226469602Y-149070978D01*
X226474910Y-149069556D01*
X226479892Y-149067233D01*
X226661577Y-148982512D01*
X226661580Y-148982510D01*
X226666558Y-148980189D01*
X226839776Y-148858901D01*
X226989301Y-148709376D01*
X227110589Y-148536158D01*
X227139471Y-148474222D01*
X227197633Y-148349492D01*
X227197634Y-148349491D01*
X227199956Y-148344510D01*
X227254686Y-148140255D01*
X227273116Y-147929600D01*
X227254686Y-147718945D01*
X227199956Y-147514690D01*
X227195036Y-147504138D01*
X227112912Y-147328023D01*
X227112910Y-147328020D01*
X227110589Y-147323042D01*
X226989301Y-147149824D01*
X226839776Y-147000299D01*
X226666558Y-146879011D01*
X226661580Y-146876690D01*
X226661577Y-146876688D01*
X226479892Y-146791967D01*
X226479891Y-146791966D01*
X226474910Y-146789644D01*
X226469602Y-146788222D01*
X226469600Y-146788221D01*
X226275970Y-146736338D01*
X226275968Y-146736338D01*
X226270655Y-146734914D01*
X226060000Y-146716484D01*
X225849345Y-146734914D01*
X225844032Y-146736338D01*
X225844030Y-146736338D01*
X225650400Y-146788221D01*
X225650398Y-146788222D01*
X225645090Y-146789644D01*
X225640109Y-146791966D01*
X225640108Y-146791967D01*
X225458423Y-146876688D01*
X225458420Y-146876690D01*
X225453442Y-146879011D01*
X225280224Y-147000299D01*
X225130699Y-147149824D01*
X225009411Y-147323042D01*
X225007090Y-147328020D01*
X225007088Y-147328023D01*
X224924964Y-147504138D01*
X224920044Y-147514690D01*
X224865314Y-147718945D01*
X224846884Y-147929600D01*
X219653116Y-147929600D01*
X219634686Y-147718945D01*
X219579956Y-147514690D01*
X219575036Y-147504138D01*
X219492912Y-147328023D01*
X219492910Y-147328020D01*
X219490589Y-147323042D01*
X219369301Y-147149824D01*
X219219776Y-147000299D01*
X219046558Y-146879011D01*
X219041580Y-146876690D01*
X219041577Y-146876688D01*
X218859892Y-146791967D01*
X218859891Y-146791966D01*
X218854910Y-146789644D01*
X218849602Y-146788222D01*
X218849600Y-146788221D01*
X218655970Y-146736338D01*
X218655968Y-146736338D01*
X218650655Y-146734914D01*
X218440000Y-146716484D01*
X218229345Y-146734914D01*
X218224032Y-146736338D01*
X218224030Y-146736338D01*
X218030400Y-146788221D01*
X218030398Y-146788222D01*
X218025090Y-146789644D01*
X218020109Y-146791966D01*
X218020108Y-146791967D01*
X217838423Y-146876688D01*
X217838420Y-146876690D01*
X217833442Y-146879011D01*
X217660224Y-147000299D01*
X217510699Y-147149824D01*
X217389411Y-147323042D01*
X217387090Y-147328020D01*
X217387088Y-147328023D01*
X217304964Y-147504138D01*
X217300044Y-147514690D01*
X217245314Y-147718945D01*
X217226884Y-147929600D01*
X213091588Y-147929600D01*
X213204635Y-147772277D01*
X213207653Y-147768077D01*
X213231936Y-147718945D01*
X213304336Y-147572453D01*
X213304337Y-147572451D01*
X213306630Y-147567811D01*
X213371570Y-147354069D01*
X213400729Y-147132590D01*
X213402356Y-147066000D01*
X213384052Y-146843361D01*
X213329631Y-146626702D01*
X213240554Y-146421840D01*
X213119214Y-146234277D01*
X213115732Y-146230450D01*
X212971998Y-146072488D01*
X212940946Y-146008642D01*
X212949341Y-145938143D01*
X212994517Y-145883375D01*
X213020961Y-145869706D01*
X213127497Y-145829767D01*
X213135905Y-145826615D01*
X213252461Y-145739261D01*
X213339815Y-145622705D01*
X213390945Y-145486316D01*
X213397700Y-145424134D01*
X213397700Y-143627866D01*
X213390945Y-143565684D01*
X213339815Y-143429295D01*
X213252461Y-143312739D01*
X213135905Y-143225385D01*
X212999516Y-143174255D01*
X212937334Y-143167500D01*
X211141066Y-143167500D01*
X211078884Y-143174255D01*
X210942495Y-143225385D01*
X210825939Y-143312739D01*
X210738585Y-143429295D01*
X210687455Y-143565684D01*
X210680700Y-143627866D01*
X210680700Y-145424134D01*
X210687455Y-145486316D01*
X210738585Y-145622705D01*
X210825939Y-145739261D01*
X210942495Y-145826615D01*
X210950904Y-145829767D01*
X210950905Y-145829768D01*
X211059651Y-145870535D01*
X211116416Y-145913176D01*
X211141116Y-145979738D01*
X211125909Y-146049087D01*
X211106516Y-146075568D01*
X210979829Y-146208138D01*
X210853943Y-146392680D01*
X210759888Y-146595305D01*
X210700189Y-146810570D01*
X210676451Y-147032695D01*
X206502000Y-147032695D01*
X206502000Y-142240000D01*
X217226884Y-142240000D01*
X217245314Y-142450655D01*
X217300044Y-142654910D01*
X217389411Y-142846558D01*
X217510699Y-143019776D01*
X217660224Y-143169301D01*
X217833442Y-143290589D01*
X217838420Y-143292910D01*
X217838423Y-143292912D01*
X217896340Y-143319919D01*
X218025090Y-143379956D01*
X218030398Y-143381378D01*
X218030400Y-143381379D01*
X218224030Y-143433262D01*
X218224032Y-143433262D01*
X218229345Y-143434686D01*
X218440000Y-143453116D01*
X218650655Y-143434686D01*
X218655968Y-143433262D01*
X218655970Y-143433262D01*
X218849600Y-143381379D01*
X218849602Y-143381378D01*
X218854910Y-143379956D01*
X218983660Y-143319919D01*
X219041577Y-143292912D01*
X219041580Y-143292910D01*
X219046558Y-143290589D01*
X219219776Y-143169301D01*
X219369301Y-143019776D01*
X219490589Y-142846558D01*
X219579956Y-142654910D01*
X219634686Y-142450655D01*
X219653116Y-142240000D01*
X224846884Y-142240000D01*
X224865314Y-142450655D01*
X224920044Y-142654910D01*
X225009411Y-142846558D01*
X225130699Y-143019776D01*
X225280224Y-143169301D01*
X225453442Y-143290589D01*
X225458420Y-143292910D01*
X225458423Y-143292912D01*
X225516340Y-143319919D01*
X225645090Y-143379956D01*
X225650398Y-143381378D01*
X225650400Y-143381379D01*
X225844030Y-143433262D01*
X225844032Y-143433262D01*
X225849345Y-143434686D01*
X226060000Y-143453116D01*
X226270655Y-143434686D01*
X226275968Y-143433262D01*
X226275970Y-143433262D01*
X226469600Y-143381379D01*
X226469602Y-143381378D01*
X226474910Y-143379956D01*
X226603660Y-143319919D01*
X226661577Y-143292912D01*
X226661580Y-143292910D01*
X226666558Y-143290589D01*
X226839776Y-143169301D01*
X226989301Y-143019776D01*
X227110589Y-142846558D01*
X227199956Y-142654910D01*
X227254686Y-142450655D01*
X227273116Y-142240000D01*
X227254686Y-142029345D01*
X227199956Y-141825090D01*
X227146377Y-141710190D01*
X227112912Y-141638423D01*
X227112910Y-141638420D01*
X227110589Y-141633442D01*
X226989301Y-141460224D01*
X226839776Y-141310699D01*
X226666558Y-141189411D01*
X226661580Y-141187090D01*
X226661577Y-141187088D01*
X226479892Y-141102367D01*
X226479891Y-141102366D01*
X226474910Y-141100044D01*
X226469602Y-141098622D01*
X226469600Y-141098621D01*
X226275970Y-141046738D01*
X226275968Y-141046738D01*
X226270655Y-141045314D01*
X226060000Y-141026884D01*
X225849345Y-141045314D01*
X225844032Y-141046738D01*
X225844030Y-141046738D01*
X225650400Y-141098621D01*
X225650398Y-141098622D01*
X225645090Y-141100044D01*
X225640109Y-141102366D01*
X225640108Y-141102367D01*
X225458423Y-141187088D01*
X225458420Y-141187090D01*
X225453442Y-141189411D01*
X225280224Y-141310699D01*
X225130699Y-141460224D01*
X225009411Y-141633442D01*
X225007090Y-141638420D01*
X225007088Y-141638423D01*
X224973623Y-141710190D01*
X224920044Y-141825090D01*
X224865314Y-142029345D01*
X224846884Y-142240000D01*
X219653116Y-142240000D01*
X219634686Y-142029345D01*
X219579956Y-141825090D01*
X219526377Y-141710190D01*
X219492912Y-141638423D01*
X219492910Y-141638420D01*
X219490589Y-141633442D01*
X219369301Y-141460224D01*
X219219776Y-141310699D01*
X219046558Y-141189411D01*
X219041580Y-141187090D01*
X219041577Y-141187088D01*
X218859892Y-141102367D01*
X218859891Y-141102366D01*
X218854910Y-141100044D01*
X218849602Y-141098622D01*
X218849600Y-141098621D01*
X218655970Y-141046738D01*
X218655968Y-141046738D01*
X218650655Y-141045314D01*
X218440000Y-141026884D01*
X218229345Y-141045314D01*
X218224032Y-141046738D01*
X218224030Y-141046738D01*
X218030400Y-141098621D01*
X218030398Y-141098622D01*
X218025090Y-141100044D01*
X218020109Y-141102366D01*
X218020108Y-141102367D01*
X217838423Y-141187088D01*
X217838420Y-141187090D01*
X217833442Y-141189411D01*
X217660224Y-141310699D01*
X217510699Y-141460224D01*
X217389411Y-141633442D01*
X217387090Y-141638420D01*
X217387088Y-141638423D01*
X217353623Y-141710190D01*
X217300044Y-141825090D01*
X217245314Y-142029345D01*
X217226884Y-142240000D01*
X206502000Y-142240000D01*
X206502000Y-121920000D01*
X208236502Y-121920000D01*
X208256457Y-122148087D01*
X208257881Y-122153400D01*
X208257881Y-122153402D01*
X208264496Y-122178087D01*
X208315716Y-122369243D01*
X208318039Y-122374224D01*
X208318039Y-122374225D01*
X208410151Y-122571762D01*
X208410154Y-122571767D01*
X208412477Y-122576749D01*
X208543802Y-122764300D01*
X208705700Y-122926198D01*
X208710208Y-122929355D01*
X208710211Y-122929357D01*
X208773812Y-122973891D01*
X208893251Y-123057523D01*
X208898236Y-123059847D01*
X208902300Y-123062194D01*
X208951293Y-123113576D01*
X208965300Y-123171313D01*
X208965300Y-127512221D01*
X208964222Y-127528667D01*
X208960255Y-127558800D01*
X208965300Y-127597121D01*
X208980350Y-127711437D01*
X209013268Y-127790908D01*
X209039266Y-127853673D01*
X209048021Y-127865082D01*
X209048022Y-127865086D01*
X209048023Y-127865085D01*
X209132987Y-127975813D01*
X209139533Y-127980836D01*
X209139536Y-127980839D01*
X209157109Y-127994323D01*
X209169501Y-128005191D01*
X217227082Y-136062773D01*
X217261108Y-136125085D01*
X217259693Y-136184480D01*
X217246739Y-136232823D01*
X217246738Y-136232830D01*
X217245314Y-136238145D01*
X217226884Y-136448800D01*
X217245314Y-136659455D01*
X217300044Y-136863710D01*
X217389411Y-137055358D01*
X217510699Y-137228576D01*
X217660224Y-137378101D01*
X217833442Y-137499389D01*
X217838420Y-137501710D01*
X217838423Y-137501712D01*
X218020108Y-137586433D01*
X218025090Y-137588756D01*
X218030398Y-137590178D01*
X218030400Y-137590179D01*
X218224030Y-137642062D01*
X218224032Y-137642062D01*
X218229345Y-137643486D01*
X218440000Y-137661916D01*
X218650655Y-137643486D01*
X218655968Y-137642062D01*
X218655970Y-137642062D01*
X218849600Y-137590179D01*
X218849602Y-137590178D01*
X218854910Y-137588756D01*
X218859892Y-137586433D01*
X219041577Y-137501712D01*
X219041580Y-137501710D01*
X219046558Y-137499389D01*
X219219776Y-137378101D01*
X219369301Y-137228576D01*
X219490589Y-137055358D01*
X219579956Y-136863710D01*
X219634686Y-136659455D01*
X219653116Y-136448800D01*
X224846884Y-136448800D01*
X224865314Y-136659455D01*
X224920044Y-136863710D01*
X225009411Y-137055358D01*
X225130699Y-137228576D01*
X225280224Y-137378101D01*
X225453442Y-137499389D01*
X225458420Y-137501710D01*
X225458423Y-137501712D01*
X225640108Y-137586433D01*
X225645090Y-137588756D01*
X225650398Y-137590178D01*
X225650400Y-137590179D01*
X225844030Y-137642062D01*
X225844032Y-137642062D01*
X225849345Y-137643486D01*
X226060000Y-137661916D01*
X226270655Y-137643486D01*
X226275968Y-137642062D01*
X226275970Y-137642062D01*
X226469600Y-137590179D01*
X226469602Y-137590178D01*
X226474910Y-137588756D01*
X226479892Y-137586433D01*
X226661577Y-137501712D01*
X226661580Y-137501710D01*
X226666558Y-137499389D01*
X226839776Y-137378101D01*
X226989301Y-137228576D01*
X227110589Y-137055358D01*
X227199956Y-136863710D01*
X227254686Y-136659455D01*
X227273116Y-136448800D01*
X227254686Y-136238145D01*
X227253260Y-136232823D01*
X227201379Y-136039200D01*
X227201378Y-136039198D01*
X227199956Y-136033890D01*
X227110589Y-135842242D01*
X226989301Y-135669024D01*
X226839776Y-135519499D01*
X226666558Y-135398211D01*
X226661580Y-135395890D01*
X226661577Y-135395888D01*
X226479892Y-135311167D01*
X226479891Y-135311166D01*
X226474910Y-135308844D01*
X226469602Y-135307422D01*
X226469600Y-135307421D01*
X226275970Y-135255538D01*
X226275968Y-135255538D01*
X226270655Y-135254114D01*
X226060000Y-135235684D01*
X225849345Y-135254114D01*
X225844032Y-135255538D01*
X225844030Y-135255538D01*
X225650400Y-135307421D01*
X225650398Y-135307422D01*
X225645090Y-135308844D01*
X225640109Y-135311166D01*
X225640108Y-135311167D01*
X225458423Y-135395888D01*
X225458420Y-135395890D01*
X225453442Y-135398211D01*
X225280224Y-135519499D01*
X225130699Y-135669024D01*
X225009411Y-135842242D01*
X224920044Y-136033890D01*
X224918622Y-136039198D01*
X224918621Y-136039200D01*
X224866740Y-136232823D01*
X224865314Y-136238145D01*
X224846884Y-136448800D01*
X219653116Y-136448800D01*
X219634686Y-136238145D01*
X219633260Y-136232823D01*
X219581379Y-136039200D01*
X219581378Y-136039198D01*
X219579956Y-136033890D01*
X219490589Y-135842242D01*
X219369301Y-135669024D01*
X219219776Y-135519499D01*
X219046558Y-135398211D01*
X219041580Y-135395890D01*
X219041577Y-135395888D01*
X218859892Y-135311167D01*
X218859891Y-135311166D01*
X218854910Y-135308844D01*
X218849602Y-135307422D01*
X218849600Y-135307421D01*
X218655970Y-135255538D01*
X218655968Y-135255538D01*
X218650655Y-135254114D01*
X218440000Y-135235684D01*
X218229345Y-135254114D01*
X218224034Y-135255537D01*
X218224023Y-135255539D01*
X218175680Y-135268493D01*
X218104704Y-135266804D01*
X218053973Y-135235882D01*
X211176685Y-128358595D01*
X211142659Y-128296283D01*
X211147724Y-128225468D01*
X211190271Y-128168632D01*
X211256791Y-128143821D01*
X211265780Y-128143500D01*
X219134622Y-128143500D01*
X219151069Y-128144578D01*
X219181200Y-128148545D01*
X219211331Y-128144578D01*
X219227778Y-128143500D01*
X234374622Y-128143500D01*
X234391069Y-128144578D01*
X234421200Y-128148545D01*
X234451331Y-128144578D01*
X234467778Y-128143500D01*
X234960955Y-128143500D01*
X235029076Y-128163502D01*
X235075569Y-128217158D01*
X235085673Y-128287432D01*
X235080790Y-128308428D01*
X235072458Y-128334072D01*
X235071768Y-128340633D01*
X235071768Y-128340635D01*
X235053186Y-128517435D01*
X235052496Y-128524000D01*
X235072458Y-128713928D01*
X235131473Y-128895556D01*
X235226960Y-129060944D01*
X235231378Y-129065851D01*
X235231379Y-129065852D01*
X235350325Y-129197955D01*
X235354747Y-129202866D01*
X235509248Y-129315118D01*
X235515276Y-129317802D01*
X235515278Y-129317803D01*
X235677681Y-129390109D01*
X235683712Y-129392794D01*
X235777113Y-129412647D01*
X235864056Y-129431128D01*
X235864061Y-129431128D01*
X235870513Y-129432500D01*
X236061487Y-129432500D01*
X236067939Y-129431128D01*
X236067944Y-129431128D01*
X236154887Y-129412647D01*
X236248288Y-129392794D01*
X236254319Y-129390109D01*
X236416722Y-129317803D01*
X236416724Y-129317802D01*
X236422752Y-129315118D01*
X236577253Y-129202866D01*
X236624504Y-129150388D01*
X236684947Y-129113150D01*
X236718138Y-129108700D01*
X237865415Y-129108700D01*
X237933536Y-129128702D01*
X237980029Y-129182358D01*
X237990133Y-129252632D01*
X237960639Y-129317212D01*
X237939479Y-129336634D01*
X237894747Y-129369134D01*
X237766960Y-129511056D01*
X237671473Y-129676444D01*
X237612458Y-129858072D01*
X237592496Y-130048000D01*
X237612458Y-130237928D01*
X237671473Y-130419556D01*
X237766960Y-130584944D01*
X237841088Y-130667271D01*
X237888936Y-130720412D01*
X237919653Y-130784419D01*
X237921300Y-130804722D01*
X237921300Y-138435278D01*
X237901298Y-138503399D01*
X237888937Y-138519587D01*
X237766960Y-138655056D01*
X237671473Y-138820444D01*
X237612458Y-139002072D01*
X237592496Y-139192000D01*
X237612458Y-139381928D01*
X237671473Y-139563556D01*
X237766960Y-139728944D01*
X237894747Y-139870866D01*
X238049248Y-139983118D01*
X238055276Y-139985802D01*
X238055278Y-139985803D01*
X238217681Y-140058109D01*
X238223712Y-140060794D01*
X238317112Y-140080647D01*
X238404056Y-140099128D01*
X238404061Y-140099128D01*
X238410513Y-140100500D01*
X238601487Y-140100500D01*
X238607939Y-140099128D01*
X238607944Y-140099128D01*
X238694888Y-140080647D01*
X238788288Y-140060794D01*
X238794319Y-140058109D01*
X238956722Y-139985803D01*
X238956724Y-139985802D01*
X238962752Y-139983118D01*
X239117253Y-139870866D01*
X239245040Y-139728944D01*
X239340527Y-139563556D01*
X239399542Y-139381928D01*
X239419504Y-139192000D01*
X239399542Y-139002072D01*
X239340527Y-138820444D01*
X239245040Y-138655056D01*
X239123064Y-138519588D01*
X239092347Y-138455581D01*
X239090700Y-138435278D01*
X239090700Y-130804722D01*
X239110702Y-130736601D01*
X239123064Y-130720412D01*
X239170913Y-130667271D01*
X239245040Y-130584944D01*
X239340527Y-130419556D01*
X239399542Y-130237928D01*
X239419504Y-130048000D01*
X239399542Y-129858072D01*
X239340527Y-129676444D01*
X239245040Y-129511056D01*
X239117253Y-129369134D01*
X239072522Y-129336635D01*
X239029170Y-129280413D01*
X239023095Y-129209677D01*
X239056227Y-129146885D01*
X239118047Y-129111974D01*
X239146585Y-129108700D01*
X258518444Y-129108700D01*
X258534891Y-129109778D01*
X258565022Y-129113745D01*
X258603341Y-129108700D01*
X258603346Y-129108700D01*
X258709471Y-129094728D01*
X258717659Y-129093650D01*
X258818235Y-129051990D01*
X258859895Y-129034734D01*
X258911372Y-128995234D01*
X258982035Y-128941013D01*
X258987061Y-128934463D01*
X258987065Y-128934459D01*
X259000545Y-128916891D01*
X259011413Y-128904499D01*
X264794503Y-123121409D01*
X264806895Y-123110541D01*
X264831013Y-123092035D01*
X264837746Y-123083261D01*
X264873337Y-123036877D01*
X264930675Y-122995010D01*
X265001546Y-122990788D01*
X265063449Y-123025552D01*
X265096730Y-123088264D01*
X265099300Y-123113581D01*
X265099300Y-123149620D01*
X265079298Y-123217741D01*
X265062395Y-123238715D01*
X247279497Y-141021613D01*
X247267105Y-141032481D01*
X247251005Y-141044835D01*
X247242987Y-141050987D01*
X247205345Y-141100044D01*
X247149266Y-141173127D01*
X247149266Y-141173128D01*
X247090350Y-141315363D01*
X247075300Y-141429679D01*
X247070255Y-141468000D01*
X247071333Y-141476188D01*
X247074222Y-141498133D01*
X247075300Y-141514579D01*
X247075300Y-142216187D01*
X247055298Y-142284308D01*
X247012300Y-142325306D01*
X247008236Y-142327653D01*
X247003251Y-142329977D01*
X246923876Y-142385556D01*
X246820211Y-142458143D01*
X246820208Y-142458145D01*
X246815700Y-142461302D01*
X246653802Y-142623200D01*
X246522477Y-142810751D01*
X246520154Y-142815733D01*
X246520151Y-142815738D01*
X246504195Y-142849957D01*
X246457278Y-142903242D01*
X246389001Y-142922703D01*
X246321041Y-142902161D01*
X246275805Y-142849957D01*
X246259849Y-142815738D01*
X246259846Y-142815733D01*
X246257523Y-142810751D01*
X246126198Y-142623200D01*
X245964300Y-142461302D01*
X245959792Y-142458145D01*
X245959789Y-142458143D01*
X245856124Y-142385556D01*
X245776749Y-142329977D01*
X245771764Y-142327653D01*
X245767700Y-142325306D01*
X245718707Y-142273924D01*
X245704700Y-142216187D01*
X245704700Y-131047616D01*
X245724702Y-130979495D01*
X245737064Y-130963306D01*
X245844621Y-130843852D01*
X245844622Y-130843851D01*
X245849040Y-130838944D01*
X245944527Y-130673556D01*
X246003542Y-130491928D01*
X246023504Y-130302000D01*
X246003542Y-130112072D01*
X245944527Y-129930444D01*
X245849040Y-129765056D01*
X245769254Y-129676444D01*
X245725675Y-129628045D01*
X245725674Y-129628044D01*
X245721253Y-129623134D01*
X245566752Y-129510882D01*
X245560724Y-129508198D01*
X245560722Y-129508197D01*
X245398319Y-129435891D01*
X245398318Y-129435891D01*
X245392288Y-129433206D01*
X245298888Y-129413353D01*
X245211944Y-129394872D01*
X245211939Y-129394872D01*
X245205487Y-129393500D01*
X245014513Y-129393500D01*
X245008061Y-129394872D01*
X245008056Y-129394872D01*
X244921112Y-129413353D01*
X244827712Y-129433206D01*
X244821682Y-129435891D01*
X244821681Y-129435891D01*
X244659278Y-129508197D01*
X244659276Y-129508198D01*
X244653248Y-129510882D01*
X244498747Y-129623134D01*
X244494326Y-129628044D01*
X244494325Y-129628045D01*
X244450747Y-129676444D01*
X244370960Y-129765056D01*
X244275473Y-129930444D01*
X244216458Y-130112072D01*
X244196496Y-130302000D01*
X244216458Y-130491928D01*
X244275473Y-130673556D01*
X244370960Y-130838944D01*
X244375378Y-130843851D01*
X244375379Y-130843852D01*
X244498747Y-130980866D01*
X244497645Y-130981859D01*
X244530851Y-131035761D01*
X244535300Y-131068948D01*
X244535300Y-142216187D01*
X244515298Y-142284308D01*
X244472300Y-142325306D01*
X244468236Y-142327653D01*
X244463251Y-142329977D01*
X244383876Y-142385556D01*
X244280211Y-142458143D01*
X244280208Y-142458145D01*
X244275700Y-142461302D01*
X244113802Y-142623200D01*
X243982477Y-142810751D01*
X243980154Y-142815733D01*
X243980151Y-142815738D01*
X243965780Y-142846558D01*
X243885716Y-143018257D01*
X243884294Y-143023565D01*
X243884293Y-143023567D01*
X243827881Y-143234098D01*
X243826457Y-143239413D01*
X243806502Y-143467500D01*
X243826457Y-143695587D01*
X243885716Y-143916743D01*
X243888039Y-143921724D01*
X243888039Y-143921725D01*
X243980151Y-144119262D01*
X243980154Y-144119267D01*
X243982477Y-144124249D01*
X244113802Y-144311800D01*
X244275700Y-144473698D01*
X244280208Y-144476855D01*
X244280211Y-144476857D01*
X244358389Y-144531598D01*
X244463251Y-144605023D01*
X244468233Y-144607346D01*
X244468238Y-144607349D01*
X244665775Y-144699461D01*
X244670757Y-144701784D01*
X244676065Y-144703206D01*
X244676067Y-144703207D01*
X244886598Y-144759619D01*
X244886600Y-144759619D01*
X244891913Y-144761043D01*
X245120000Y-144780998D01*
X245348087Y-144761043D01*
X245353400Y-144759619D01*
X245353402Y-144759619D01*
X245563933Y-144703207D01*
X245563935Y-144703206D01*
X245569243Y-144701784D01*
X245574225Y-144699461D01*
X245771762Y-144607349D01*
X245771767Y-144607346D01*
X245776749Y-144605023D01*
X245881611Y-144531598D01*
X245959789Y-144476857D01*
X245959792Y-144476855D01*
X245964300Y-144473698D01*
X246126198Y-144311800D01*
X246257523Y-144124249D01*
X246259846Y-144119267D01*
X246259849Y-144119262D01*
X246275805Y-144085043D01*
X246322722Y-144031758D01*
X246390999Y-144012297D01*
X246458959Y-144032839D01*
X246504195Y-144085043D01*
X246520151Y-144119262D01*
X246520154Y-144119267D01*
X246522477Y-144124249D01*
X246653802Y-144311800D01*
X246815700Y-144473698D01*
X246820208Y-144476855D01*
X246820211Y-144476857D01*
X246898389Y-144531598D01*
X247003251Y-144605023D01*
X247008233Y-144607346D01*
X247008238Y-144607349D01*
X247205775Y-144699461D01*
X247210757Y-144701784D01*
X247216065Y-144703206D01*
X247216067Y-144703207D01*
X247426598Y-144759619D01*
X247426600Y-144759619D01*
X247431913Y-144761043D01*
X247660000Y-144780998D01*
X247888087Y-144761043D01*
X247893400Y-144759619D01*
X247893402Y-144759619D01*
X248103933Y-144703207D01*
X248103935Y-144703206D01*
X248109243Y-144701784D01*
X248114225Y-144699461D01*
X248311762Y-144607349D01*
X248311767Y-144607346D01*
X248316749Y-144605023D01*
X248421611Y-144531598D01*
X248499789Y-144476857D01*
X248499792Y-144476855D01*
X248504300Y-144473698D01*
X248666198Y-144311800D01*
X248797523Y-144124249D01*
X248799846Y-144119267D01*
X248799849Y-144119262D01*
X248815805Y-144085043D01*
X248862722Y-144031758D01*
X248930999Y-144012297D01*
X248998959Y-144032839D01*
X249044195Y-144085043D01*
X249060151Y-144119262D01*
X249060154Y-144119267D01*
X249062477Y-144124249D01*
X249193802Y-144311800D01*
X249355700Y-144473698D01*
X249360208Y-144476855D01*
X249360211Y-144476857D01*
X249438389Y-144531598D01*
X249543251Y-144605023D01*
X249548233Y-144607346D01*
X249548238Y-144607349D01*
X249745775Y-144699461D01*
X249750757Y-144701784D01*
X249756065Y-144703206D01*
X249756067Y-144703207D01*
X249966598Y-144759619D01*
X249966600Y-144759619D01*
X249971913Y-144761043D01*
X250200000Y-144780998D01*
X250428087Y-144761043D01*
X250433400Y-144759619D01*
X250433402Y-144759619D01*
X250643933Y-144703207D01*
X250643935Y-144703206D01*
X250649243Y-144701784D01*
X250654225Y-144699461D01*
X250851762Y-144607349D01*
X250851767Y-144607346D01*
X250856749Y-144605023D01*
X250961611Y-144531598D01*
X251039789Y-144476857D01*
X251039792Y-144476855D01*
X251044300Y-144473698D01*
X251206198Y-144311800D01*
X251337523Y-144124249D01*
X251339846Y-144119267D01*
X251339849Y-144119262D01*
X251355805Y-144085043D01*
X251402722Y-144031758D01*
X251470999Y-144012297D01*
X251538959Y-144032839D01*
X251584195Y-144085043D01*
X251600151Y-144119262D01*
X251600154Y-144119267D01*
X251602477Y-144124249D01*
X251733802Y-144311800D01*
X251895700Y-144473698D01*
X251900208Y-144476855D01*
X251900211Y-144476857D01*
X251978389Y-144531598D01*
X252083251Y-144605023D01*
X252088233Y-144607346D01*
X252088238Y-144607349D01*
X252285775Y-144699461D01*
X252290757Y-144701784D01*
X252296065Y-144703206D01*
X252296067Y-144703207D01*
X252506598Y-144759619D01*
X252506600Y-144759619D01*
X252511913Y-144761043D01*
X252740000Y-144780998D01*
X252968087Y-144761043D01*
X252973400Y-144759619D01*
X252973402Y-144759619D01*
X253183933Y-144703207D01*
X253183935Y-144703206D01*
X253189243Y-144701784D01*
X253194225Y-144699461D01*
X253391762Y-144607349D01*
X253391767Y-144607346D01*
X253396749Y-144605023D01*
X253501611Y-144531598D01*
X253579789Y-144476857D01*
X253579792Y-144476855D01*
X253584300Y-144473698D01*
X253746198Y-144311800D01*
X253877523Y-144124249D01*
X253879846Y-144119267D01*
X253879849Y-144119262D01*
X253971961Y-143921725D01*
X253971961Y-143921724D01*
X253974284Y-143916743D01*
X254033543Y-143695587D01*
X254053498Y-143467500D01*
X254033543Y-143239413D01*
X254032119Y-143234098D01*
X253975707Y-143023567D01*
X253975706Y-143023565D01*
X253974284Y-143018257D01*
X253894220Y-142846558D01*
X253879849Y-142815738D01*
X253879846Y-142815733D01*
X253877523Y-142810751D01*
X253746198Y-142623200D01*
X253584300Y-142461302D01*
X253579792Y-142458145D01*
X253579789Y-142458143D01*
X253501611Y-142403402D01*
X253396749Y-142329977D01*
X253391767Y-142327654D01*
X253391762Y-142327651D01*
X253194225Y-142235539D01*
X253194224Y-142235539D01*
X253189243Y-142233216D01*
X253183935Y-142231794D01*
X253183933Y-142231793D01*
X252973402Y-142175381D01*
X252973400Y-142175381D01*
X252968087Y-142173957D01*
X252740000Y-142154002D01*
X252511913Y-142173957D01*
X252506600Y-142175381D01*
X252506598Y-142175381D01*
X252296067Y-142231793D01*
X252296065Y-142231794D01*
X252290757Y-142233216D01*
X252285776Y-142235539D01*
X252285775Y-142235539D01*
X252088238Y-142327651D01*
X252088233Y-142327654D01*
X252083251Y-142329977D01*
X251978389Y-142403402D01*
X251900211Y-142458143D01*
X251900208Y-142458145D01*
X251895700Y-142461302D01*
X251733802Y-142623200D01*
X251602477Y-142810751D01*
X251600154Y-142815733D01*
X251600151Y-142815738D01*
X251584195Y-142849957D01*
X251537278Y-142903242D01*
X251469001Y-142922703D01*
X251401041Y-142902161D01*
X251355805Y-142849957D01*
X251339849Y-142815738D01*
X251339846Y-142815733D01*
X251337523Y-142810751D01*
X251206198Y-142623200D01*
X251044300Y-142461302D01*
X251039792Y-142458145D01*
X251039789Y-142458143D01*
X250961611Y-142403402D01*
X250856749Y-142329977D01*
X250851767Y-142327654D01*
X250851762Y-142327651D01*
X250654225Y-142235539D01*
X250654224Y-142235539D01*
X250649243Y-142233216D01*
X250643935Y-142231794D01*
X250643933Y-142231793D01*
X250433402Y-142175381D01*
X250433400Y-142175381D01*
X250428087Y-142173957D01*
X250200000Y-142154002D01*
X249971913Y-142173957D01*
X249966600Y-142175381D01*
X249966598Y-142175381D01*
X249756067Y-142231793D01*
X249756065Y-142231794D01*
X249750757Y-142233216D01*
X249745776Y-142235539D01*
X249745775Y-142235539D01*
X249548238Y-142327651D01*
X249548233Y-142327654D01*
X249543251Y-142329977D01*
X249438389Y-142403402D01*
X249360211Y-142458143D01*
X249360208Y-142458145D01*
X249355700Y-142461302D01*
X249193802Y-142623200D01*
X249062477Y-142810751D01*
X249060154Y-142815733D01*
X249060151Y-142815738D01*
X249044195Y-142849957D01*
X248997278Y-142903242D01*
X248929001Y-142922703D01*
X248861041Y-142902161D01*
X248815805Y-142849957D01*
X248799849Y-142815738D01*
X248799846Y-142815733D01*
X248797523Y-142810751D01*
X248666198Y-142623200D01*
X248504300Y-142461302D01*
X248499792Y-142458145D01*
X248499789Y-142458143D01*
X248396124Y-142385556D01*
X248316749Y-142329977D01*
X248311764Y-142327653D01*
X248307700Y-142325306D01*
X248258707Y-142273924D01*
X248244700Y-142216187D01*
X248244700Y-141762380D01*
X248264702Y-141694259D01*
X248281605Y-141673285D01*
X266064503Y-123890387D01*
X266076895Y-123879519D01*
X266094463Y-123866039D01*
X266101013Y-123861013D01*
X266160577Y-123783386D01*
X266194734Y-123738873D01*
X266219138Y-123679957D01*
X266253650Y-123596637D01*
X266268700Y-123482321D01*
X266268700Y-123482319D01*
X266273745Y-123444000D01*
X266269778Y-123413867D01*
X266268700Y-123397421D01*
X266268700Y-114630586D01*
X266269778Y-114614139D01*
X266272668Y-114592188D01*
X266273746Y-114584000D01*
X266253650Y-114431363D01*
X266194734Y-114289127D01*
X266124543Y-114197652D01*
X266124542Y-114197651D01*
X266101013Y-114166987D01*
X266076893Y-114148479D01*
X266064503Y-114137612D01*
X265140256Y-113213365D01*
X264184567Y-112257677D01*
X264150543Y-112195366D01*
X264151956Y-112135972D01*
X264182119Y-112023402D01*
X264182119Y-112023400D01*
X264183543Y-112018087D01*
X264203498Y-111790000D01*
X264183543Y-111561913D01*
X264175505Y-111531914D01*
X264125707Y-111346067D01*
X264125706Y-111346065D01*
X264124284Y-111340757D01*
X264096717Y-111281639D01*
X264029849Y-111138238D01*
X264029846Y-111138233D01*
X264027523Y-111133251D01*
X263909191Y-110964256D01*
X263899357Y-110950211D01*
X263899355Y-110950208D01*
X263896198Y-110945700D01*
X263734300Y-110783802D01*
X263729792Y-110780645D01*
X263729789Y-110780643D01*
X263600483Y-110690102D01*
X263546749Y-110652477D01*
X263541767Y-110650154D01*
X263541762Y-110650151D01*
X263507543Y-110634195D01*
X263454258Y-110587278D01*
X263434797Y-110519001D01*
X263455339Y-110451041D01*
X263507543Y-110405805D01*
X263541762Y-110389849D01*
X263541767Y-110389846D01*
X263546749Y-110387523D01*
X263651611Y-110314098D01*
X263729789Y-110259357D01*
X263729792Y-110259355D01*
X263734300Y-110256198D01*
X263896198Y-110094300D01*
X263900054Y-110088794D01*
X264024366Y-109911257D01*
X264027523Y-109906749D01*
X264029846Y-109901767D01*
X264029849Y-109901762D01*
X264121961Y-109704225D01*
X264121961Y-109704224D01*
X264124284Y-109699243D01*
X264133746Y-109663933D01*
X264182119Y-109483402D01*
X264182120Y-109483399D01*
X264183543Y-109478087D01*
X264203498Y-109250000D01*
X264183543Y-109021913D01*
X264176973Y-108997393D01*
X264125707Y-108806067D01*
X264125706Y-108806065D01*
X264124284Y-108800757D01*
X264072066Y-108688774D01*
X264029849Y-108598238D01*
X264029846Y-108598233D01*
X264027523Y-108593251D01*
X263915148Y-108432763D01*
X263899357Y-108410211D01*
X263899355Y-108410208D01*
X263896198Y-108405700D01*
X263734300Y-108243802D01*
X263729792Y-108240645D01*
X263729789Y-108240643D01*
X263651611Y-108185902D01*
X263546749Y-108112477D01*
X263541767Y-108110154D01*
X263541762Y-108110151D01*
X263506951Y-108093919D01*
X263453666Y-108047002D01*
X263434205Y-107978725D01*
X263454747Y-107910765D01*
X263506951Y-107865529D01*
X263541511Y-107849414D01*
X263551006Y-107843931D01*
X263603048Y-107807491D01*
X263611424Y-107797012D01*
X263604356Y-107783566D01*
X262902812Y-107082022D01*
X262888868Y-107074408D01*
X262887035Y-107074539D01*
X262880420Y-107078790D01*
X262174923Y-107784287D01*
X262168493Y-107796062D01*
X262177789Y-107808077D01*
X262228994Y-107843931D01*
X262238489Y-107849414D01*
X262273049Y-107865529D01*
X262326334Y-107912446D01*
X262345795Y-107980723D01*
X262325253Y-108048683D01*
X262273049Y-108093919D01*
X262238238Y-108110151D01*
X262238233Y-108110154D01*
X262233251Y-108112477D01*
X262128389Y-108185902D01*
X262050211Y-108240643D01*
X262050208Y-108240645D01*
X262045700Y-108243802D01*
X261883802Y-108405700D01*
X261880645Y-108410208D01*
X261880643Y-108410211D01*
X261864852Y-108432763D01*
X261752477Y-108593251D01*
X261750154Y-108598233D01*
X261750151Y-108598238D01*
X261707934Y-108688774D01*
X261655716Y-108800757D01*
X261654294Y-108806065D01*
X261654293Y-108806067D01*
X261603027Y-108997393D01*
X261596457Y-109021913D01*
X261576502Y-109250000D01*
X261596457Y-109478087D01*
X261597880Y-109483399D01*
X261597881Y-109483402D01*
X261646255Y-109663933D01*
X261655716Y-109699243D01*
X261658039Y-109704224D01*
X261658039Y-109704225D01*
X261750151Y-109901762D01*
X261750154Y-109901767D01*
X261752477Y-109906749D01*
X261755634Y-109911257D01*
X261879947Y-110088794D01*
X261883802Y-110094300D01*
X262045700Y-110256198D01*
X262050208Y-110259355D01*
X262050211Y-110259357D01*
X262128389Y-110314098D01*
X262233251Y-110387523D01*
X262238233Y-110389846D01*
X262238238Y-110389849D01*
X262272457Y-110405805D01*
X262325742Y-110452722D01*
X262345203Y-110520999D01*
X262324661Y-110588959D01*
X262272457Y-110634195D01*
X262238238Y-110650151D01*
X262238233Y-110650154D01*
X262233251Y-110652477D01*
X262179517Y-110690102D01*
X262050211Y-110780643D01*
X262050208Y-110780645D01*
X262045700Y-110783802D01*
X261883802Y-110945700D01*
X261880645Y-110950208D01*
X261880643Y-110950211D01*
X261870809Y-110964256D01*
X261752477Y-111133251D01*
X261750154Y-111138233D01*
X261750151Y-111138238D01*
X261683283Y-111281639D01*
X261655716Y-111340757D01*
X261654294Y-111346065D01*
X261654293Y-111346067D01*
X261604495Y-111531914D01*
X261596457Y-111561913D01*
X261576502Y-111790000D01*
X261596457Y-112018087D01*
X261597881Y-112023400D01*
X261597881Y-112023402D01*
X261647936Y-112210206D01*
X261655716Y-112239243D01*
X261658039Y-112244224D01*
X261658039Y-112244225D01*
X261750151Y-112441762D01*
X261750154Y-112441767D01*
X261752477Y-112446749D01*
X261797978Y-112511731D01*
X261879578Y-112628267D01*
X261883802Y-112634300D01*
X262045700Y-112796198D01*
X262050208Y-112799355D01*
X262050211Y-112799357D01*
X262078470Y-112819144D01*
X262233251Y-112927523D01*
X262238233Y-112929846D01*
X262238238Y-112929849D01*
X262272457Y-112945805D01*
X262325742Y-112992722D01*
X262345203Y-113060999D01*
X262324661Y-113128959D01*
X262272457Y-113174195D01*
X262238238Y-113190151D01*
X262238233Y-113190154D01*
X262233251Y-113192477D01*
X262176954Y-113231897D01*
X262050211Y-113320643D01*
X262050208Y-113320645D01*
X262045700Y-113323802D01*
X261883802Y-113485700D01*
X261880645Y-113490208D01*
X261880643Y-113490211D01*
X261852914Y-113529812D01*
X261752477Y-113673251D01*
X261750154Y-113678233D01*
X261750151Y-113678238D01*
X261684162Y-113819754D01*
X261655716Y-113880757D01*
X261654294Y-113886065D01*
X261654293Y-113886067D01*
X261603027Y-114077393D01*
X261596457Y-114101913D01*
X261576502Y-114330000D01*
X261596457Y-114558087D01*
X261597880Y-114563399D01*
X261597881Y-114563402D01*
X261647063Y-114746948D01*
X261655716Y-114779243D01*
X261658039Y-114784224D01*
X261658039Y-114784225D01*
X261750151Y-114981762D01*
X261750154Y-114981767D01*
X261752477Y-114986749D01*
X261755634Y-114991257D01*
X261879578Y-115168267D01*
X261883802Y-115174300D01*
X262045700Y-115336198D01*
X262050208Y-115339355D01*
X262050211Y-115339357D01*
X262078470Y-115359144D01*
X262233251Y-115467523D01*
X262238233Y-115469846D01*
X262238238Y-115469849D01*
X262272457Y-115485805D01*
X262325742Y-115532722D01*
X262345203Y-115600999D01*
X262324661Y-115668959D01*
X262272457Y-115714195D01*
X262238238Y-115730151D01*
X262238233Y-115730154D01*
X262233251Y-115732477D01*
X262128389Y-115805902D01*
X262050211Y-115860643D01*
X262050208Y-115860645D01*
X262045700Y-115863802D01*
X261883802Y-116025700D01*
X261752477Y-116213251D01*
X261750154Y-116218233D01*
X261750151Y-116218238D01*
X261672028Y-116385775D01*
X261655716Y-116420757D01*
X261654294Y-116426065D01*
X261654293Y-116426067D01*
X261603027Y-116617393D01*
X261596457Y-116641913D01*
X261576502Y-116870000D01*
X261596457Y-117098087D01*
X261597881Y-117103400D01*
X261597881Y-117103402D01*
X261646255Y-117283933D01*
X261655716Y-117319243D01*
X261658039Y-117324224D01*
X261658039Y-117324225D01*
X261750151Y-117521762D01*
X261750154Y-117521767D01*
X261752477Y-117526749D01*
X261797978Y-117591731D01*
X261879947Y-117708794D01*
X261883802Y-117714300D01*
X262045700Y-117876198D01*
X262050208Y-117879355D01*
X262050211Y-117879357D01*
X262113188Y-117923454D01*
X262233251Y-118007523D01*
X262238233Y-118009846D01*
X262238238Y-118009849D01*
X262272457Y-118025805D01*
X262325742Y-118072722D01*
X262345203Y-118140999D01*
X262324661Y-118208959D01*
X262272457Y-118254195D01*
X262238238Y-118270151D01*
X262238233Y-118270154D01*
X262233251Y-118272477D01*
X262157271Y-118325679D01*
X262050211Y-118400643D01*
X262050208Y-118400645D01*
X262045700Y-118403802D01*
X261883802Y-118565700D01*
X261880645Y-118570208D01*
X261880643Y-118570211D01*
X261849305Y-118614966D01*
X261752477Y-118753251D01*
X261750154Y-118758233D01*
X261750151Y-118758238D01*
X261688621Y-118890191D01*
X261655716Y-118960757D01*
X261654294Y-118966065D01*
X261654293Y-118966067D01*
X261603027Y-119157393D01*
X261596457Y-119181913D01*
X261576502Y-119410000D01*
X261596457Y-119638087D01*
X261637290Y-119790477D01*
X261635600Y-119861451D01*
X261595806Y-119920247D01*
X261530542Y-119948195D01*
X261499136Y-119948008D01*
X261482699Y-119945844D01*
X261474511Y-119944766D01*
X261466323Y-119945844D01*
X261444378Y-119948733D01*
X261427932Y-119949811D01*
X256644223Y-119949811D01*
X256576102Y-119929809D01*
X256529609Y-119876153D01*
X256519505Y-119805879D01*
X256522516Y-119791199D01*
X256563543Y-119638087D01*
X256583498Y-119410000D01*
X256563543Y-119181913D01*
X256555505Y-119151913D01*
X256531956Y-119064029D01*
X256533646Y-118993053D01*
X256564568Y-118942323D01*
X257428507Y-118078384D01*
X257440899Y-118067516D01*
X257458463Y-118054039D01*
X257465013Y-118049013D01*
X257496849Y-118007523D01*
X257558734Y-117926873D01*
X257617650Y-117784637D01*
X257637746Y-117632000D01*
X257633778Y-117601862D01*
X257632700Y-117585415D01*
X257632700Y-108534586D01*
X257633778Y-108518139D01*
X257636668Y-108496188D01*
X257637746Y-108488000D01*
X257617650Y-108335363D01*
X257558734Y-108193127D01*
X257488543Y-108101652D01*
X257488542Y-108101651D01*
X257465013Y-108070987D01*
X257456162Y-108064195D01*
X257440894Y-108052480D01*
X257428503Y-108041612D01*
X256564568Y-107177677D01*
X256530542Y-107115365D01*
X256531956Y-107055971D01*
X256562119Y-106943402D01*
X256562120Y-106943399D01*
X256563543Y-106938087D01*
X256574769Y-106809775D01*
X256600633Y-106743657D01*
X256658136Y-106702018D01*
X256729023Y-106698077D01*
X256789385Y-106731662D01*
X258928031Y-108870308D01*
X258962057Y-108932620D01*
X258958768Y-108998341D01*
X258948458Y-109030072D01*
X258928496Y-109220000D01*
X258929186Y-109226565D01*
X258932225Y-109255475D01*
X258948458Y-109409928D01*
X259007473Y-109591556D01*
X259102960Y-109756944D01*
X259107378Y-109761851D01*
X259107379Y-109761852D01*
X259219384Y-109886246D01*
X259230747Y-109898866D01*
X259385248Y-110011118D01*
X259391276Y-110013802D01*
X259391278Y-110013803D01*
X259504697Y-110064300D01*
X259559712Y-110088794D01*
X259653113Y-110108647D01*
X259740056Y-110127128D01*
X259740061Y-110127128D01*
X259746513Y-110128500D01*
X259937487Y-110128500D01*
X259943939Y-110127128D01*
X259943944Y-110127128D01*
X260030887Y-110108647D01*
X260124288Y-110088794D01*
X260179303Y-110064300D01*
X260292722Y-110013803D01*
X260292724Y-110013802D01*
X260298752Y-110011118D01*
X260453253Y-109898866D01*
X260464616Y-109886246D01*
X260576621Y-109761852D01*
X260576622Y-109761851D01*
X260581040Y-109756944D01*
X260676527Y-109591556D01*
X260735542Y-109409928D01*
X260751776Y-109255475D01*
X260754814Y-109226565D01*
X260755504Y-109220000D01*
X260735542Y-109030072D01*
X260676527Y-108848444D01*
X260646119Y-108795775D01*
X260584341Y-108688774D01*
X260581040Y-108683056D01*
X260512880Y-108607356D01*
X260457675Y-108546045D01*
X260457674Y-108546044D01*
X260453253Y-108541134D01*
X260336236Y-108456116D01*
X260304094Y-108432763D01*
X260304093Y-108432762D01*
X260298752Y-108428882D01*
X260292724Y-108426198D01*
X260292722Y-108426197D01*
X260130319Y-108353891D01*
X260130318Y-108353891D01*
X260124288Y-108351206D01*
X260082594Y-108342344D01*
X260019697Y-108308192D01*
X258426980Y-106715475D01*
X261577483Y-106715475D01*
X261596472Y-106932519D01*
X261598375Y-106943312D01*
X261654764Y-107153761D01*
X261658510Y-107164053D01*
X261750586Y-107361511D01*
X261756069Y-107371006D01*
X261792509Y-107423048D01*
X261802988Y-107431424D01*
X261816434Y-107424356D01*
X262517978Y-106722812D01*
X262524356Y-106711132D01*
X263254408Y-106711132D01*
X263254539Y-106712965D01*
X263258790Y-106719580D01*
X263964287Y-107425077D01*
X263976062Y-107431507D01*
X263988077Y-107422211D01*
X264023931Y-107371006D01*
X264029414Y-107361511D01*
X264121490Y-107164053D01*
X264125236Y-107153761D01*
X264181625Y-106943312D01*
X264183528Y-106932519D01*
X264202517Y-106715475D01*
X264202517Y-106704525D01*
X264183528Y-106487481D01*
X264181625Y-106476688D01*
X264125236Y-106266239D01*
X264121490Y-106255947D01*
X264029414Y-106058489D01*
X264023931Y-106048994D01*
X263987491Y-105996952D01*
X263977012Y-105988576D01*
X263963566Y-105995644D01*
X263262022Y-106697188D01*
X263254408Y-106711132D01*
X262524356Y-106711132D01*
X262525592Y-106708868D01*
X262525461Y-106707035D01*
X262521210Y-106700420D01*
X261815713Y-105994923D01*
X261803938Y-105988493D01*
X261791923Y-105997789D01*
X261756069Y-106048994D01*
X261750586Y-106058489D01*
X261658510Y-106255947D01*
X261654764Y-106266239D01*
X261598375Y-106476688D01*
X261596472Y-106487481D01*
X261577483Y-106704525D01*
X261577483Y-106715475D01*
X258426980Y-106715475D01*
X257334493Y-105622988D01*
X262168576Y-105622988D01*
X262175644Y-105636434D01*
X262877188Y-106337978D01*
X262891132Y-106345592D01*
X262892965Y-106345461D01*
X262899580Y-106341210D01*
X263605077Y-105635713D01*
X263611507Y-105623938D01*
X263602211Y-105611923D01*
X263551006Y-105576069D01*
X263541511Y-105570586D01*
X263344053Y-105478510D01*
X263333761Y-105474764D01*
X263123312Y-105418375D01*
X263112519Y-105416472D01*
X262895475Y-105397483D01*
X262884525Y-105397483D01*
X262667481Y-105416472D01*
X262656688Y-105418375D01*
X262446239Y-105474764D01*
X262435947Y-105478510D01*
X262238489Y-105570586D01*
X262228994Y-105576069D01*
X262176952Y-105612509D01*
X262168576Y-105622988D01*
X257334493Y-105622988D01*
X251661001Y-99949497D01*
X251650133Y-99937105D01*
X251636653Y-99919537D01*
X251631627Y-99912987D01*
X251554000Y-99853423D01*
X251509487Y-99819266D01*
X251467827Y-99802010D01*
X251367251Y-99760350D01*
X251359063Y-99759272D01*
X251252938Y-99745300D01*
X251252933Y-99745300D01*
X251214614Y-99740255D01*
X251206426Y-99741333D01*
X251184481Y-99744222D01*
X251168035Y-99745300D01*
X234432138Y-99745300D01*
X234364017Y-99725298D01*
X234338507Y-99703615D01*
X234291253Y-99651134D01*
X234136752Y-99538882D01*
X234130724Y-99536198D01*
X234130722Y-99536197D01*
X233968319Y-99463891D01*
X233968318Y-99463891D01*
X233962288Y-99461206D01*
X233868887Y-99441353D01*
X233781944Y-99422872D01*
X233781939Y-99422872D01*
X233775487Y-99421500D01*
X233584513Y-99421500D01*
X233578061Y-99422872D01*
X233578056Y-99422872D01*
X233491113Y-99441353D01*
X233397712Y-99461206D01*
X233391682Y-99463891D01*
X233391681Y-99463891D01*
X233229278Y-99536197D01*
X233229276Y-99536198D01*
X233223248Y-99538882D01*
X233068747Y-99651134D01*
X233064326Y-99656044D01*
X233064325Y-99656045D01*
X232970409Y-99760350D01*
X232940960Y-99793056D01*
X232927653Y-99816104D01*
X232850639Y-99949497D01*
X232845473Y-99958444D01*
X232786458Y-100140072D01*
X232766496Y-100330000D01*
X232786458Y-100519928D01*
X232845473Y-100701556D01*
X232848776Y-100707278D01*
X232848777Y-100707279D01*
X232882686Y-100766010D01*
X232940960Y-100866944D01*
X232945378Y-100871851D01*
X232945379Y-100871852D01*
X233017189Y-100951605D01*
X233068747Y-101008866D01*
X233223248Y-101121118D01*
X233229276Y-101123802D01*
X233229278Y-101123803D01*
X233391681Y-101196109D01*
X233397712Y-101198794D01*
X233491112Y-101218647D01*
X233578056Y-101237128D01*
X233578061Y-101237128D01*
X233584513Y-101238500D01*
X233775487Y-101238500D01*
X233781939Y-101237128D01*
X233781944Y-101237128D01*
X233868887Y-101218647D01*
X233962288Y-101198794D01*
X233968319Y-101196109D01*
X234130722Y-101123803D01*
X234130724Y-101123802D01*
X234136752Y-101121118D01*
X234291253Y-101008866D01*
X234338504Y-100956388D01*
X234398947Y-100919150D01*
X234432138Y-100914700D01*
X250920234Y-100914700D01*
X250988355Y-100934702D01*
X251009329Y-100951605D01*
X255248338Y-105190615D01*
X255282364Y-105252927D01*
X255277299Y-105323743D01*
X255234752Y-105380578D01*
X255170225Y-105405231D01*
X255135884Y-105408236D01*
X255041913Y-105416457D01*
X255036600Y-105417881D01*
X255036598Y-105417881D01*
X254826067Y-105474293D01*
X254826065Y-105474294D01*
X254820757Y-105475716D01*
X254815776Y-105478039D01*
X254815775Y-105478039D01*
X254618238Y-105570151D01*
X254618233Y-105570154D01*
X254613251Y-105572477D01*
X254556080Y-105612509D01*
X254430211Y-105700643D01*
X254430208Y-105700645D01*
X254425700Y-105703802D01*
X254263802Y-105865700D01*
X254132477Y-106053251D01*
X254130154Y-106058233D01*
X254130151Y-106058238D01*
X254063041Y-106202157D01*
X254016124Y-106255442D01*
X253947846Y-106274903D01*
X253879886Y-106254361D01*
X253859751Y-106238002D01*
X250273315Y-102651566D01*
X250262448Y-102639175D01*
X250248013Y-102620363D01*
X250242987Y-102613813D01*
X250211075Y-102589326D01*
X250211072Y-102589323D01*
X250115876Y-102516276D01*
X249967851Y-102454962D01*
X249959664Y-102453884D01*
X249959663Y-102453884D01*
X249948458Y-102452409D01*
X249917262Y-102448302D01*
X249848885Y-102439300D01*
X249848882Y-102439300D01*
X249848874Y-102439299D01*
X249817189Y-102435128D01*
X249809000Y-102434050D01*
X249777307Y-102438222D01*
X249760864Y-102439300D01*
X239338310Y-102439300D01*
X239270189Y-102419298D01*
X239244674Y-102397611D01*
X239223268Y-102373837D01*
X239223266Y-102373836D01*
X239218853Y-102368934D01*
X239064352Y-102256682D01*
X239058324Y-102253998D01*
X239058322Y-102253997D01*
X238895919Y-102181691D01*
X238895918Y-102181691D01*
X238889888Y-102179006D01*
X238796488Y-102159153D01*
X238709544Y-102140672D01*
X238709539Y-102140672D01*
X238703087Y-102139300D01*
X238512113Y-102139300D01*
X238505661Y-102140672D01*
X238505656Y-102140672D01*
X238418712Y-102159153D01*
X238325312Y-102179006D01*
X238319282Y-102181691D01*
X238319281Y-102181691D01*
X238156878Y-102253997D01*
X238156876Y-102253998D01*
X238150848Y-102256682D01*
X237996347Y-102368934D01*
X237868560Y-102510856D01*
X237773073Y-102676244D01*
X237714058Y-102857872D01*
X237694096Y-103047800D01*
X237714058Y-103237728D01*
X237773073Y-103419356D01*
X237868560Y-103584744D01*
X237872978Y-103589651D01*
X237872979Y-103589652D01*
X237970526Y-103697989D01*
X237996347Y-103726666D01*
X238150848Y-103838918D01*
X238156876Y-103841602D01*
X238156878Y-103841603D01*
X238319281Y-103913909D01*
X238325312Y-103916594D01*
X238418712Y-103936447D01*
X238505656Y-103954928D01*
X238505661Y-103954928D01*
X238512113Y-103956300D01*
X238703087Y-103956300D01*
X238709539Y-103954928D01*
X238709544Y-103954928D01*
X238796488Y-103936447D01*
X238889888Y-103916594D01*
X238895919Y-103913909D01*
X239058322Y-103841603D01*
X239058324Y-103841602D01*
X239064352Y-103838918D01*
X239218853Y-103726666D01*
X239244674Y-103697989D01*
X239305120Y-103660750D01*
X239338310Y-103656300D01*
X249504761Y-103656300D01*
X249572882Y-103676302D01*
X249593856Y-103693205D01*
X252871995Y-106971344D01*
X252906021Y-107033656D01*
X252908900Y-107060439D01*
X252908900Y-109474457D01*
X252888898Y-109542578D01*
X252835242Y-109589071D01*
X252764968Y-109599175D01*
X252722410Y-109584445D01*
X252720963Y-109583393D01*
X252714935Y-109580709D01*
X252714933Y-109580708D01*
X252552530Y-109508402D01*
X252552529Y-109508402D01*
X252546499Y-109505717D01*
X252441502Y-109483399D01*
X252366155Y-109467383D01*
X252366150Y-109467383D01*
X252359698Y-109466011D01*
X252168724Y-109466011D01*
X252162272Y-109467383D01*
X252162267Y-109467383D01*
X252086920Y-109483399D01*
X251981923Y-109505717D01*
X251975893Y-109508402D01*
X251975892Y-109508402D01*
X251813489Y-109580708D01*
X251813487Y-109580709D01*
X251807459Y-109583393D01*
X251802118Y-109587273D01*
X251802117Y-109587274D01*
X251752054Y-109623647D01*
X251652958Y-109695645D01*
X251605707Y-109748123D01*
X251545264Y-109785361D01*
X251512073Y-109789811D01*
X249024223Y-109789811D01*
X248956102Y-109769809D01*
X248909609Y-109716153D01*
X248899505Y-109645879D01*
X248902516Y-109631199D01*
X248943543Y-109478087D01*
X248963498Y-109250000D01*
X248943543Y-109021913D01*
X248936973Y-108997393D01*
X248885707Y-108806067D01*
X248885706Y-108806065D01*
X248884284Y-108800757D01*
X248832066Y-108688774D01*
X248789849Y-108598238D01*
X248789846Y-108598233D01*
X248787523Y-108593251D01*
X248675148Y-108432763D01*
X248659357Y-108410211D01*
X248659355Y-108410208D01*
X248656198Y-108405700D01*
X248494300Y-108243802D01*
X248489792Y-108240645D01*
X248489789Y-108240643D01*
X248411611Y-108185902D01*
X248306749Y-108112477D01*
X248301767Y-108110154D01*
X248301762Y-108110151D01*
X248266951Y-108093919D01*
X248213666Y-108047002D01*
X248194205Y-107978725D01*
X248214747Y-107910765D01*
X248266951Y-107865529D01*
X248301511Y-107849414D01*
X248311006Y-107843931D01*
X248363048Y-107807491D01*
X248371424Y-107797012D01*
X248364356Y-107783566D01*
X247662812Y-107082022D01*
X247648868Y-107074408D01*
X247647035Y-107074539D01*
X247640420Y-107078790D01*
X246934923Y-107784287D01*
X246928493Y-107796062D01*
X246937789Y-107808077D01*
X246988994Y-107843931D01*
X246998489Y-107849414D01*
X247033049Y-107865529D01*
X247086334Y-107912446D01*
X247105795Y-107980723D01*
X247085253Y-108048683D01*
X247033049Y-108093919D01*
X246998238Y-108110151D01*
X246998233Y-108110154D01*
X246993251Y-108112477D01*
X246888389Y-108185902D01*
X246810211Y-108240643D01*
X246810208Y-108240645D01*
X246805700Y-108243802D01*
X246643802Y-108405700D01*
X246640645Y-108410208D01*
X246640643Y-108410211D01*
X246624852Y-108432763D01*
X246512477Y-108593251D01*
X246510154Y-108598233D01*
X246510151Y-108598238D01*
X246467934Y-108688774D01*
X246415716Y-108800757D01*
X246414294Y-108806065D01*
X246414293Y-108806067D01*
X246363027Y-108997393D01*
X246356457Y-109021913D01*
X246336502Y-109250000D01*
X246356457Y-109478087D01*
X246397484Y-109631199D01*
X246395794Y-109702176D01*
X246356000Y-109760972D01*
X246290736Y-109788920D01*
X246275777Y-109789811D01*
X241404223Y-109789811D01*
X241336102Y-109769809D01*
X241289609Y-109716153D01*
X241279505Y-109645879D01*
X241282516Y-109631199D01*
X241323543Y-109478087D01*
X241343498Y-109250000D01*
X241323543Y-109021913D01*
X241316973Y-108997393D01*
X241265707Y-108806067D01*
X241265706Y-108806065D01*
X241264284Y-108800757D01*
X241212066Y-108688774D01*
X241169849Y-108598238D01*
X241169846Y-108598233D01*
X241167523Y-108593251D01*
X241055148Y-108432763D01*
X241039357Y-108410211D01*
X241039355Y-108410208D01*
X241036198Y-108405700D01*
X240874300Y-108243802D01*
X240869792Y-108240645D01*
X240869789Y-108240643D01*
X240791611Y-108185902D01*
X240686749Y-108112477D01*
X240681767Y-108110154D01*
X240681762Y-108110151D01*
X240647543Y-108094195D01*
X240594258Y-108047278D01*
X240574797Y-107979001D01*
X240595339Y-107911041D01*
X240647543Y-107865805D01*
X240681762Y-107849849D01*
X240681767Y-107849846D01*
X240686749Y-107847523D01*
X240803087Y-107766062D01*
X240869789Y-107719357D01*
X240869792Y-107719355D01*
X240874300Y-107716198D01*
X241036198Y-107554300D01*
X241057205Y-107524300D01*
X241164366Y-107371257D01*
X241167523Y-107366749D01*
X241169846Y-107361767D01*
X241169849Y-107361762D01*
X241261961Y-107164225D01*
X241261961Y-107164224D01*
X241264284Y-107159243D01*
X241273746Y-107123933D01*
X241322119Y-106943402D01*
X241322120Y-106943399D01*
X241323543Y-106938087D01*
X241343019Y-106715475D01*
X246337483Y-106715475D01*
X246356472Y-106932519D01*
X246358375Y-106943312D01*
X246414764Y-107153761D01*
X246418510Y-107164053D01*
X246510586Y-107361511D01*
X246516069Y-107371006D01*
X246552509Y-107423048D01*
X246562988Y-107431424D01*
X246576434Y-107424356D01*
X247277978Y-106722812D01*
X247284356Y-106711132D01*
X248014408Y-106711132D01*
X248014539Y-106712965D01*
X248018790Y-106719580D01*
X248724287Y-107425077D01*
X248736062Y-107431507D01*
X248748077Y-107422211D01*
X248783931Y-107371006D01*
X248789414Y-107361511D01*
X248881490Y-107164053D01*
X248885236Y-107153761D01*
X248941625Y-106943312D01*
X248943528Y-106932519D01*
X248962517Y-106715475D01*
X248962517Y-106704525D01*
X248943528Y-106487481D01*
X248941625Y-106476688D01*
X248885236Y-106266239D01*
X248881490Y-106255947D01*
X248789414Y-106058489D01*
X248783931Y-106048994D01*
X248747491Y-105996952D01*
X248737012Y-105988576D01*
X248723566Y-105995644D01*
X248022022Y-106697188D01*
X248014408Y-106711132D01*
X247284356Y-106711132D01*
X247285592Y-106708868D01*
X247285461Y-106707035D01*
X247281210Y-106700420D01*
X246575713Y-105994923D01*
X246563938Y-105988493D01*
X246551923Y-105997789D01*
X246516069Y-106048994D01*
X246510586Y-106058489D01*
X246418510Y-106255947D01*
X246414764Y-106266239D01*
X246358375Y-106476688D01*
X246356472Y-106487481D01*
X246337483Y-106704525D01*
X246337483Y-106715475D01*
X241343019Y-106715475D01*
X241343498Y-106710000D01*
X241323543Y-106481913D01*
X241322119Y-106476598D01*
X241265707Y-106266067D01*
X241265706Y-106266065D01*
X241264284Y-106260757D01*
X241169966Y-106058489D01*
X241169849Y-106058238D01*
X241169846Y-106058233D01*
X241167523Y-106053251D01*
X241036198Y-105865700D01*
X240874300Y-105703802D01*
X240869792Y-105700645D01*
X240869789Y-105700643D01*
X240758886Y-105622988D01*
X246928576Y-105622988D01*
X246935644Y-105636434D01*
X247637188Y-106337978D01*
X247651132Y-106345592D01*
X247652965Y-106345461D01*
X247659580Y-106341210D01*
X248365077Y-105635713D01*
X248371507Y-105623938D01*
X248362211Y-105611923D01*
X248311006Y-105576069D01*
X248301511Y-105570586D01*
X248104053Y-105478510D01*
X248093761Y-105474764D01*
X247883312Y-105418375D01*
X247872519Y-105416472D01*
X247655475Y-105397483D01*
X247644525Y-105397483D01*
X247427481Y-105416472D01*
X247416688Y-105418375D01*
X247206239Y-105474764D01*
X247195947Y-105478510D01*
X246998489Y-105570586D01*
X246988994Y-105576069D01*
X246936952Y-105612509D01*
X246928576Y-105622988D01*
X240758886Y-105622988D01*
X240743920Y-105612509D01*
X240686749Y-105572477D01*
X240681767Y-105570154D01*
X240681762Y-105570151D01*
X240484225Y-105478039D01*
X240484224Y-105478039D01*
X240479243Y-105475716D01*
X240473935Y-105474294D01*
X240473933Y-105474293D01*
X240263402Y-105417881D01*
X240263400Y-105417881D01*
X240258087Y-105416457D01*
X240030000Y-105396502D01*
X239801913Y-105416457D01*
X239796600Y-105417881D01*
X239796598Y-105417881D01*
X239586067Y-105474293D01*
X239586065Y-105474294D01*
X239580757Y-105475716D01*
X239575776Y-105478039D01*
X239575775Y-105478039D01*
X239378238Y-105570151D01*
X239378233Y-105570154D01*
X239373251Y-105572477D01*
X239316080Y-105612509D01*
X239190211Y-105700643D01*
X239190208Y-105700645D01*
X239185700Y-105703802D01*
X239023802Y-105865700D01*
X238892477Y-106053251D01*
X238890154Y-106058233D01*
X238890151Y-106058238D01*
X238890034Y-106058489D01*
X238795716Y-106260757D01*
X238794294Y-106266065D01*
X238794293Y-106266067D01*
X238737881Y-106476598D01*
X238736457Y-106481913D01*
X238716502Y-106710000D01*
X238736457Y-106938087D01*
X238737880Y-106943399D01*
X238737881Y-106943402D01*
X238786255Y-107123933D01*
X238795716Y-107159243D01*
X238798039Y-107164224D01*
X238798039Y-107164225D01*
X238890151Y-107361762D01*
X238890154Y-107361767D01*
X238892477Y-107366749D01*
X238895634Y-107371257D01*
X239002796Y-107524300D01*
X239023802Y-107554300D01*
X239185700Y-107716198D01*
X239190208Y-107719355D01*
X239190211Y-107719357D01*
X239256913Y-107766062D01*
X239373251Y-107847523D01*
X239378233Y-107849846D01*
X239378238Y-107849849D01*
X239412457Y-107865805D01*
X239465742Y-107912722D01*
X239485203Y-107980999D01*
X239464661Y-108048959D01*
X239412457Y-108094195D01*
X239378238Y-108110151D01*
X239378233Y-108110154D01*
X239373251Y-108112477D01*
X239268389Y-108185902D01*
X239190211Y-108240643D01*
X239190208Y-108240645D01*
X239185700Y-108243802D01*
X239023802Y-108405700D01*
X239020645Y-108410208D01*
X239020643Y-108410211D01*
X239004852Y-108432763D01*
X238892477Y-108593251D01*
X238890154Y-108598233D01*
X238890151Y-108598238D01*
X238847934Y-108688774D01*
X238795716Y-108800757D01*
X238794294Y-108806065D01*
X238794293Y-108806067D01*
X238743027Y-108997393D01*
X238736457Y-109021913D01*
X238716502Y-109250000D01*
X238736457Y-109478087D01*
X238777484Y-109631199D01*
X238775794Y-109702176D01*
X238736000Y-109760972D01*
X238670736Y-109788920D01*
X238655777Y-109789811D01*
X235710170Y-109789811D01*
X235642049Y-109769809D01*
X235621075Y-109752906D01*
X234620492Y-108752323D01*
X233493181Y-107625013D01*
X233459156Y-107562701D01*
X233464220Y-107491886D01*
X233479063Y-107463647D01*
X233543931Y-107371006D01*
X233549414Y-107361511D01*
X233641490Y-107164053D01*
X233645236Y-107153761D01*
X233701625Y-106943312D01*
X233703528Y-106932519D01*
X233722517Y-106715475D01*
X233722517Y-106704525D01*
X233703528Y-106487481D01*
X233701625Y-106476688D01*
X233645236Y-106266239D01*
X233641490Y-106255947D01*
X233549414Y-106058489D01*
X233543931Y-106048994D01*
X233507491Y-105996952D01*
X233497012Y-105988576D01*
X233483566Y-105995644D01*
X232499095Y-106980115D01*
X232436783Y-107014141D01*
X232365968Y-107009076D01*
X232320905Y-106980115D01*
X231335713Y-105994923D01*
X231323938Y-105988493D01*
X231311923Y-105997789D01*
X231276069Y-106048994D01*
X231270586Y-106058489D01*
X231178510Y-106255947D01*
X231174764Y-106266239D01*
X231118375Y-106476688D01*
X231116472Y-106487481D01*
X231097483Y-106704525D01*
X231097483Y-106715475D01*
X231116472Y-106932519D01*
X231118375Y-106943312D01*
X231158001Y-107091200D01*
X231156311Y-107162176D01*
X231116517Y-107220972D01*
X231051253Y-107248920D01*
X231036294Y-107249811D01*
X226164223Y-107249811D01*
X226096102Y-107229809D01*
X226049609Y-107176153D01*
X226039505Y-107105879D01*
X226042516Y-107091199D01*
X226083543Y-106938087D01*
X226103498Y-106710000D01*
X226083543Y-106481913D01*
X226082119Y-106476598D01*
X226025707Y-106266067D01*
X226025706Y-106266065D01*
X226024284Y-106260757D01*
X225929966Y-106058489D01*
X225929849Y-106058238D01*
X225929846Y-106058233D01*
X225927523Y-106053251D01*
X225796198Y-105865700D01*
X225634300Y-105703802D01*
X225629792Y-105700645D01*
X225629789Y-105700643D01*
X225518886Y-105622988D01*
X231688576Y-105622988D01*
X231695644Y-105636434D01*
X232397188Y-106337978D01*
X232411132Y-106345592D01*
X232412965Y-106345461D01*
X232419580Y-106341210D01*
X233125077Y-105635713D01*
X233131507Y-105623938D01*
X233122211Y-105611923D01*
X233071006Y-105576069D01*
X233061511Y-105570586D01*
X232864053Y-105478510D01*
X232853761Y-105474764D01*
X232643312Y-105418375D01*
X232632519Y-105416472D01*
X232415475Y-105397483D01*
X232404525Y-105397483D01*
X232187481Y-105416472D01*
X232176688Y-105418375D01*
X231966239Y-105474764D01*
X231955947Y-105478510D01*
X231758489Y-105570586D01*
X231748994Y-105576069D01*
X231696952Y-105612509D01*
X231688576Y-105622988D01*
X225518886Y-105622988D01*
X225503920Y-105612509D01*
X225446749Y-105572477D01*
X225441767Y-105570154D01*
X225441762Y-105570151D01*
X225244225Y-105478039D01*
X225244224Y-105478039D01*
X225239243Y-105475716D01*
X225233935Y-105474294D01*
X225233933Y-105474293D01*
X225023402Y-105417881D01*
X225023400Y-105417881D01*
X225018087Y-105416457D01*
X224790000Y-105396502D01*
X224561913Y-105416457D01*
X224556600Y-105417881D01*
X224556598Y-105417881D01*
X224346067Y-105474293D01*
X224346065Y-105474294D01*
X224340757Y-105475716D01*
X224335776Y-105478039D01*
X224335775Y-105478039D01*
X224138238Y-105570151D01*
X224138233Y-105570154D01*
X224133251Y-105572477D01*
X224076080Y-105612509D01*
X223950211Y-105700643D01*
X223950208Y-105700645D01*
X223945700Y-105703802D01*
X223783802Y-105865700D01*
X223652477Y-106053251D01*
X223650154Y-106058233D01*
X223650151Y-106058238D01*
X223650034Y-106058489D01*
X223555716Y-106260757D01*
X223554294Y-106266065D01*
X223554293Y-106266067D01*
X223497881Y-106476598D01*
X223496457Y-106481913D01*
X223476502Y-106710000D01*
X223496457Y-106938087D01*
X223537484Y-107091199D01*
X223535794Y-107162176D01*
X223496000Y-107220972D01*
X223430736Y-107248920D01*
X223415777Y-107249811D01*
X218602067Y-107249811D01*
X218585620Y-107248733D01*
X218563677Y-107245844D01*
X218555489Y-107244766D01*
X218547301Y-107245844D01*
X218539042Y-107245844D01*
X218539042Y-107242894D01*
X218482923Y-107234132D01*
X218429833Y-107186994D01*
X218410655Y-107118637D01*
X218414939Y-107087548D01*
X218461625Y-106913312D01*
X218463528Y-106902519D01*
X218482517Y-106685475D01*
X218482517Y-106674525D01*
X218463528Y-106457481D01*
X218461625Y-106446688D01*
X218405236Y-106236239D01*
X218401490Y-106225947D01*
X218309414Y-106028489D01*
X218303931Y-106018994D01*
X218267491Y-105966952D01*
X218257012Y-105958576D01*
X218243566Y-105965644D01*
X216454923Y-107754287D01*
X216448493Y-107766062D01*
X216457789Y-107778077D01*
X216508994Y-107813931D01*
X216518489Y-107819414D01*
X216553049Y-107835529D01*
X216606334Y-107882446D01*
X216625795Y-107950723D01*
X216605253Y-108018683D01*
X216553049Y-108063919D01*
X216518238Y-108080151D01*
X216518233Y-108080154D01*
X216513251Y-108082477D01*
X216473729Y-108110151D01*
X216330211Y-108210643D01*
X216330208Y-108210645D01*
X216325700Y-108213802D01*
X216163802Y-108375700D01*
X216160645Y-108380208D01*
X216160643Y-108380211D01*
X216126563Y-108428882D01*
X216032477Y-108563251D01*
X216030154Y-108568233D01*
X216030151Y-108568238D01*
X215978900Y-108678148D01*
X215935716Y-108770757D01*
X215934294Y-108776065D01*
X215934293Y-108776067D01*
X215877881Y-108986598D01*
X215876457Y-108991913D01*
X215856502Y-109220000D01*
X215876457Y-109448087D01*
X215877881Y-109453400D01*
X215877881Y-109453402D01*
X215929456Y-109645879D01*
X215935716Y-109669243D01*
X215938039Y-109674224D01*
X215938039Y-109674225D01*
X216030151Y-109871762D01*
X216030154Y-109871767D01*
X216032477Y-109876749D01*
X216056640Y-109911257D01*
X216128444Y-110013803D01*
X216163802Y-110064300D01*
X216325700Y-110226198D01*
X216330208Y-110229355D01*
X216330211Y-110229357D01*
X216362979Y-110252301D01*
X216513251Y-110357523D01*
X216518233Y-110359846D01*
X216518238Y-110359849D01*
X216552457Y-110375805D01*
X216605742Y-110422722D01*
X216625203Y-110490999D01*
X216604661Y-110558959D01*
X216552457Y-110604195D01*
X216518238Y-110620151D01*
X216518233Y-110620154D01*
X216513251Y-110622477D01*
X216465898Y-110655634D01*
X216330211Y-110750643D01*
X216330208Y-110750645D01*
X216325700Y-110753802D01*
X216163802Y-110915700D01*
X216160645Y-110920208D01*
X216160643Y-110920211D01*
X216129562Y-110964600D01*
X216032477Y-111103251D01*
X216030154Y-111108233D01*
X216030151Y-111108238D01*
X215957744Y-111263517D01*
X215935716Y-111310757D01*
X215934294Y-111316065D01*
X215934293Y-111316067D01*
X215877881Y-111526598D01*
X215876457Y-111531913D01*
X215856502Y-111760000D01*
X215876457Y-111988087D01*
X215877881Y-111993400D01*
X215877881Y-111993402D01*
X215931998Y-112195366D01*
X215935716Y-112209243D01*
X215938039Y-112214224D01*
X215938039Y-112214225D01*
X216030151Y-112411762D01*
X216030154Y-112411767D01*
X216032477Y-112416749D01*
X216056640Y-112451257D01*
X216149507Y-112583884D01*
X216163802Y-112604300D01*
X216325700Y-112766198D01*
X216330208Y-112769355D01*
X216330211Y-112769357D01*
X216408389Y-112824098D01*
X216513251Y-112897523D01*
X216518233Y-112899846D01*
X216518238Y-112899849D01*
X216552457Y-112915805D01*
X216605742Y-112962722D01*
X216625203Y-113030999D01*
X216604661Y-113098959D01*
X216552457Y-113144195D01*
X216518238Y-113160151D01*
X216518233Y-113160154D01*
X216513251Y-113162477D01*
X216473729Y-113190151D01*
X216330211Y-113290643D01*
X216330208Y-113290645D01*
X216325700Y-113293802D01*
X216163802Y-113455700D01*
X216160645Y-113460208D01*
X216160643Y-113460211D01*
X216139637Y-113490211D01*
X216032477Y-113643251D01*
X216030154Y-113648233D01*
X216030151Y-113648238D01*
X215946750Y-113827094D01*
X215935716Y-113850757D01*
X215934294Y-113856065D01*
X215934293Y-113856067D01*
X215891129Y-114017157D01*
X215876457Y-114071913D01*
X215856502Y-114300000D01*
X215876457Y-114528087D01*
X215877881Y-114533400D01*
X215877881Y-114533402D01*
X215929456Y-114725879D01*
X215935716Y-114749243D01*
X215938039Y-114754224D01*
X215938039Y-114754225D01*
X216030151Y-114951762D01*
X216030154Y-114951767D01*
X216032477Y-114956749D01*
X216056640Y-114991257D01*
X216149507Y-115123884D01*
X216163802Y-115144300D01*
X216325700Y-115306198D01*
X216330208Y-115309355D01*
X216330211Y-115309357D01*
X216408389Y-115364098D01*
X216513251Y-115437523D01*
X216518233Y-115439846D01*
X216518238Y-115439849D01*
X216552457Y-115455805D01*
X216605742Y-115502722D01*
X216625203Y-115570999D01*
X216604661Y-115638959D01*
X216552457Y-115684195D01*
X216518238Y-115700151D01*
X216518233Y-115700154D01*
X216513251Y-115702477D01*
X216473729Y-115730151D01*
X216330211Y-115830643D01*
X216330208Y-115830645D01*
X216325700Y-115833802D01*
X216163802Y-115995700D01*
X216160645Y-116000208D01*
X216160643Y-116000211D01*
X216129562Y-116044600D01*
X216032477Y-116183251D01*
X216030154Y-116188233D01*
X216030151Y-116188238D01*
X215962711Y-116332866D01*
X215935716Y-116390757D01*
X215934294Y-116396065D01*
X215934293Y-116396067D01*
X215911007Y-116482972D01*
X215876457Y-116611913D01*
X215856502Y-116840000D01*
X215876457Y-117068087D01*
X215877881Y-117073400D01*
X215877881Y-117073402D01*
X215913216Y-117205271D01*
X215935716Y-117289243D01*
X215938039Y-117294224D01*
X215938039Y-117294225D01*
X216030151Y-117491762D01*
X216030154Y-117491767D01*
X216032477Y-117496749D01*
X216056637Y-117531253D01*
X216128444Y-117633803D01*
X216163802Y-117684300D01*
X216325700Y-117846198D01*
X216330208Y-117849355D01*
X216330211Y-117849357D01*
X216408389Y-117904098D01*
X216513251Y-117977523D01*
X216518233Y-117979846D01*
X216518238Y-117979849D01*
X216552457Y-117995805D01*
X216605742Y-118042722D01*
X216625203Y-118110999D01*
X216604661Y-118178959D01*
X216552457Y-118224195D01*
X216518238Y-118240151D01*
X216518233Y-118240154D01*
X216513251Y-118242477D01*
X216473729Y-118270151D01*
X216330211Y-118370643D01*
X216330208Y-118370645D01*
X216325700Y-118373802D01*
X216163802Y-118535700D01*
X216160645Y-118540208D01*
X216160643Y-118540211D01*
X216126563Y-118588882D01*
X216032477Y-118723251D01*
X216030154Y-118728233D01*
X216030151Y-118728238D01*
X215961563Y-118875327D01*
X215935716Y-118930757D01*
X215934294Y-118936065D01*
X215934293Y-118936067D01*
X215897944Y-119071723D01*
X215876457Y-119151913D01*
X215856502Y-119380000D01*
X215876457Y-119608087D01*
X215877881Y-119613400D01*
X215877881Y-119613402D01*
X215931998Y-119815366D01*
X215935716Y-119829243D01*
X215938039Y-119834224D01*
X215938039Y-119834225D01*
X216030151Y-120031762D01*
X216030154Y-120031767D01*
X216032477Y-120036749D01*
X216163802Y-120224300D01*
X216325700Y-120386198D01*
X216330211Y-120389357D01*
X216334424Y-120392892D01*
X216333473Y-120394026D01*
X216373471Y-120444071D01*
X216380776Y-120514690D01*
X216348742Y-120578049D01*
X216287538Y-120614030D01*
X216270483Y-120617082D01*
X216259684Y-120618255D01*
X216123295Y-120669385D01*
X216006739Y-120756739D01*
X215919385Y-120873295D01*
X215868255Y-121009684D01*
X215861500Y-121071866D01*
X215861500Y-122768134D01*
X215868255Y-122830316D01*
X215919385Y-122966705D01*
X216006739Y-123083261D01*
X216123295Y-123170615D01*
X216259684Y-123221745D01*
X216321866Y-123228500D01*
X218018134Y-123228500D01*
X218080316Y-123221745D01*
X218216705Y-123170615D01*
X218333261Y-123083261D01*
X218420615Y-122966705D01*
X218471745Y-122830316D01*
X218478500Y-122768134D01*
X218478500Y-121071866D01*
X218471745Y-121009684D01*
X218420615Y-120873295D01*
X218333261Y-120756739D01*
X218216705Y-120669385D01*
X218080316Y-120618255D01*
X218069526Y-120617083D01*
X218067394Y-120616197D01*
X218064778Y-120615575D01*
X218064879Y-120615152D01*
X218003965Y-120589845D01*
X217963537Y-120531483D01*
X217961078Y-120460529D01*
X217997371Y-120399510D01*
X218006031Y-120392511D01*
X218009793Y-120389354D01*
X218014300Y-120386198D01*
X218176198Y-120224300D01*
X218307523Y-120036749D01*
X218309846Y-120031767D01*
X218309849Y-120031762D01*
X218401961Y-119834225D01*
X218401961Y-119834224D01*
X218404284Y-119829243D01*
X218408003Y-119815366D01*
X218462119Y-119613402D01*
X218462119Y-119613400D01*
X218463543Y-119608087D01*
X218483498Y-119380000D01*
X218475356Y-119286938D01*
X218489345Y-119217334D01*
X218538744Y-119166342D01*
X218607870Y-119150151D01*
X218674776Y-119173903D01*
X218689971Y-119186861D01*
X219722898Y-120219789D01*
X220418123Y-120915014D01*
X220428990Y-120927404D01*
X220447498Y-120951524D01*
X220478162Y-120975053D01*
X220478163Y-120975054D01*
X220569639Y-121045245D01*
X220711874Y-121104161D01*
X220864511Y-121124257D01*
X220894649Y-121120289D01*
X220911096Y-121119211D01*
X223535853Y-121119211D01*
X223603974Y-121139213D01*
X223650467Y-121192869D01*
X223660571Y-121263143D01*
X223650049Y-121298458D01*
X223555716Y-121500757D01*
X223554294Y-121506065D01*
X223554293Y-121506067D01*
X223503027Y-121697393D01*
X223496457Y-121721913D01*
X223476502Y-121950000D01*
X223496457Y-122178087D01*
X223497881Y-122183400D01*
X223497881Y-122183402D01*
X223528044Y-122295972D01*
X223526354Y-122366948D01*
X223495432Y-122417678D01*
X218975915Y-126937195D01*
X218913603Y-126971221D01*
X218886820Y-126974100D01*
X210260700Y-126974100D01*
X210192579Y-126954098D01*
X210146086Y-126900442D01*
X210134700Y-126848100D01*
X210134700Y-123171313D01*
X210154702Y-123103192D01*
X210197700Y-123062194D01*
X210201764Y-123059847D01*
X210206749Y-123057523D01*
X210326188Y-122973891D01*
X210389789Y-122929357D01*
X210389792Y-122929355D01*
X210394300Y-122926198D01*
X210556198Y-122764300D01*
X210687523Y-122576749D01*
X210689846Y-122571767D01*
X210689849Y-122571762D01*
X210781961Y-122374225D01*
X210781961Y-122374224D01*
X210784284Y-122369243D01*
X210835505Y-122178087D01*
X210842119Y-122153402D01*
X210842119Y-122153400D01*
X210843543Y-122148087D01*
X210863498Y-121920000D01*
X210843543Y-121691913D01*
X210797634Y-121520580D01*
X210785707Y-121476067D01*
X210785706Y-121476065D01*
X210784284Y-121470757D01*
X210703942Y-121298461D01*
X210689849Y-121268238D01*
X210689846Y-121268233D01*
X210687523Y-121263251D01*
X210600670Y-121139213D01*
X210559357Y-121080211D01*
X210559355Y-121080208D01*
X210556198Y-121075700D01*
X210394300Y-120913802D01*
X210389792Y-120910645D01*
X210389789Y-120910643D01*
X210311611Y-120855902D01*
X210206749Y-120782477D01*
X210201767Y-120780154D01*
X210201762Y-120780151D01*
X210167543Y-120764195D01*
X210114258Y-120717278D01*
X210094797Y-120649001D01*
X210115339Y-120581041D01*
X210167543Y-120535805D01*
X210201762Y-120519849D01*
X210201767Y-120519846D01*
X210206749Y-120517523D01*
X210375289Y-120399510D01*
X210389789Y-120389357D01*
X210389792Y-120389355D01*
X210394300Y-120386198D01*
X210556198Y-120224300D01*
X210687523Y-120036749D01*
X210689846Y-120031767D01*
X210689849Y-120031762D01*
X210781961Y-119834225D01*
X210781961Y-119834224D01*
X210784284Y-119829243D01*
X210788003Y-119815366D01*
X210842119Y-119613402D01*
X210842119Y-119613400D01*
X210843543Y-119608087D01*
X210863498Y-119380000D01*
X210843543Y-119151913D01*
X210822056Y-119071723D01*
X210785707Y-118936067D01*
X210785706Y-118936065D01*
X210784284Y-118930757D01*
X210758437Y-118875327D01*
X210689849Y-118728238D01*
X210689846Y-118728233D01*
X210687523Y-118723251D01*
X210593437Y-118588882D01*
X210559357Y-118540211D01*
X210559355Y-118540208D01*
X210556198Y-118535700D01*
X210394300Y-118373802D01*
X210389792Y-118370645D01*
X210389789Y-118370643D01*
X210246271Y-118270151D01*
X210206749Y-118242477D01*
X210201767Y-118240154D01*
X210201762Y-118240151D01*
X210167543Y-118224195D01*
X210114258Y-118177278D01*
X210094797Y-118109001D01*
X210115339Y-118041041D01*
X210167543Y-117995805D01*
X210201762Y-117979849D01*
X210201767Y-117979846D01*
X210206749Y-117977523D01*
X210311611Y-117904098D01*
X210389789Y-117849357D01*
X210389792Y-117849355D01*
X210394300Y-117846198D01*
X210556198Y-117684300D01*
X210591557Y-117633803D01*
X210663363Y-117531253D01*
X210687523Y-117496749D01*
X210689846Y-117491767D01*
X210689849Y-117491762D01*
X210781961Y-117294225D01*
X210781961Y-117294224D01*
X210784284Y-117289243D01*
X210806785Y-117205271D01*
X210842119Y-117073402D01*
X210842119Y-117073400D01*
X210843543Y-117068087D01*
X210863498Y-116840000D01*
X210843543Y-116611913D01*
X210808993Y-116482972D01*
X210785707Y-116396067D01*
X210785706Y-116396065D01*
X210784284Y-116390757D01*
X210757289Y-116332866D01*
X210689849Y-116188238D01*
X210689846Y-116188233D01*
X210687523Y-116183251D01*
X210590438Y-116044600D01*
X210559357Y-116000211D01*
X210559355Y-116000208D01*
X210556198Y-115995700D01*
X210394300Y-115833802D01*
X210389792Y-115830645D01*
X210389789Y-115830643D01*
X210246271Y-115730151D01*
X210206749Y-115702477D01*
X210201767Y-115700154D01*
X210201762Y-115700151D01*
X210167543Y-115684195D01*
X210114258Y-115637278D01*
X210094797Y-115569001D01*
X210115339Y-115501041D01*
X210167543Y-115455805D01*
X210201762Y-115439849D01*
X210201767Y-115439846D01*
X210206749Y-115437523D01*
X210311611Y-115364098D01*
X210389789Y-115309357D01*
X210389792Y-115309355D01*
X210394300Y-115306198D01*
X210556198Y-115144300D01*
X210570494Y-115123884D01*
X210663360Y-114991257D01*
X210687523Y-114956749D01*
X210689846Y-114951767D01*
X210689849Y-114951762D01*
X210781961Y-114754225D01*
X210781961Y-114754224D01*
X210784284Y-114749243D01*
X210790545Y-114725879D01*
X210842119Y-114533402D01*
X210842119Y-114533400D01*
X210843543Y-114528087D01*
X210863498Y-114300000D01*
X210843543Y-114071913D01*
X210828871Y-114017157D01*
X210785707Y-113856067D01*
X210785706Y-113856065D01*
X210784284Y-113850757D01*
X210773250Y-113827094D01*
X210689849Y-113648238D01*
X210689846Y-113648233D01*
X210687523Y-113643251D01*
X210580363Y-113490211D01*
X210559357Y-113460211D01*
X210559355Y-113460208D01*
X210556198Y-113455700D01*
X210394300Y-113293802D01*
X210389792Y-113290645D01*
X210389789Y-113290643D01*
X210246271Y-113190151D01*
X210206749Y-113162477D01*
X210201767Y-113160154D01*
X210201762Y-113160151D01*
X210167543Y-113144195D01*
X210114258Y-113097278D01*
X210094797Y-113029001D01*
X210115339Y-112961041D01*
X210167543Y-112915805D01*
X210201762Y-112899849D01*
X210201767Y-112899846D01*
X210206749Y-112897523D01*
X210311611Y-112824098D01*
X210389789Y-112769357D01*
X210389792Y-112769355D01*
X210394300Y-112766198D01*
X210556198Y-112604300D01*
X210570494Y-112583884D01*
X210663360Y-112451257D01*
X210687523Y-112416749D01*
X210689846Y-112411767D01*
X210689849Y-112411762D01*
X210781961Y-112214225D01*
X210781961Y-112214224D01*
X210784284Y-112209243D01*
X210788003Y-112195366D01*
X210842119Y-111993402D01*
X210842119Y-111993400D01*
X210843543Y-111988087D01*
X210863498Y-111760000D01*
X210843543Y-111531913D01*
X210842119Y-111526598D01*
X210785707Y-111316067D01*
X210785706Y-111316065D01*
X210784284Y-111310757D01*
X210762256Y-111263517D01*
X210689849Y-111108238D01*
X210689846Y-111108233D01*
X210687523Y-111103251D01*
X210590438Y-110964600D01*
X210559357Y-110920211D01*
X210559355Y-110920208D01*
X210556198Y-110915700D01*
X210394300Y-110753802D01*
X210389792Y-110750645D01*
X210389789Y-110750643D01*
X210254102Y-110655634D01*
X210206749Y-110622477D01*
X210201767Y-110620154D01*
X210201762Y-110620151D01*
X210167543Y-110604195D01*
X210114258Y-110557278D01*
X210094797Y-110489001D01*
X210115339Y-110421041D01*
X210167543Y-110375805D01*
X210201762Y-110359849D01*
X210201767Y-110359846D01*
X210206749Y-110357523D01*
X210357021Y-110252301D01*
X210389789Y-110229357D01*
X210389792Y-110229355D01*
X210394300Y-110226198D01*
X210556198Y-110064300D01*
X210591557Y-110013803D01*
X210663360Y-109911257D01*
X210687523Y-109876749D01*
X210689846Y-109871767D01*
X210689849Y-109871762D01*
X210781961Y-109674225D01*
X210781961Y-109674224D01*
X210784284Y-109669243D01*
X210790545Y-109645879D01*
X210842119Y-109453402D01*
X210842119Y-109453400D01*
X210843543Y-109448087D01*
X210863498Y-109220000D01*
X210843543Y-108991913D01*
X210842119Y-108986598D01*
X210785707Y-108776067D01*
X210785706Y-108776065D01*
X210784284Y-108770757D01*
X210741100Y-108678148D01*
X210689849Y-108568238D01*
X210689846Y-108568233D01*
X210687523Y-108563251D01*
X210593437Y-108428882D01*
X210559357Y-108380211D01*
X210559355Y-108380208D01*
X210556198Y-108375700D01*
X210394300Y-108213802D01*
X210389792Y-108210645D01*
X210389789Y-108210643D01*
X210246271Y-108110151D01*
X210206749Y-108082477D01*
X210201767Y-108080154D01*
X210201762Y-108080151D01*
X210167543Y-108064195D01*
X210114258Y-108017278D01*
X210094797Y-107949001D01*
X210115339Y-107881041D01*
X210167543Y-107835805D01*
X210201762Y-107819849D01*
X210201767Y-107819846D01*
X210206749Y-107817523D01*
X210357021Y-107712301D01*
X210389789Y-107689357D01*
X210389792Y-107689355D01*
X210394300Y-107686198D01*
X210556198Y-107524300D01*
X210687523Y-107336749D01*
X210689846Y-107331767D01*
X210689849Y-107331762D01*
X210781961Y-107134225D01*
X210781961Y-107134224D01*
X210784284Y-107129243D01*
X210790545Y-107105879D01*
X210842119Y-106913402D01*
X210842119Y-106913400D01*
X210843543Y-106908087D01*
X210863019Y-106685475D01*
X215857483Y-106685475D01*
X215876472Y-106902519D01*
X215878375Y-106913312D01*
X215934764Y-107123761D01*
X215938510Y-107134053D01*
X216030586Y-107331511D01*
X216036069Y-107341006D01*
X216072509Y-107393048D01*
X216082988Y-107401424D01*
X216096434Y-107394356D01*
X216797978Y-106692812D01*
X216805592Y-106678868D01*
X216805461Y-106677035D01*
X216801210Y-106670420D01*
X216095713Y-105964923D01*
X216083938Y-105958493D01*
X216071923Y-105967789D01*
X216036069Y-106018994D01*
X216030586Y-106028489D01*
X215938510Y-106225947D01*
X215934764Y-106236239D01*
X215878375Y-106446688D01*
X215876472Y-106457481D01*
X215857483Y-106674525D01*
X215857483Y-106685475D01*
X210863019Y-106685475D01*
X210863498Y-106680000D01*
X210843543Y-106451913D01*
X210842119Y-106446598D01*
X210785707Y-106236067D01*
X210785706Y-106236065D01*
X210784284Y-106230757D01*
X210703838Y-106058238D01*
X210689849Y-106028238D01*
X210689846Y-106028233D01*
X210687523Y-106023251D01*
X210580363Y-105870211D01*
X210559357Y-105840211D01*
X210559355Y-105840208D01*
X210556198Y-105835700D01*
X210394300Y-105673802D01*
X210389792Y-105670645D01*
X210389789Y-105670643D01*
X210278886Y-105592988D01*
X216448576Y-105592988D01*
X216455644Y-105606434D01*
X217157188Y-106307978D01*
X217171132Y-106315592D01*
X217172965Y-106315461D01*
X217179580Y-106311210D01*
X217885077Y-105605713D01*
X217891507Y-105593938D01*
X217882211Y-105581923D01*
X217831006Y-105546069D01*
X217821511Y-105540586D01*
X217624053Y-105448510D01*
X217613761Y-105444764D01*
X217403312Y-105388375D01*
X217392519Y-105386472D01*
X217175475Y-105367483D01*
X217164525Y-105367483D01*
X216947481Y-105386472D01*
X216936688Y-105388375D01*
X216726239Y-105444764D01*
X216715947Y-105448510D01*
X216518489Y-105540586D01*
X216508994Y-105546069D01*
X216456952Y-105582509D01*
X216448576Y-105592988D01*
X210278886Y-105592988D01*
X210263920Y-105582509D01*
X210206749Y-105542477D01*
X210201767Y-105540154D01*
X210201762Y-105540151D01*
X210004225Y-105448039D01*
X210004224Y-105448039D01*
X209999243Y-105445716D01*
X209993935Y-105444294D01*
X209993933Y-105444293D01*
X209783402Y-105387881D01*
X209783400Y-105387881D01*
X209778087Y-105386457D01*
X209550000Y-105366502D01*
X209321913Y-105386457D01*
X209316600Y-105387881D01*
X209316598Y-105387881D01*
X209106067Y-105444293D01*
X209106065Y-105444294D01*
X209100757Y-105445716D01*
X209095776Y-105448039D01*
X209095775Y-105448039D01*
X208898238Y-105540151D01*
X208898233Y-105540154D01*
X208893251Y-105542477D01*
X208836080Y-105582509D01*
X208710211Y-105670643D01*
X208710208Y-105670645D01*
X208705700Y-105673802D01*
X208543802Y-105835700D01*
X208540645Y-105840208D01*
X208540643Y-105840211D01*
X208519637Y-105870211D01*
X208412477Y-106023251D01*
X208410154Y-106028233D01*
X208410151Y-106028238D01*
X208396162Y-106058238D01*
X208315716Y-106230757D01*
X208314294Y-106236065D01*
X208314293Y-106236067D01*
X208257881Y-106446598D01*
X208256457Y-106451913D01*
X208236502Y-106680000D01*
X208256457Y-106908087D01*
X208257881Y-106913400D01*
X208257881Y-106913402D01*
X208309456Y-107105879D01*
X208315716Y-107129243D01*
X208318039Y-107134224D01*
X208318039Y-107134225D01*
X208410151Y-107331762D01*
X208410154Y-107331767D01*
X208412477Y-107336749D01*
X208543802Y-107524300D01*
X208705700Y-107686198D01*
X208710208Y-107689355D01*
X208710211Y-107689357D01*
X208742979Y-107712301D01*
X208893251Y-107817523D01*
X208898233Y-107819846D01*
X208898238Y-107819849D01*
X208932457Y-107835805D01*
X208985742Y-107882722D01*
X209005203Y-107950999D01*
X208984661Y-108018959D01*
X208932457Y-108064195D01*
X208898238Y-108080151D01*
X208898233Y-108080154D01*
X208893251Y-108082477D01*
X208853729Y-108110151D01*
X208710211Y-108210643D01*
X208710208Y-108210645D01*
X208705700Y-108213802D01*
X208543802Y-108375700D01*
X208540645Y-108380208D01*
X208540643Y-108380211D01*
X208506563Y-108428882D01*
X208412477Y-108563251D01*
X208410154Y-108568233D01*
X208410151Y-108568238D01*
X208358900Y-108678148D01*
X208315716Y-108770757D01*
X208314294Y-108776065D01*
X208314293Y-108776067D01*
X208257881Y-108986598D01*
X208256457Y-108991913D01*
X208236502Y-109220000D01*
X208256457Y-109448087D01*
X208257881Y-109453400D01*
X208257881Y-109453402D01*
X208309456Y-109645879D01*
X208315716Y-109669243D01*
X208318039Y-109674224D01*
X208318039Y-109674225D01*
X208410151Y-109871762D01*
X208410154Y-109871767D01*
X208412477Y-109876749D01*
X208436640Y-109911257D01*
X208508444Y-110013803D01*
X208543802Y-110064300D01*
X208705700Y-110226198D01*
X208710208Y-110229355D01*
X208710211Y-110229357D01*
X208742979Y-110252301D01*
X208893251Y-110357523D01*
X208898233Y-110359846D01*
X208898238Y-110359849D01*
X208932457Y-110375805D01*
X208985742Y-110422722D01*
X209005203Y-110490999D01*
X208984661Y-110558959D01*
X208932457Y-110604195D01*
X208898238Y-110620151D01*
X208898233Y-110620154D01*
X208893251Y-110622477D01*
X208845898Y-110655634D01*
X208710211Y-110750643D01*
X208710208Y-110750645D01*
X208705700Y-110753802D01*
X208543802Y-110915700D01*
X208540645Y-110920208D01*
X208540643Y-110920211D01*
X208509562Y-110964600D01*
X208412477Y-111103251D01*
X208410154Y-111108233D01*
X208410151Y-111108238D01*
X208337744Y-111263517D01*
X208315716Y-111310757D01*
X208314294Y-111316065D01*
X208314293Y-111316067D01*
X208257881Y-111526598D01*
X208256457Y-111531913D01*
X208236502Y-111760000D01*
X208256457Y-111988087D01*
X208257881Y-111993400D01*
X208257881Y-111993402D01*
X208311998Y-112195366D01*
X208315716Y-112209243D01*
X208318039Y-112214224D01*
X208318039Y-112214225D01*
X208410151Y-112411762D01*
X208410154Y-112411767D01*
X208412477Y-112416749D01*
X208436640Y-112451257D01*
X208529507Y-112583884D01*
X208543802Y-112604300D01*
X208705700Y-112766198D01*
X208710208Y-112769355D01*
X208710211Y-112769357D01*
X208788389Y-112824098D01*
X208893251Y-112897523D01*
X208898233Y-112899846D01*
X208898238Y-112899849D01*
X208932457Y-112915805D01*
X208985742Y-112962722D01*
X209005203Y-113030999D01*
X208984661Y-113098959D01*
X208932457Y-113144195D01*
X208898238Y-113160151D01*
X208898233Y-113160154D01*
X208893251Y-113162477D01*
X208853729Y-113190151D01*
X208710211Y-113290643D01*
X208710208Y-113290645D01*
X208705700Y-113293802D01*
X208543802Y-113455700D01*
X208540645Y-113460208D01*
X208540643Y-113460211D01*
X208519637Y-113490211D01*
X208412477Y-113643251D01*
X208410154Y-113648233D01*
X208410151Y-113648238D01*
X208326750Y-113827094D01*
X208315716Y-113850757D01*
X208314294Y-113856065D01*
X208314293Y-113856067D01*
X208271129Y-114017157D01*
X208256457Y-114071913D01*
X208236502Y-114300000D01*
X208256457Y-114528087D01*
X208257881Y-114533400D01*
X208257881Y-114533402D01*
X208309456Y-114725879D01*
X208315716Y-114749243D01*
X208318039Y-114754224D01*
X208318039Y-114754225D01*
X208410151Y-114951762D01*
X208410154Y-114951767D01*
X208412477Y-114956749D01*
X208436640Y-114991257D01*
X208529507Y-115123884D01*
X208543802Y-115144300D01*
X208705700Y-115306198D01*
X208710208Y-115309355D01*
X208710211Y-115309357D01*
X208788389Y-115364098D01*
X208893251Y-115437523D01*
X208898233Y-115439846D01*
X208898238Y-115439849D01*
X208932457Y-115455805D01*
X208985742Y-115502722D01*
X209005203Y-115570999D01*
X208984661Y-115638959D01*
X208932457Y-115684195D01*
X208898238Y-115700151D01*
X208898233Y-115700154D01*
X208893251Y-115702477D01*
X208853729Y-115730151D01*
X208710211Y-115830643D01*
X208710208Y-115830645D01*
X208705700Y-115833802D01*
X208543802Y-115995700D01*
X208540645Y-116000208D01*
X208540643Y-116000211D01*
X208509562Y-116044600D01*
X208412477Y-116183251D01*
X208410154Y-116188233D01*
X208410151Y-116188238D01*
X208342711Y-116332866D01*
X208315716Y-116390757D01*
X208314294Y-116396065D01*
X208314293Y-116396067D01*
X208291007Y-116482972D01*
X208256457Y-116611913D01*
X208236502Y-116840000D01*
X208256457Y-117068087D01*
X208257881Y-117073400D01*
X208257881Y-117073402D01*
X208293216Y-117205271D01*
X208315716Y-117289243D01*
X208318039Y-117294224D01*
X208318039Y-117294225D01*
X208410151Y-117491762D01*
X208410154Y-117491767D01*
X208412477Y-117496749D01*
X208436637Y-117531253D01*
X208508444Y-117633803D01*
X208543802Y-117684300D01*
X208705700Y-117846198D01*
X208710208Y-117849355D01*
X208710211Y-117849357D01*
X208788389Y-117904098D01*
X208893251Y-117977523D01*
X208898233Y-117979846D01*
X208898238Y-117979849D01*
X208932457Y-117995805D01*
X208985742Y-118042722D01*
X209005203Y-118110999D01*
X208984661Y-118178959D01*
X208932457Y-118224195D01*
X208898238Y-118240151D01*
X208898233Y-118240154D01*
X208893251Y-118242477D01*
X208853729Y-118270151D01*
X208710211Y-118370643D01*
X208710208Y-118370645D01*
X208705700Y-118373802D01*
X208543802Y-118535700D01*
X208540645Y-118540208D01*
X208540643Y-118540211D01*
X208506563Y-118588882D01*
X208412477Y-118723251D01*
X208410154Y-118728233D01*
X208410151Y-118728238D01*
X208341563Y-118875327D01*
X208315716Y-118930757D01*
X208314294Y-118936065D01*
X208314293Y-118936067D01*
X208277944Y-119071723D01*
X208256457Y-119151913D01*
X208236502Y-119380000D01*
X208256457Y-119608087D01*
X208257881Y-119613400D01*
X208257881Y-119613402D01*
X208311998Y-119815366D01*
X208315716Y-119829243D01*
X208318039Y-119834224D01*
X208318039Y-119834225D01*
X208410151Y-120031762D01*
X208410154Y-120031767D01*
X208412477Y-120036749D01*
X208543802Y-120224300D01*
X208705700Y-120386198D01*
X208710208Y-120389355D01*
X208710211Y-120389357D01*
X208724711Y-120399510D01*
X208893251Y-120517523D01*
X208898233Y-120519846D01*
X208898238Y-120519849D01*
X208932457Y-120535805D01*
X208985742Y-120582722D01*
X209005203Y-120650999D01*
X208984661Y-120718959D01*
X208932457Y-120764195D01*
X208898238Y-120780151D01*
X208898233Y-120780154D01*
X208893251Y-120782477D01*
X208788389Y-120855902D01*
X208710211Y-120910643D01*
X208710208Y-120910645D01*
X208705700Y-120913802D01*
X208543802Y-121075700D01*
X208540645Y-121080208D01*
X208540643Y-121080211D01*
X208499330Y-121139213D01*
X208412477Y-121263251D01*
X208410154Y-121268233D01*
X208410151Y-121268238D01*
X208396058Y-121298461D01*
X208315716Y-121470757D01*
X208314294Y-121476065D01*
X208314293Y-121476067D01*
X208302366Y-121520580D01*
X208256457Y-121691913D01*
X208236502Y-121920000D01*
X206502000Y-121920000D01*
X206502000Y-101640378D01*
X206525470Y-101567142D01*
X207776211Y-99816104D01*
X209010037Y-98088748D01*
X209065907Y-98044942D01*
X209096543Y-98037007D01*
X217700843Y-96933892D01*
X218930029Y-96776304D01*
X218948000Y-96774000D01*
X218956920Y-96372600D01*
X227691684Y-96372600D01*
X227710114Y-96583255D01*
X227711538Y-96588568D01*
X227711538Y-96588570D01*
X227719214Y-96617215D01*
X227764844Y-96787510D01*
X227767166Y-96792491D01*
X227767167Y-96792492D01*
X227826586Y-96919915D01*
X227854211Y-96979158D01*
X227975499Y-97152376D01*
X228125024Y-97301901D01*
X228298242Y-97423189D01*
X228303220Y-97425510D01*
X228303223Y-97425512D01*
X228484908Y-97510233D01*
X228489890Y-97512556D01*
X228495198Y-97513978D01*
X228495200Y-97513979D01*
X228688830Y-97565862D01*
X228688832Y-97565862D01*
X228694145Y-97567286D01*
X228904800Y-97585716D01*
X229115455Y-97567286D01*
X229120768Y-97565862D01*
X229120770Y-97565862D01*
X229314400Y-97513979D01*
X229314402Y-97513978D01*
X229319710Y-97512556D01*
X229324692Y-97510233D01*
X229506377Y-97425512D01*
X229506380Y-97425510D01*
X229511358Y-97423189D01*
X229684576Y-97301901D01*
X229834101Y-97152376D01*
X229955389Y-96979158D01*
X229983015Y-96919915D01*
X230042433Y-96792492D01*
X230042434Y-96792491D01*
X230044756Y-96787510D01*
X230090387Y-96617215D01*
X230098062Y-96588570D01*
X230098062Y-96588568D01*
X230099486Y-96583255D01*
X230117916Y-96372600D01*
X237546884Y-96372600D01*
X237565314Y-96583255D01*
X237566738Y-96588568D01*
X237566738Y-96588570D01*
X237574414Y-96617215D01*
X237620044Y-96787510D01*
X237622366Y-96792491D01*
X237622367Y-96792492D01*
X237681786Y-96919915D01*
X237709411Y-96979158D01*
X237830699Y-97152376D01*
X237980224Y-97301901D01*
X238153442Y-97423189D01*
X238158420Y-97425510D01*
X238158423Y-97425512D01*
X238340108Y-97510233D01*
X238345090Y-97512556D01*
X238350398Y-97513978D01*
X238350400Y-97513979D01*
X238544030Y-97565862D01*
X238544032Y-97565862D01*
X238549345Y-97567286D01*
X238760000Y-97585716D01*
X238970655Y-97567286D01*
X238975968Y-97565862D01*
X238975970Y-97565862D01*
X239169600Y-97513979D01*
X239169602Y-97513978D01*
X239174910Y-97512556D01*
X239179892Y-97510233D01*
X239361577Y-97425512D01*
X239361580Y-97425510D01*
X239366558Y-97423189D01*
X239539776Y-97301901D01*
X239689301Y-97152376D01*
X239810589Y-96979158D01*
X239838215Y-96919915D01*
X239897633Y-96792492D01*
X239897634Y-96792491D01*
X239899956Y-96787510D01*
X239945587Y-96617215D01*
X239953262Y-96588570D01*
X239953262Y-96588568D01*
X239954686Y-96583255D01*
X239973116Y-96372600D01*
X247351284Y-96372600D01*
X247369714Y-96583255D01*
X247371138Y-96588568D01*
X247371138Y-96588570D01*
X247378814Y-96617215D01*
X247424444Y-96787510D01*
X247426766Y-96792491D01*
X247426767Y-96792492D01*
X247486186Y-96919915D01*
X247513811Y-96979158D01*
X247635099Y-97152376D01*
X247784624Y-97301901D01*
X247957842Y-97423189D01*
X247962820Y-97425510D01*
X247962823Y-97425512D01*
X248144508Y-97510233D01*
X248149490Y-97512556D01*
X248154798Y-97513978D01*
X248154800Y-97513979D01*
X248348430Y-97565862D01*
X248348432Y-97565862D01*
X248353745Y-97567286D01*
X248564400Y-97585716D01*
X248775055Y-97567286D01*
X248780368Y-97565862D01*
X248780370Y-97565862D01*
X248974000Y-97513979D01*
X248974002Y-97513978D01*
X248979310Y-97512556D01*
X248984292Y-97510233D01*
X249165977Y-97425512D01*
X249165980Y-97425510D01*
X249170958Y-97423189D01*
X249344176Y-97301901D01*
X249493701Y-97152376D01*
X249614989Y-96979158D01*
X249642615Y-96919915D01*
X249702033Y-96792492D01*
X249702034Y-96792491D01*
X249704356Y-96787510D01*
X249749987Y-96617215D01*
X249757662Y-96588570D01*
X249757662Y-96588568D01*
X249759086Y-96583255D01*
X249777516Y-96372600D01*
X249759086Y-96161945D01*
X249736202Y-96076540D01*
X249705779Y-95963000D01*
X249705778Y-95962998D01*
X249704356Y-95957690D01*
X249614989Y-95766042D01*
X249493701Y-95592824D01*
X249344176Y-95443299D01*
X249170958Y-95322011D01*
X249165980Y-95319690D01*
X249165977Y-95319688D01*
X248984292Y-95234967D01*
X248984291Y-95234966D01*
X248979310Y-95232644D01*
X248974002Y-95231222D01*
X248974000Y-95231221D01*
X248780370Y-95179338D01*
X248780368Y-95179338D01*
X248775055Y-95177914D01*
X248564400Y-95159484D01*
X248353745Y-95177914D01*
X248348432Y-95179338D01*
X248348430Y-95179338D01*
X248154800Y-95231221D01*
X248154798Y-95231222D01*
X248149490Y-95232644D01*
X248144509Y-95234966D01*
X248144508Y-95234967D01*
X247962823Y-95319688D01*
X247962820Y-95319690D01*
X247957842Y-95322011D01*
X247784624Y-95443299D01*
X247635099Y-95592824D01*
X247513811Y-95766042D01*
X247424444Y-95957690D01*
X247423022Y-95962998D01*
X247423021Y-95963000D01*
X247392598Y-96076540D01*
X247369714Y-96161945D01*
X247351284Y-96372600D01*
X239973116Y-96372600D01*
X239954686Y-96161945D01*
X239931802Y-96076540D01*
X239901379Y-95963000D01*
X239901378Y-95962998D01*
X239899956Y-95957690D01*
X239810589Y-95766042D01*
X239689301Y-95592824D01*
X239539776Y-95443299D01*
X239366558Y-95322011D01*
X239361580Y-95319690D01*
X239361577Y-95319688D01*
X239179892Y-95234967D01*
X239179891Y-95234966D01*
X239174910Y-95232644D01*
X239169602Y-95231222D01*
X239169600Y-95231221D01*
X238975970Y-95179338D01*
X238975968Y-95179338D01*
X238970655Y-95177914D01*
X238760000Y-95159484D01*
X238549345Y-95177914D01*
X238544032Y-95179338D01*
X238544030Y-95179338D01*
X238350400Y-95231221D01*
X238350398Y-95231222D01*
X238345090Y-95232644D01*
X238340109Y-95234966D01*
X238340108Y-95234967D01*
X238158423Y-95319688D01*
X238158420Y-95319690D01*
X238153442Y-95322011D01*
X237980224Y-95443299D01*
X237830699Y-95592824D01*
X237709411Y-95766042D01*
X237620044Y-95957690D01*
X237618622Y-95962998D01*
X237618621Y-95963000D01*
X237588198Y-96076540D01*
X237565314Y-96161945D01*
X237546884Y-96372600D01*
X230117916Y-96372600D01*
X230099486Y-96161945D01*
X230076602Y-96076540D01*
X230046179Y-95963000D01*
X230046178Y-95962998D01*
X230044756Y-95957690D01*
X229955389Y-95766042D01*
X229834101Y-95592824D01*
X229684576Y-95443299D01*
X229511358Y-95322011D01*
X229506380Y-95319690D01*
X229506377Y-95319688D01*
X229324692Y-95234967D01*
X229324691Y-95234966D01*
X229319710Y-95232644D01*
X229314402Y-95231222D01*
X229314400Y-95231221D01*
X229120770Y-95179338D01*
X229120768Y-95179338D01*
X229115455Y-95177914D01*
X228904800Y-95159484D01*
X228694145Y-95177914D01*
X228688832Y-95179338D01*
X228688830Y-95179338D01*
X228495200Y-95231221D01*
X228495198Y-95231222D01*
X228489890Y-95232644D01*
X228484909Y-95234966D01*
X228484908Y-95234967D01*
X228303223Y-95319688D01*
X228303220Y-95319690D01*
X228298242Y-95322011D01*
X228125024Y-95443299D01*
X227975499Y-95592824D01*
X227854211Y-95766042D01*
X227764844Y-95957690D01*
X227763422Y-95962998D01*
X227763421Y-95963000D01*
X227732998Y-96076540D01*
X227710114Y-96161945D01*
X227691684Y-96372600D01*
X218956920Y-96372600D01*
X218983479Y-95177435D01*
X219126253Y-88752600D01*
X227691684Y-88752600D01*
X227710114Y-88963255D01*
X227764844Y-89167510D01*
X227854211Y-89359158D01*
X227975499Y-89532376D01*
X228125024Y-89681901D01*
X228298242Y-89803189D01*
X228303220Y-89805510D01*
X228303223Y-89805512D01*
X228484908Y-89890233D01*
X228489890Y-89892556D01*
X228495198Y-89893978D01*
X228495200Y-89893979D01*
X228688830Y-89945862D01*
X228688832Y-89945862D01*
X228694145Y-89947286D01*
X228904800Y-89965716D01*
X229115455Y-89947286D01*
X229120768Y-89945862D01*
X229120770Y-89945862D01*
X229314400Y-89893979D01*
X229314402Y-89893978D01*
X229319710Y-89892556D01*
X229324692Y-89890233D01*
X229506377Y-89805512D01*
X229506380Y-89805510D01*
X229511358Y-89803189D01*
X229684576Y-89681901D01*
X229834101Y-89532376D01*
X229955389Y-89359158D01*
X230044756Y-89167510D01*
X230099486Y-88963255D01*
X230117916Y-88752600D01*
X237546884Y-88752600D01*
X237565314Y-88963255D01*
X237620044Y-89167510D01*
X237709411Y-89359158D01*
X237830699Y-89532376D01*
X237980224Y-89681901D01*
X238153442Y-89803189D01*
X238158420Y-89805510D01*
X238158423Y-89805512D01*
X238340108Y-89890233D01*
X238345090Y-89892556D01*
X238350398Y-89893978D01*
X238350400Y-89893979D01*
X238544030Y-89945862D01*
X238544032Y-89945862D01*
X238549345Y-89947286D01*
X238760000Y-89965716D01*
X238970655Y-89947286D01*
X238975968Y-89945862D01*
X238975970Y-89945862D01*
X239169600Y-89893979D01*
X239169602Y-89893978D01*
X239174910Y-89892556D01*
X239179892Y-89890233D01*
X239361577Y-89805512D01*
X239361580Y-89805510D01*
X239366558Y-89803189D01*
X239539776Y-89681901D01*
X239689301Y-89532376D01*
X239810589Y-89359158D01*
X239899956Y-89167510D01*
X239954686Y-88963255D01*
X239973116Y-88752600D01*
X247351284Y-88752600D01*
X247369714Y-88963255D01*
X247424444Y-89167510D01*
X247513811Y-89359158D01*
X247635099Y-89532376D01*
X247784624Y-89681901D01*
X247957842Y-89803189D01*
X247962820Y-89805510D01*
X247962823Y-89805512D01*
X248144508Y-89890233D01*
X248149490Y-89892556D01*
X248154798Y-89893978D01*
X248154800Y-89893979D01*
X248348430Y-89945862D01*
X248348432Y-89945862D01*
X248353745Y-89947286D01*
X248564400Y-89965716D01*
X248775055Y-89947286D01*
X248780368Y-89945862D01*
X248780370Y-89945862D01*
X248974000Y-89893979D01*
X248974002Y-89893978D01*
X248979310Y-89892556D01*
X248984292Y-89890233D01*
X249165977Y-89805512D01*
X249165980Y-89805510D01*
X249170958Y-89803189D01*
X249344176Y-89681901D01*
X249493701Y-89532376D01*
X249614989Y-89359158D01*
X249704356Y-89167510D01*
X249759086Y-88963255D01*
X249777516Y-88752600D01*
X249759086Y-88541945D01*
X249704356Y-88337690D01*
X249614989Y-88146042D01*
X249493701Y-87972824D01*
X249344176Y-87823299D01*
X249170958Y-87702011D01*
X249165980Y-87699690D01*
X249165977Y-87699688D01*
X248984292Y-87614967D01*
X248984291Y-87614966D01*
X248979310Y-87612644D01*
X248974002Y-87611222D01*
X248974000Y-87611221D01*
X248780370Y-87559338D01*
X248780368Y-87559338D01*
X248775055Y-87557914D01*
X248564400Y-87539484D01*
X248353745Y-87557914D01*
X248348432Y-87559338D01*
X248348430Y-87559338D01*
X248154800Y-87611221D01*
X248154798Y-87611222D01*
X248149490Y-87612644D01*
X248144509Y-87614966D01*
X248144508Y-87614967D01*
X247962823Y-87699688D01*
X247962820Y-87699690D01*
X247957842Y-87702011D01*
X247784624Y-87823299D01*
X247635099Y-87972824D01*
X247513811Y-88146042D01*
X247424444Y-88337690D01*
X247369714Y-88541945D01*
X247351284Y-88752600D01*
X239973116Y-88752600D01*
X239954686Y-88541945D01*
X239899956Y-88337690D01*
X239810589Y-88146042D01*
X239689301Y-87972824D01*
X239539776Y-87823299D01*
X239366558Y-87702011D01*
X239361580Y-87699690D01*
X239361577Y-87699688D01*
X239179892Y-87614967D01*
X239179891Y-87614966D01*
X239174910Y-87612644D01*
X239169602Y-87611222D01*
X239169600Y-87611221D01*
X238975970Y-87559338D01*
X238975968Y-87559338D01*
X238970655Y-87557914D01*
X238760000Y-87539484D01*
X238549345Y-87557914D01*
X238544032Y-87559338D01*
X238544030Y-87559338D01*
X238350400Y-87611221D01*
X238350398Y-87611222D01*
X238345090Y-87612644D01*
X238340109Y-87614966D01*
X238340108Y-87614967D01*
X238158423Y-87699688D01*
X238158420Y-87699690D01*
X238153442Y-87702011D01*
X237980224Y-87823299D01*
X237830699Y-87972824D01*
X237709411Y-88146042D01*
X237620044Y-88337690D01*
X237565314Y-88541945D01*
X237546884Y-88752600D01*
X230117916Y-88752600D01*
X230099486Y-88541945D01*
X230044756Y-88337690D01*
X229955389Y-88146042D01*
X229834101Y-87972824D01*
X229684576Y-87823299D01*
X229511358Y-87702011D01*
X229506380Y-87699690D01*
X229506377Y-87699688D01*
X229324692Y-87614967D01*
X229324691Y-87614966D01*
X229319710Y-87612644D01*
X229314402Y-87611222D01*
X229314400Y-87611221D01*
X229120770Y-87559338D01*
X229120768Y-87559338D01*
X229115455Y-87557914D01*
X228904800Y-87539484D01*
X228694145Y-87557914D01*
X228688832Y-87559338D01*
X228688830Y-87559338D01*
X228495200Y-87611221D01*
X228495198Y-87611222D01*
X228489890Y-87612644D01*
X228484909Y-87614966D01*
X228484908Y-87614967D01*
X228303223Y-87699688D01*
X228303220Y-87699690D01*
X228298242Y-87702011D01*
X228125024Y-87823299D01*
X227975499Y-87972824D01*
X227854211Y-88146042D01*
X227764844Y-88337690D01*
X227710114Y-88541945D01*
X227691684Y-88752600D01*
X219126253Y-88752600D01*
X219200877Y-85394545D01*
X219222388Y-85326885D01*
X219237751Y-85308249D01*
X220811331Y-83734669D01*
X227491895Y-83734669D01*
X227492192Y-83739822D01*
X227492192Y-83739825D01*
X227504929Y-83960729D01*
X227505227Y-83965897D01*
X227506364Y-83970943D01*
X227506365Y-83970949D01*
X227538541Y-84113723D01*
X227556146Y-84191842D01*
X227558088Y-84196624D01*
X227558089Y-84196628D01*
X227641340Y-84401650D01*
X227643284Y-84406437D01*
X227764301Y-84603919D01*
X227915947Y-84778984D01*
X228094149Y-84926930D01*
X228294122Y-85043784D01*
X228510494Y-85126409D01*
X228515560Y-85127440D01*
X228515561Y-85127440D01*
X228568646Y-85138240D01*
X228737456Y-85172585D01*
X228868124Y-85177376D01*
X228963749Y-85180883D01*
X228963753Y-85180883D01*
X228968913Y-85181072D01*
X228974033Y-85180416D01*
X228974035Y-85180416D01*
X229047070Y-85171060D01*
X229198647Y-85151642D01*
X229203595Y-85150157D01*
X229203602Y-85150156D01*
X229415547Y-85086569D01*
X229420490Y-85085086D01*
X229501036Y-85045627D01*
X229623849Y-84985462D01*
X229623852Y-84985460D01*
X229628484Y-84983191D01*
X229817043Y-84848694D01*
X229981103Y-84685205D01*
X230116258Y-84497117D01*
X230163441Y-84401650D01*
X230216584Y-84294122D01*
X230216585Y-84294120D01*
X230218878Y-84289480D01*
X230286208Y-84067871D01*
X230316440Y-83838241D01*
X230317039Y-83813730D01*
X230318045Y-83772565D01*
X230318045Y-83772561D01*
X230318127Y-83769200D01*
X230315288Y-83734669D01*
X237296295Y-83734669D01*
X237296592Y-83739822D01*
X237296592Y-83739825D01*
X237309329Y-83960729D01*
X237309627Y-83965897D01*
X237310764Y-83970943D01*
X237310765Y-83970949D01*
X237342941Y-84113723D01*
X237360546Y-84191842D01*
X237362488Y-84196624D01*
X237362489Y-84196628D01*
X237445740Y-84401650D01*
X237447684Y-84406437D01*
X237568701Y-84603919D01*
X237720347Y-84778984D01*
X237898549Y-84926930D01*
X238098522Y-85043784D01*
X238314894Y-85126409D01*
X238319960Y-85127440D01*
X238319961Y-85127440D01*
X238373046Y-85138240D01*
X238541856Y-85172585D01*
X238672524Y-85177376D01*
X238768149Y-85180883D01*
X238768153Y-85180883D01*
X238773313Y-85181072D01*
X238778433Y-85180416D01*
X238778435Y-85180416D01*
X238851470Y-85171060D01*
X239003047Y-85151642D01*
X239007995Y-85150157D01*
X239008002Y-85150156D01*
X239219947Y-85086569D01*
X239224890Y-85085086D01*
X239305436Y-85045627D01*
X239428249Y-84985462D01*
X239428252Y-84985460D01*
X239432884Y-84983191D01*
X239621443Y-84848694D01*
X239785503Y-84685205D01*
X239920658Y-84497117D01*
X239967841Y-84401650D01*
X240020984Y-84294122D01*
X240020985Y-84294120D01*
X240023278Y-84289480D01*
X240090608Y-84067871D01*
X240120840Y-83838241D01*
X240121439Y-83813730D01*
X240122445Y-83772565D01*
X240122445Y-83772561D01*
X240122527Y-83769200D01*
X240119688Y-83734669D01*
X247151495Y-83734669D01*
X247151792Y-83739822D01*
X247151792Y-83739825D01*
X247164529Y-83960729D01*
X247164827Y-83965897D01*
X247165964Y-83970943D01*
X247165965Y-83970949D01*
X247198141Y-84113723D01*
X247215746Y-84191842D01*
X247217688Y-84196624D01*
X247217689Y-84196628D01*
X247300940Y-84401650D01*
X247302884Y-84406437D01*
X247423901Y-84603919D01*
X247575547Y-84778984D01*
X247753749Y-84926930D01*
X247953722Y-85043784D01*
X248170094Y-85126409D01*
X248175160Y-85127440D01*
X248175161Y-85127440D01*
X248228246Y-85138240D01*
X248397056Y-85172585D01*
X248527724Y-85177376D01*
X248623349Y-85180883D01*
X248623353Y-85180883D01*
X248628513Y-85181072D01*
X248633633Y-85180416D01*
X248633635Y-85180416D01*
X248706670Y-85171060D01*
X248858247Y-85151642D01*
X248863195Y-85150157D01*
X248863202Y-85150156D01*
X249075147Y-85086569D01*
X249080090Y-85085086D01*
X249160636Y-85045627D01*
X249283449Y-84985462D01*
X249283452Y-84985460D01*
X249288084Y-84983191D01*
X249476643Y-84848694D01*
X249640703Y-84685205D01*
X249775858Y-84497117D01*
X249823041Y-84401650D01*
X249876184Y-84294122D01*
X249876185Y-84294120D01*
X249878478Y-84289480D01*
X249945808Y-84067871D01*
X249976040Y-83838241D01*
X249976639Y-83813730D01*
X249977645Y-83772565D01*
X249977645Y-83772561D01*
X249977727Y-83769200D01*
X249971432Y-83692634D01*
X249959173Y-83543518D01*
X249959172Y-83543512D01*
X249958749Y-83538367D01*
X249902325Y-83313733D01*
X249895957Y-83299088D01*
X249812030Y-83106068D01*
X249812028Y-83106065D01*
X249809970Y-83101331D01*
X249684164Y-82906865D01*
X249593886Y-82807650D01*
X249562834Y-82743805D01*
X249571229Y-82673306D01*
X249616405Y-82618538D01*
X249642849Y-82604869D01*
X249702454Y-82582524D01*
X249718049Y-82573986D01*
X249820124Y-82497485D01*
X249832685Y-82484924D01*
X249909186Y-82382849D01*
X249917724Y-82367254D01*
X249962878Y-82246806D01*
X249966505Y-82231551D01*
X249972031Y-82180686D01*
X249972400Y-82173872D01*
X249972400Y-81501315D01*
X249967925Y-81486076D01*
X249966535Y-81484871D01*
X249958852Y-81483200D01*
X247174516Y-81483200D01*
X247159277Y-81487675D01*
X247158072Y-81489065D01*
X247156401Y-81496748D01*
X247156401Y-82173869D01*
X247156771Y-82180690D01*
X247162295Y-82231552D01*
X247165921Y-82246804D01*
X247211076Y-82367254D01*
X247219614Y-82382849D01*
X247296115Y-82484924D01*
X247308676Y-82497485D01*
X247410751Y-82573986D01*
X247426346Y-82582524D01*
X247485940Y-82604865D01*
X247542704Y-82647507D01*
X247567404Y-82714068D01*
X247552196Y-82783417D01*
X247532804Y-82809898D01*
X247466039Y-82879764D01*
X247463125Y-82884036D01*
X247463124Y-82884037D01*
X247447552Y-82906865D01*
X247335519Y-83071099D01*
X247238002Y-83281181D01*
X247176107Y-83504369D01*
X247151495Y-83734669D01*
X240119688Y-83734669D01*
X240116232Y-83692634D01*
X240103973Y-83543518D01*
X240103972Y-83543512D01*
X240103549Y-83538367D01*
X240047125Y-83313733D01*
X240040757Y-83299088D01*
X239956830Y-83106068D01*
X239956828Y-83106065D01*
X239954770Y-83101331D01*
X239828964Y-82906865D01*
X239738686Y-82807650D01*
X239707634Y-82743805D01*
X239716029Y-82673306D01*
X239761205Y-82618538D01*
X239787649Y-82604869D01*
X239847254Y-82582524D01*
X239862849Y-82573986D01*
X239964924Y-82497485D01*
X239977485Y-82484924D01*
X240053986Y-82382849D01*
X240062524Y-82367254D01*
X240107678Y-82246806D01*
X240111305Y-82231551D01*
X240116831Y-82180686D01*
X240117200Y-82173872D01*
X240117200Y-81501315D01*
X240112725Y-81486076D01*
X240111335Y-81484871D01*
X240103652Y-81483200D01*
X237319316Y-81483200D01*
X237304077Y-81487675D01*
X237302872Y-81489065D01*
X237301201Y-81496748D01*
X237301201Y-82173869D01*
X237301571Y-82180690D01*
X237307095Y-82231552D01*
X237310721Y-82246804D01*
X237355876Y-82367254D01*
X237364414Y-82382849D01*
X237440915Y-82484924D01*
X237453476Y-82497485D01*
X237555551Y-82573986D01*
X237571146Y-82582524D01*
X237630740Y-82604865D01*
X237687504Y-82647507D01*
X237712204Y-82714068D01*
X237696996Y-82783417D01*
X237677604Y-82809898D01*
X237610839Y-82879764D01*
X237607925Y-82884036D01*
X237607924Y-82884037D01*
X237592352Y-82906865D01*
X237480319Y-83071099D01*
X237382802Y-83281181D01*
X237320907Y-83504369D01*
X237296295Y-83734669D01*
X230315288Y-83734669D01*
X230311832Y-83692634D01*
X230299573Y-83543518D01*
X230299572Y-83543512D01*
X230299149Y-83538367D01*
X230242725Y-83313733D01*
X230236357Y-83299088D01*
X230152430Y-83106068D01*
X230152428Y-83106065D01*
X230150370Y-83101331D01*
X230024564Y-82906865D01*
X229934286Y-82807650D01*
X229903234Y-82743805D01*
X229911629Y-82673306D01*
X229956805Y-82618538D01*
X229983249Y-82604869D01*
X230042854Y-82582524D01*
X230058449Y-82573986D01*
X230160524Y-82497485D01*
X230173085Y-82484924D01*
X230249586Y-82382849D01*
X230258124Y-82367254D01*
X230303278Y-82246806D01*
X230306905Y-82231551D01*
X230312431Y-82180686D01*
X230312800Y-82173872D01*
X230312800Y-81501315D01*
X230308325Y-81486076D01*
X230306935Y-81484871D01*
X230299252Y-81483200D01*
X227514916Y-81483200D01*
X227499677Y-81487675D01*
X227498472Y-81489065D01*
X227496801Y-81496748D01*
X227496801Y-82173869D01*
X227497171Y-82180690D01*
X227502695Y-82231552D01*
X227506321Y-82246804D01*
X227551476Y-82367254D01*
X227560014Y-82382849D01*
X227636515Y-82484924D01*
X227649076Y-82497485D01*
X227751151Y-82573986D01*
X227766746Y-82582524D01*
X227826340Y-82604865D01*
X227883104Y-82647507D01*
X227907804Y-82714068D01*
X227892596Y-82783417D01*
X227873204Y-82809898D01*
X227806439Y-82879764D01*
X227803525Y-82884036D01*
X227803524Y-82884037D01*
X227787952Y-82906865D01*
X227675919Y-83071099D01*
X227578402Y-83281181D01*
X227516507Y-83504369D01*
X227491895Y-83734669D01*
X220811331Y-83734669D01*
X223588915Y-80957085D01*
X227496800Y-80957085D01*
X227501275Y-80972324D01*
X227502665Y-80973529D01*
X227510348Y-80975200D01*
X228632685Y-80975200D01*
X228647924Y-80970725D01*
X228649129Y-80969335D01*
X228650800Y-80961652D01*
X228650800Y-80957085D01*
X229158800Y-80957085D01*
X229163275Y-80972324D01*
X229164665Y-80973529D01*
X229172348Y-80975200D01*
X230294684Y-80975200D01*
X230309923Y-80970725D01*
X230311128Y-80969335D01*
X230312799Y-80961652D01*
X230312799Y-80957085D01*
X237301200Y-80957085D01*
X237305675Y-80972324D01*
X237307065Y-80973529D01*
X237314748Y-80975200D01*
X238437085Y-80975200D01*
X238452324Y-80970725D01*
X238453529Y-80969335D01*
X238455200Y-80961652D01*
X238455200Y-80957085D01*
X238963200Y-80957085D01*
X238967675Y-80972324D01*
X238969065Y-80973529D01*
X238976748Y-80975200D01*
X240099084Y-80975200D01*
X240114323Y-80970725D01*
X240115528Y-80969335D01*
X240117199Y-80961652D01*
X240117199Y-80957085D01*
X247156400Y-80957085D01*
X247160875Y-80972324D01*
X247162265Y-80973529D01*
X247169948Y-80975200D01*
X248292285Y-80975200D01*
X248307524Y-80970725D01*
X248308729Y-80969335D01*
X248310400Y-80961652D01*
X248310400Y-80957085D01*
X248818400Y-80957085D01*
X248822875Y-80972324D01*
X248824265Y-80973529D01*
X248831948Y-80975200D01*
X249954284Y-80975200D01*
X249969523Y-80970725D01*
X249970728Y-80969335D01*
X249972399Y-80961652D01*
X249972399Y-80284531D01*
X249972029Y-80277710D01*
X249966505Y-80226848D01*
X249962879Y-80211596D01*
X249917724Y-80091146D01*
X249909186Y-80075551D01*
X249832685Y-79973476D01*
X249820124Y-79960915D01*
X249718049Y-79884414D01*
X249702454Y-79875876D01*
X249582006Y-79830722D01*
X249566751Y-79827095D01*
X249515886Y-79821569D01*
X249509072Y-79821200D01*
X248836515Y-79821200D01*
X248821276Y-79825675D01*
X248820071Y-79827065D01*
X248818400Y-79834748D01*
X248818400Y-80957085D01*
X248310400Y-80957085D01*
X248310400Y-79839316D01*
X248305925Y-79824077D01*
X248304535Y-79822872D01*
X248296852Y-79821201D01*
X247619731Y-79821201D01*
X247612910Y-79821571D01*
X247562048Y-79827095D01*
X247546796Y-79830721D01*
X247426346Y-79875876D01*
X247410751Y-79884414D01*
X247308676Y-79960915D01*
X247296115Y-79973476D01*
X247219614Y-80075551D01*
X247211076Y-80091146D01*
X247165922Y-80211594D01*
X247162295Y-80226849D01*
X247156769Y-80277714D01*
X247156400Y-80284528D01*
X247156400Y-80957085D01*
X240117199Y-80957085D01*
X240117199Y-80284531D01*
X240116829Y-80277710D01*
X240111305Y-80226848D01*
X240107679Y-80211596D01*
X240062524Y-80091146D01*
X240053986Y-80075551D01*
X239977485Y-79973476D01*
X239964924Y-79960915D01*
X239862849Y-79884414D01*
X239847254Y-79875876D01*
X239726806Y-79830722D01*
X239711551Y-79827095D01*
X239660686Y-79821569D01*
X239653872Y-79821200D01*
X238981315Y-79821200D01*
X238966076Y-79825675D01*
X238964871Y-79827065D01*
X238963200Y-79834748D01*
X238963200Y-80957085D01*
X238455200Y-80957085D01*
X238455200Y-79839316D01*
X238450725Y-79824077D01*
X238449335Y-79822872D01*
X238441652Y-79821201D01*
X237764531Y-79821201D01*
X237757710Y-79821571D01*
X237706848Y-79827095D01*
X237691596Y-79830721D01*
X237571146Y-79875876D01*
X237555551Y-79884414D01*
X237453476Y-79960915D01*
X237440915Y-79973476D01*
X237364414Y-80075551D01*
X237355876Y-80091146D01*
X237310722Y-80211594D01*
X237307095Y-80226849D01*
X237301569Y-80277714D01*
X237301200Y-80284528D01*
X237301200Y-80957085D01*
X230312799Y-80957085D01*
X230312799Y-80284531D01*
X230312429Y-80277710D01*
X230306905Y-80226848D01*
X230303279Y-80211596D01*
X230258124Y-80091146D01*
X230249586Y-80075551D01*
X230173085Y-79973476D01*
X230160524Y-79960915D01*
X230058449Y-79884414D01*
X230042854Y-79875876D01*
X229922406Y-79830722D01*
X229907151Y-79827095D01*
X229856286Y-79821569D01*
X229849472Y-79821200D01*
X229176915Y-79821200D01*
X229161676Y-79825675D01*
X229160471Y-79827065D01*
X229158800Y-79834748D01*
X229158800Y-80957085D01*
X228650800Y-80957085D01*
X228650800Y-79839316D01*
X228646325Y-79824077D01*
X228644935Y-79822872D01*
X228637252Y-79821201D01*
X227960131Y-79821201D01*
X227953310Y-79821571D01*
X227902448Y-79827095D01*
X227887196Y-79830721D01*
X227766746Y-79875876D01*
X227751151Y-79884414D01*
X227649076Y-79960915D01*
X227636515Y-79973476D01*
X227560014Y-80075551D01*
X227551476Y-80091146D01*
X227506322Y-80211594D01*
X227502695Y-80226849D01*
X227497169Y-80277714D01*
X227496800Y-80284528D01*
X227496800Y-80957085D01*
X223588915Y-80957085D01*
X227038544Y-77507456D01*
X227100856Y-77473430D01*
X227128965Y-77470558D01*
X251152475Y-77723437D01*
G37*
%TD.AperFunction*%
%TD*%
M02*
